<svg version="1.1" id="Layer_1" xmlns="http://www.w3.org/2000/svg" xmlns:xlink="http://www.w3.org/1999/xlink" x="0px" y="0px" viewBox="0 0 24 24" xml:space="preserve" enable-background="new 0 0 24 24" height="32" width="32"><path d="M4.5,12c0-0.7,0.3-1.3,0.8-1.7l11.2-9.8c0.8-0.7,1.9-0.6,2.6,0.2c0.6,0.8,0.6,1.9-0.2,2.5l-9.8,8.6
	C9,11.9,9,12,9.1,12.1c0,0,0,0,0,0l9.8,8.6c0.8,0.7,0.9,1.8,0.2,2.6c-0.7,0.8-1.8,0.9-2.6,0.2c0,0,0,0-0.1-0.1L5.3,13.7
	C4.8,13.3,4.5,12.6,4.5,12z" fill="##3c3c3c"></path></svg>
