<svg xmlns="http://www.w3.org/2000/svg" width="24" height="36" viewBox="0 0 24 36">
  <path id="_1f374" data-name="1f374" d="M19,1.5a1.5,1.5,0,0,0-3,0V11a1,1,0,0,1-2,0V1.5a1.5,1.5,0,0,0-3,0V11a1,1,0,0,1-2,0V1.5a1.5,1.5,0,0,0-3,0v9a1.484,1.484,0,0,0,.051.367A4.395,4.395,0,0,0,6,11.5c0,2.316,1.75,5.957,4,6.442V33.5a2.5,2.5,0,0,0,5,0V17.942c2.25-.485,4-4.126,4-6.442a4.395,4.395,0,0,0-.051-.633A1.484,1.484,0,0,0,19,10.5ZM27.5,0a2.6,2.6,0,0,0-.306.031A1.245,1.245,0,0,0,27,0c-2.209,0-5,5.477-5,11,0,4.658,1.275,8.56,3,9.672V33.5a2.5,2.5,0,0,0,5,0V2.5A2.5,2.5,0,0,0,27.5,0Z" transform="translate(-6)" fill="#99aab5"/>
</svg>
