<svg xmlns="http://www.w3.org/2000/svg" width="36" height="35.957" viewBox="0 0 36 35.957">
  <g id="_1f37b" data-name="1f37b" transform="translate(0 -0.043)">
    <path id="Pfad_1539" data-name="Pfad 1539" d="M2.72,5.464H6.25V8.143H4.464c-1.786,0-1.786.893-1.786,1.786v7.387a1.525,1.525,0,0,0,1.289,1.542H6.25v2.679H2.72A2.719,2.719,0,0,1,0,18.818V8.183A2.719,2.719,0,0,1,2.72,5.464Z" fill="#ffac33"/>
    <path id="Pfad_1540" data-name="Pfad 1540" d="M5.357,5.464H20.536V24a2.006,2.006,0,0,1-2,2H7.357a2.006,2.006,0,0,1-2-2Z" fill="#ffac33"/>
    <path id="Pfad_1541" data-name="Pfad 1541" d="M8.482,23.321a.893.893,0,0,0,.893-.893V12.607a.893.893,0,0,0-1.786,0v9.821A.893.893,0,0,0,8.482,23.321Zm4.464,0a.893.893,0,0,0,.893-.893V12.607a.893.893,0,0,0-1.786,0v9.821A.893.893,0,0,0,12.946,23.321ZM5.357,8.575V5.464H20.536v4.878a2.685,2.685,0,0,1-3.449-1.519,1.346,1.346,0,0,1-1.994-.246,2.7,2.7,0,0,1-4.447.177,1.69,1.69,0,0,1-3.068.19,2.022,2.022,0,0,1-.892.213,1.73,1.73,0,0,1-1.329-.582Z" fill="#f4900c"/>
    <path id="Pfad_1542" data-name="Pfad 1542" d="M8.036,1H19.643a2.368,2.368,0,0,1,2.679,2.679v2.76a2.718,2.718,0,0,1-5.235,1.026,1.346,1.346,0,0,1-1.994-.246,2.7,2.7,0,0,1-4.447.176,1.683,1.683,0,0,1-3.027.246,1.337,1.337,0,0,1-2.262-.967v-3A2.368,2.368,0,0,1,8.036,1Z" fill="#e1e8ed"/>
    <path id="Pfad_1543" data-name="Pfad 1543" d="M30.5,6.514a1,1,0,0,1-.707-1.708l3.552-3.55a1,1,0,1,1,1.414,1.415L31.2,6.221A.993.993,0,0,1,30.5,6.514Zm-4.164-1.7a1,1,0,0,1-.944-1.331l.97-2.773a1,1,0,0,1,1.888.66l-.97,2.773A1,1,0,0,1,26.331,4.817Zm6.143,5.774a1,1,0,0,1-.333-1.943l2.494-.881A1,1,0,1,1,35.3,9.653l-2.494.881A1,1,0,0,1,32.474,10.591Z" fill="#fa743e"/>
    <path id="Pfad_1544" data-name="Pfad 1544" d="M33.28,15.464H29.75v2.679h1.786c1.786,0,1.786.893,1.786,1.786v7.387a1.525,1.525,0,0,1-1.289,1.542H29.75v2.679h3.53A2.719,2.719,0,0,0,36,28.818V18.183a2.719,2.719,0,0,0-2.72-2.719Z" fill="#ffac33"/>
    <path id="Pfad_1545" data-name="Pfad 1545" d="M30.643,15.464H15.464V34a2.006,2.006,0,0,0,2,2H28.643a2.006,2.006,0,0,0,2-2V15.464Z" fill="#ffcc4d"/>
    <path id="Pfad_1546" data-name="Pfad 1546" d="M18.589,33.321a.893.893,0,0,1-.893-.893V22.607a.893.893,0,0,1,1.786,0v9.821A.893.893,0,0,1,18.589,33.321Zm8.929,0a.893.893,0,0,1-.893-.893V22.607a.893.893,0,1,1,1.786,0v9.821A.893.893,0,0,1,27.518,33.321Zm-4.464,0a.893.893,0,0,1-.893-.893V22.607a.893.893,0,0,1,1.786,0v9.821A.893.893,0,0,1,23.054,33.321Z" fill="#f4900c"/>
    <path id="Pfad_1547" data-name="Pfad 1547" d="M30.643,18.575V15.464H15.464v4.878a2.685,2.685,0,0,0,3.449-1.519,1.346,1.346,0,0,0,1.994-.246,2.7,2.7,0,0,0,4.447.177,1.69,1.69,0,0,0,3.068.19,2.022,2.022,0,0,0,.892.213,1.73,1.73,0,0,0,1.329-.582Z" fill="#ffac33"/>
    <path id="Pfad_1548" data-name="Pfad 1548" d="M27.964,11H16.357a2.368,2.368,0,0,0-2.679,2.679v2.76a2.718,2.718,0,0,0,5.235,1.026,1.346,1.346,0,0,0,1.994-.246,2.7,2.7,0,0,0,4.447.176,1.683,1.683,0,0,0,3.027.246,1.336,1.336,0,0,0,2.261-.967V13.679A2.367,2.367,0,0,0,27.964,11Z" fill="#eee"/>
  </g>
</svg>
