<svg xmlns="http://www.w3.org/2000/svg" width="15" height="15" viewBox="0 0 15 15">
  <path id="badge-check-solid" d="M7.5,0A2.813,2.813,0,0,1,9.987,1.5a2.766,2.766,0,0,1,2.815.7,2.871,2.871,0,0,1,.7,2.816,2.815,2.815,0,0,1,0,4.975,2.824,2.824,0,0,1-.7,2.815,2.884,2.884,0,0,1-2.815.7,2.815,2.815,0,0,1-4.975,0A2.813,2.813,0,0,1,1.5,9.987a2.815,2.815,0,0,1,0-4.975A2.754,2.754,0,0,1,2.2,2.2a2.81,2.81,0,0,1,2.816-.7A2.813,2.813,0,0,1,7.5,0Zm2.815,6.565a.636.636,0,0,0,0-.97.677.677,0,0,0-.97,0L6.563,8.382,5.394,7.236a.686.686,0,0,0-.97.97L6.064,9.847a.636.636,0,0,0,.97,0Z" fill="#4cb4e7"/>
</svg>
