<svg xmlns="http://www.w3.org/2000/svg" width="35.6" height="35.6" viewBox="0 0 35.6 35.6">
  <g id="_1f31e" data-name="1f31e" transform="translate(-0.2 -0.2)">
    <path id="Pfad_1536" data-name="Pfad 1536" d="M18,35.8a1.031,1.031,0,0,1-.921-.565l-1.8-3.554-3.024,2.6a1.044,1.044,0,0,1-.672.247,1.03,1.03,0,0,1-1.028-.951l-.3-3.976L6.463,30.838a1.032,1.032,0,0,1-1.3-1.3L6.4,25.747l-3.972-.3a1.032,1.032,0,0,1-.705-1.7l2.594-3.024-3.554-1.8a1.033,1.033,0,0,1,0-1.842l3.554-1.8L1.725,12.255a1.032,1.032,0,0,1,.705-1.7l3.972-.3L5.162,6.463a1.032,1.032,0,0,1,1.3-1.3L10.251,6.4l.3-3.972a1.032,1.032,0,0,1,1.7-.7l3.024,2.594,1.8-3.554a1.032,1.032,0,0,1,1.841,0l1.8,3.554,3.024-2.594a1.029,1.029,0,0,1,.671-.248,1.03,1.03,0,0,1,1.03.953l.3,3.972,3.785-1.24a1.034,1.034,0,0,1,1.05.25,1.031,1.031,0,0,1,.252,1.051L29.6,10.251l3.976.3a1.032,1.032,0,0,1,.7,1.7l-2.6,3.024,3.554,1.8a1.033,1.033,0,0,1,0,1.842l-3.554,1.8,2.6,3.024a1.033,1.033,0,0,1-.707,1.7l-3.973.3,1.241,3.788a1.034,1.034,0,0,1-.981,1.354,1.05,1.05,0,0,1-.321-.051L25.751,29.6l-.3,3.973a1.03,1.03,0,0,1-1.03.954,1.046,1.046,0,0,1-.671-.247l-3.024-2.6-1.8,3.554A1.033,1.033,0,0,1,18,35.8Z" fill="#f4900c"/>
    <path id="Pfad_1537" data-name="Pfad 1537" d="M31,18A13,13,0,1,1,18,5,13,13,0,0,1,31,18" fill="#ffcc4d"/>
    <path id="Pfad_1538" data-name="Pfad 1538" d="M18,23.471c-6.222,0-8-2.328-8-1.228s3.556,3.98,8,3.98,8-2.879,8-3.98-1.777,1.228-8,1.228m8-8.8A2.667,2.667,0,1,1,23.333,12,2.667,2.667,0,0,1,26,14.667m-10.667,0A2.667,2.667,0,1,1,12.667,12a2.668,2.668,0,0,1,2.666,2.667" fill="#f4900c"/>
  </g>
</svg>
