<svg xmlns="http://www.w3.org/2000/svg" viewBox="0 0 50 35" width="50" height="35">
	<style>
		tspan { white-space:pre }
		.shp0 { fill: #4cb4e7 } 
	</style>
	<path id="Pfad 207" class="shp0" d="M18.82 34.82L0.63 16.99C0.32 16.69 0.17 16.33 0.17 15.91C0.17 15.49 0.32 15.13 0.63 14.83L4.7 10.84C5.01 10.54 5.38 10.38 5.8 10.38C6.23 10.38 6.6 10.54 6.91 10.84L19.92 23.6L43.26 0.73C43.57 0.43 43.94 0.27 44.36 0.27C44.79 0.27 45.15 0.43 45.46 0.73L49.53 4.72C49.84 5.02 50 5.38 50 5.8C50 6.22 49.84 6.58 49.53 6.88L21.03 34.82C20.72 35.12 20.35 35.27 19.92 35.27C19.5 35.27 19.13 35.12 18.82 34.82Z" />
</svg>