<?xml version="1.0" encoding="utf-8"?>
<!-- Generator: Adobe Illustrator 24.0.3, SVG Export Plug-In . SVG Version: 6.00 Build 0)  -->
<svg version="1.1" id="Ebene_1" xmlns="http://www.w3.org/2000/svg" xmlns:xlink="http://www.w3.org/1999/xlink" x="0px" y="0px"
	 viewBox="0 0 40 40" style="enable-background:new 0 0 40 40;" xml:space="preserve">
<style type="text/css">
	.gfsdggfd{display:none;}
	.ghjhjghj{display:inline;}
</style>
<g id="normal">
	<path class="normal-fill" d="M4.9,20c0-0.8,0.7-1.4,1.6-1.4h27c0.9,0,1.6,0.6,1.6,1.4s-0.7,1.4-1.6,1.4h-27C5.6,21.4,4.9,20.8,4.9,20z"/>
	<path class="normal-fill" d="M4.9,10.9c0-0.8,0.7-1.4,1.6-1.4h27c0.9,0,1.6,0.6,1.6,1.4c0,0.8-0.7,1.4-1.6,1.4h-27C5.6,12.3,4.9,11.7,4.9,10.9z"/>
	<path class="normal-fill" d="M4.9,29.1c0-0.8,0.7-1.4,1.6-1.4h27c0.9,0,1.6,0.6,1.6,1.4s-0.7,1.4-1.6,1.4h-27C5.6,30.5,4.9,29.9,4.9,29.1z"/>
</g>
<g id="active" class="gfsdggfd">
	<path class="ghjhjghj normal-fill" d="M10.3,10.5c0.5-0.5,1.3-0.4,1.9,0.2l17.5,17.5c0.6,0.6,0.7,1.5,0.2,1.9c-0.5,0.5-1.3,0.4-1.9-0.2L10.5,12.4
		C9.9,11.8,9.8,11,10.3,10.5z"/>
	<path class="ghjhjghj normal-fill" d="M10.3,30.1c-0.5-0.5-0.4-1.3,0.2-1.9l17.5-17.5c0.6-0.6,1.5-0.7,1.9-0.2c0.5,0.5,0.4,1.3-0.2,1.9L12.2,29.9
		C11.6,30.4,10.7,30.5,10.3,30.1z"/>
</g>
</svg>
