<?xml version="1.0" encoding="utf-8"?>
<!-- Generator: Adobe Illustrator 25.2.0, SVG Export Plug-In . SVG Version: 6.00 Build 0)  -->
<svg version="1.1" id="sprite-digitalx-logo-white" xmlns="http://www.w3.org/2000/svg" xmlns:xlink="http://www.w3.org/1999/xlink"
	 x="0px" y="0px" viewBox="0 0 209 41" enable-background="new 0 0 209 41" xml:space="preserve">
<path fill="#FFFFFF" d="M56.4,8.5c7.2,0,11.7,4.4,11.7,11.9c0,7.9-4.5,12.1-11.6,12.1H46v-24H56.4z M55.1,27.1
	c4.6,0,6.8-1.7,6.8-6.7c0-4.5-2.5-6.5-6.5-6.5h-3.1v13.2C52.3,27.1,55.1,27.1,55.1,27.1z M77.6,8.5v24h-6.3v-24H77.6z M103.7,16.7
	h-6.3c-0.2-2-2.2-3.3-4.7-3.3c-3.6,0-5.6,3-5.6,7.1c0,4.2,2,7.1,5.6,7.1c2.9,0,5.1-1.3,5.5-3.6h-4.4v-4.6H104v13.1h-4l-0.4-2.6
	c-1.3,1.9-4,3.1-6.7,3.1c-7.1,0-12-5.3-12-12.5c0-7,4.7-12.5,12-12.5C98.1,8,103.2,10.7,103.7,16.7z M114.1,8.5v24h-6.3v-24
	C107.8,8.5,114.1,8.5,114.1,8.5z M135.9,8.5v5.4h-6.5v18.6h-6.3V13.9h-6.5V8.5C116.6,8.5,135.9,8.5,135.9,8.5z M148.4,8.5l9,24h-6.5
	l-1.5-4.3H141l-1.5,4.3h-6.4l9-24L148.4,8.5L148.4,8.5z M142.5,23.5h5.4l-2.7-8.4h-0.1L142.5,23.5L142.5,23.5z M165.6,8.5v18.6h10.9
	v5.4h-17.1v-24H165.6L165.6,8.5z M192.9,8.5l4,7.5l4.3-7.5h7.1l-7.8,11.4l8.5,12.6h-7.6l-4.5-8l-4.9,8h-7.2l8.5-12.6l-7.8-11.4
	H192.9z"/>
<path fill="#E20A74" d="M27.3,20.7L24,24v3.5h3.3V20.7z M15.7,18.6H8.5L1.1,26l3.6,3.6C4.7,29.6,15.7,18.6,15.7,18.6z M27.3,13.5H24
	v3.3C24,16.8,27.3,13.5,27.3,13.5z M27.3,3.4h-24v5.1h24C27.3,8.5,27.3,3.4,27.3,3.4z"/>
<path fill="#4EB3E6" d="M19,21.9l-8.3,8.3l3.6,3.6L19,29V21.9z M20.8,13.5h1.5V12L20.8,13.5z M18.7,8.5h-6.8v5.1h1.7L18.7,8.5z
	 M35.9,8.5h-8.6v12.2l3.6-3.6v15.4H36L35.9,8.5z"/>
<path fill="#822381" d="M27.3,8.5h-8.6l-5.1,5h7.1l1.5-1.4v1.4h5.1L24,16.8V24l3.3-3.3V8.5z"/>
<path fill="#FFDE14" d="M19,29v8.6h5V27.4h-1.8v-1.7L19,29z M0,13.5v5.1h8.5l5-5.1H0z M20.7,13.5L0,34.3l3.3,3.3l19-19v-5.1
	C22.3,13.5,20.7,13.5,20.7,13.5z"/>
<path fill="#E4003B" d="M24,24l-1.8,1.8v1.7H24V24z M13.6,13.5l-5.1,5.1h7.2l5.1-5.1C20.8,13.5,13.6,13.5,13.6,13.5z M24,13.5h-1.8
	v5.1l1.8-1.8C24,16.8,24,13.5,24,13.5z"/>
<path fill="#7DA12C" d="M22.2,18.6L19,21.9V29l3.3-3.3C22.3,25.7,22.2,18.6,22.2,18.6z"/>
<path fill="#832B46" d="M22.2,18.6v7.2L24,24v-7.1L22.2,18.6z"/>
</svg>
