<svg xmlns="http://www.w3.org/2000/svg" viewBox="0 0 397.13 45"><defs><style>.cls-1{fill:#4db3e6;}.cls-2{fill:#e6007e;}.cls-3{fill:#832080;}.cls-4{fill:#ffde16;}.cls-5{fill:#e4003a;}.cls-6{fill:#7ba02e;}.cls-7{fill:#76283f;}.cls-8{fill:#e50b7e;}</style></defs><g id="Ebene_2" data-name="Ebene 2"><g id="Ebene_1-2" data-name="Ebene 1"><path class="cls-1" d="M72.71,31.26c6,0,8.77-2.37,8.77-9,0-6-3.26-8.53-8.53-8.53h-4V31.26ZM74.27,6.63c9.47,0,15.49,5.68,15.49,15.64,0,10.39-6,16.1-15.31,16.1H60.63V6.63Z"/><rect class="cls-1" x="94.27" y="6.63" width="8.29" height="31.74"/><path class="cls-1" d="M136.66,17.53h-8.29c-.31-2.68-2.88-4.48-6.23-4.48-4.73,0-7.34,3.92-7.34,9.45S117.36,32,122.18,32c3.84,0,6.67-1.79,7.2-4.82h-5.74V21.08h13.26V38.37h-5.21l-.57-3.44c-1.73,2.54-5.22,4.15-8.8,4.15-9.28,0-15.73-7-15.73-16.58,0-9.27,6.14-16.58,15.73-16.58,6.81,0,13.6,3.67,14.35,11.61"/><rect class="cls-1" x="141.87" y="6.63" width="8.29" height="31.73"/><polygon class="cls-1" points="178.81 6.63 178.81 13.74 170.52 13.74 170.52 38.37 162.24 38.37 162.24 13.74 153.71 13.74 153.71 6.63 178.81 6.63"/><path class="cls-1" d="M187.58,26.53h7.34L191.36,15.4h-.23Zm7.81-19.9,11.84,31.74h-8.52l-1.9-5.69H185.68l-1.89,5.69h-8.53L187.1,6.63Z"/><polygon class="cls-1" points="218.13 6.63 218.13 31.26 232.34 31.26 232.34 38.37 209.84 38.37 209.84 6.63 218.13 6.63"/><path class="cls-2" d="M31.74,27v4.74H36v-9ZM11.37,19.9,1.42,29.84l4.74,4.74L20.84,19.9Zm20.37-6.64v4.27L36,13.26ZM4.26,6.63H36V0H4.26Z"/><path class="cls-1" d="M36,6.63V22.74L40.74,18V38.37h6.63V6.63Zm-20.37,0v6.63H18l6.63-6.63Zm11.84,6.63h1.9V11.37ZM14,35.29,18.71,40l6.39-6.4V24.16Z"/><polygon class="cls-3" points="24.63 6.63 18 13.27 27.47 13.27 29.37 11.37 29.37 13.27 36 13.27 36 6.63 24.63 6.63"/><path class="cls-4" d="M25.11,33.63V45h6.63V31.74H29.37V29.37ZM0,13.26V19.9H11.37L18,13.26Zm27.47,0L0,40.74,4.26,45,29.37,19.9V13.26Z"/><path class="cls-5" d="M29.37,13.26V19.9l2.37-2.37V13.26ZM18,13.26,11.37,19.9h9.47l6.63-6.64ZM31.74,27l-2.37,2.37v2.37h2.37Z"/><polygon class="cls-6" points="29.37 19.9 25.11 24.16 25.11 33.63 29.37 29.37 29.37 19.9"/><polygon class="cls-7" points="31.74 17.53 29.37 19.89 29.37 29.37 31.74 27 31.74 17.53"/><polygon class="cls-3" points="31.74 27 36 22.74 36 13.27 31.74 17.53 31.74 27"/><path class="cls-1" d="M72.71,31.26c6,0,8.77-2.37,8.77-9,0-6-3.26-8.53-8.53-8.53h-4V31.26ZM74.27,6.63c9.47,0,15.49,5.68,15.49,15.64,0,10.39-6,16.1-15.31,16.1H60.63V6.63Z"/><rect class="cls-1" x="94.27" y="6.63" width="8.29" height="31.74"/><path class="cls-1" d="M136.66,17.53h-8.29c-.31-2.68-2.88-4.48-6.23-4.48-4.73,0-7.34,3.92-7.34,9.45S117.36,32,122.18,32c3.84,0,6.67-1.79,7.2-4.82h-5.74V21.08h13.26V38.37h-5.21l-.57-3.44c-1.73,2.54-5.22,4.15-8.8,4.15-9.28,0-15.73-7-15.73-16.58,0-9.27,6.14-16.58,15.73-16.58,6.81,0,13.6,3.67,14.35,11.61"/><rect class="cls-1" x="141.87" y="6.63" width="8.29" height="31.73"/><polygon class="cls-1" points="178.81 6.63 178.81 13.74 170.52 13.74 170.52 38.37 162.24 38.37 162.24 13.74 153.71 13.74 153.71 6.63 178.81 6.63"/><path class="cls-1" d="M187.58,26.53h7.34L191.36,15.4h-.23Zm7.81-19.9,11.84,31.74h-8.52l-1.9-5.69H185.68l-1.89,5.69h-8.53L187.1,6.63Z"/><polygon class="cls-1" points="218.13 6.63 218.13 31.26 232.34 31.26 232.34 38.37 209.84 38.37 209.84 6.63 218.13 6.63"/><polygon class="cls-1" points="253.89 6.63 259.22 16.5 264.86 6.63 274.26 6.63 264.01 21.7 275.2 38.37 265.17 38.37 259.22 27.79 252.73 38.37 243.23 38.37 254.51 21.7 244.16 6.63 253.89 6.63"/><path class="cls-8" d="M31.74,27v4.74H36v-9ZM11.37,19.9,1.42,29.84l4.74,4.74L20.84,19.9Zm20.37-6.64v4.27L36,13.26ZM4.26,6.63H36V0H4.26Z"/><path class="cls-1" d="M36,6.63V22.74L40.74,18V38.37h6.63V6.63Zm-20.37,0v6.63H18l6.63-6.63Zm11.84,6.63h1.9V11.37ZM14,35.29,18.71,40l6.39-6.4V24.16Z"/><polygon class="cls-3" points="24.63 6.63 18 13.27 27.47 13.27 29.37 11.37 29.37 13.27 36 13.27 36 6.63 24.63 6.63"/><path class="cls-4" d="M25.11,33.63V45h6.63V31.74H29.37V29.37ZM0,13.26V19.9H11.37L18,13.26Zm27.47,0L0,40.74,4.26,45,29.37,19.9V13.26Z"/><path class="cls-5" d="M29.37,13.26V19.9l2.37-2.37V13.26ZM18,13.26,11.37,19.9h9.47l6.63-6.64ZM31.74,27l-2.37,2.37v2.37h2.37Z"/><polygon class="cls-6" points="29.37 19.9 25.11 24.16 25.11 33.63 29.37 29.37 29.37 19.9"/><polygon class="cls-7" points="31.74 17.53 29.37 19.89 29.37 29.37 31.74 27 31.74 17.53"/><polygon class="cls-3" points="31.74 27 36 22.74 36 13.27 31.74 17.53 31.74 27"/><path class="cls-1" d="M288.39,38.27a14.08,14.08,0,0,1,4.94-10.5,64,64,0,0,1,8.23-5.52c2.4-1.59,4.12-3.12,4.12-5.25,0-2.49-1.58-3.94-4.07-3.94-4.07,0-5.25,2.94-5.25,6.38h-7.2c-.49-7.83,4.57-13.12,12.4-13.12,6.25,0,11.82,3.26,11.82,10,0,6.11-4.35,8.28-9,11.18a26.18,26.18,0,0,0-5.71,4.25h15v6.52Z"/><path class="cls-1" d="M334.46,22.48c0-4.12-.13-9.92-5.2-9.92-4.89,0-5.16,5.8-5.16,9.92s.27,10,5.16,10c5.07,0,5.2-5.84,5.2-9.95m-17.78,0c0-8.47,3.44-16.16,12.35-16.16,9.23,0,12.85,7.69,12.85,16.16s-3.62,16.2-12.85,16.2c-8.91,0-12.35-7.79-12.35-16.2"/><path class="cls-1" d="M343.83,38.27a14,14,0,0,1,4.93-10.5A64,64,0,0,1,357,22.25c2.4-1.59,4.12-3.12,4.12-5.25,0-2.49-1.59-3.94-4.08-3.94-4.07,0-5.25,2.94-5.25,6.38H344.6c-.5-7.83,4.57-13.12,12.4-13.12,6.24,0,11.81,3.26,11.81,10,0,6.11-4.34,8.28-9,11.18a26.12,26.12,0,0,0-5.7,4.25h15v6.52Z"/><path class="cls-1" d="M371.83,38.27a14,14,0,0,1,4.93-10.5A64,64,0,0,1,385,22.25c2.4-1.59,4.12-3.12,4.12-5.25,0-2.49-1.59-3.94-4.08-3.94-4.07,0-5.25,2.94-5.25,6.38H372.6c-.5-7.83,4.57-13.12,12.4-13.12,6.24,0,11.81,3.26,11.81,10,0,6.11-4.34,8.28-9,11.18a26.12,26.12,0,0,0-5.7,4.25h15v6.52Z"/></g></g></svg>