<svg xmlns="http://www.w3.org/2000/svg" viewBox="0 0 1440 664" width="1440" height="664">
	<style>
		tspan { white-space:pre }
		.shp0 { fill: #ffffff } 
		.shp1 { fill: #4cb4e7 } 
		.shp2 { fill: #e6007e } 
		.shp3 { fill: #831f82 } 
		.shp4 { fill: #ffde14 } 
		.shp5 { fill: #e4003a } 
		.shp6 { fill: #7ba02d } 
		.shp7 { fill: #75273f } 
		.shp8 { fill: none;stroke: #ffc014;stroke-width: 2 } 
	</style>
	<g id="Gruppe 379">
		<g id="Gruppe 378">
			<path id="PARTNER" fill-rule="evenodd" class="shp0" d="M979.71 352.28L985.68 352.28C991.05 352.28 994.29 354 994.29 358.9C994.29 363.54 991.12 365.81 985.83 365.81L981.36 365.81L981.36 376L979.71 376L979.71 352.28ZM985.43 364.41C990.25 364.41 992.59 362.79 992.59 358.9C992.59 354.9 990.18 353.68 985.29 353.68L981.36 353.68L981.36 364.41L985.43 364.41ZM1006.42 352.28L1008.07 352.28L1016.43 376L1014.7 376L1011.93 367.86L1002.53 367.86L999.72 376L998.07 376L1006.42 352.28ZM1003.03 366.46L1011.46 366.46L1009.95 362.03C1008.97 359.22 1008.15 356.74 1007.32 353.82L1007.17 353.82C1006.35 356.74 1005.52 359.22 1004.55 362.03L1003.03 366.46ZM1023.81 352.28L1030.61 352.28C1035.33 352.28 1038.39 354 1038.39 358.54C1038.39 362.32 1036.05 364.52 1032.3 364.98L1038.85 376L1036.95 376L1030.5 365.09L1025.46 365.09L1025.46 376L1023.81 376L1023.81 352.28ZM1030.18 363.72C1034.35 363.72 1036.69 362.03 1036.69 358.54C1036.69 354.98 1034.35 353.68 1030.18 353.68L1025.46 353.68L1025.46 363.72L1030.18 363.72ZM1051.71 353.72L1044.15 353.72L1044.15 352.28L1060.92 352.28L1060.92 353.72L1053.36 353.72L1053.36 376L1051.71 376L1051.71 353.72ZM1069.06 352.28L1070.79 352.28L1080.79 369.02L1083.46 373.73L1083.6 373.73C1083.53 371.43 1083.39 369.12 1083.39 366.82L1083.39 352.28L1084.97 352.28L1084.97 376L1083.24 376L1073.23 359.26L1070.57 354.54L1070.43 354.54C1070.5 356.81 1070.64 358.97 1070.64 361.28L1070.64 376L1069.06 376L1069.06 352.28ZM1095.55 352.28L1108.55 352.28L1108.55 353.72L1097.21 353.72L1097.21 362.68L1106.71 362.68L1106.71 364.12L1097.21 364.12L1097.21 374.56L1108.91 374.56L1108.91 376L1095.55 376L1095.55 352.28ZM1117.69 352.28L1124.5 352.28C1129.21 352.28 1132.27 354 1132.27 358.54C1132.27 362.32 1129.93 364.52 1126.19 364.98L1132.74 376L1130.83 376L1124.39 365.09L1119.35 365.09L1119.35 376L1117.69 376L1117.69 352.28ZM1124.07 363.72C1128.24 363.72 1130.58 362.03 1130.58 358.54C1130.58 354.98 1128.24 353.68 1124.07 353.68L1119.35 353.68L1119.35 363.72L1124.07 363.72Z" />
			<g id="logo_dx_weiss">
				<path id="Pfad 55" fill-rule="evenodd" class="shp1" d="M982.55 261.74C993.46 261.74 1000.39 268.29 1000.39 279.75C1000.39 291.72 993.46 298.3 982.75 298.3L966.83 298.3L966.83 261.74L982.55 261.74ZM980.75 290.11C987.68 290.11 990.84 287.38 990.84 279.75C990.84 272.83 987.09 269.93 981.02 269.93L976.38 269.93L976.38 290.11L980.75 290.11Z" />
				<path id="Pfad 56" class="shp1" d="M1015.12 261.74L1015.12 298.3L1005.57 298.3L1005.57 261.74L1015.12 261.74Z" />
				<path id="Pfad 57" class="shp1" d="M1054.4 274.29L1044.85 274.29C1044.49 271.21 1041.54 269.14 1037.67 269.14C1032.22 269.14 1029.22 273.65 1029.22 280.02C1029.22 286.48 1032.17 290.9 1037.72 290.9C1042.14 290.9 1045.4 288.85 1046.01 285.36L1039.41 285.36L1039.4 278.38L1054.67 278.38L1054.67 298.3L1048.67 298.3L1048.01 294.34C1046.02 297.27 1042.01 299.11 1037.88 299.11C1027.19 299.11 1019.75 291 1019.75 280.02C1019.75 269.34 1026.83 260.92 1037.88 260.92C1045.72 260.92 1053.54 265.16 1054.4 274.29Z" />
				<path id="Pfad 58" class="shp1" d="M1069.95 261.74L1069.95 298.3L1060.4 298.3L1060.4 261.74L1069.95 261.74Z" />
				<path id="Pfad 59" class="shp1" d="M1102.96 261.74L1102.96 269.93L1093.41 269.93L1093.41 298.3L1083.86 298.3L1083.86 269.93L1074.04 269.93L1074.04 261.74L1102.96 261.74Z" />
				<path id="Pfad 60" fill-rule="evenodd" class="shp1" d="M1122.05 261.74L1135.69 298.3L1125.87 298.3L1123.69 291.75L1110.87 291.75L1108.68 298.3L1098.86 298.3L1112.5 261.74L1122.05 261.74ZM1113.05 284.66L1121.5 284.66L1117.41 271.84L1117.14 271.84L1113.05 284.66Z" />
				<path id="Pfad 61" class="shp1" d="M1148.24 261.74L1148.24 290.11L1164.61 290.11L1164.61 298.3L1138.69 298.3L1138.69 261.74L1148.24 261.74Z" />
				<path id="Pfad 62" class="shp1" d="M1189.43 261.74L1195.57 273.11L1202.07 261.74L1212.89 261.74L1201.09 279.1L1213.98 298.3L1202.42 298.3L1195.57 286.11L1188.11 298.3L1177.15 298.3L1190.15 279.1L1178.24 261.74L1189.43 261.74Z" />
				<path id="Pfad 63" class="shp2" d="M933.55 285.2L933.55 290.66L938.46 290.66L938.46 280.29L933.55 285.2ZM910.09 277.02L898.64 288.48L904.09 293.93L921.01 277.02L910.09 277.02ZM933.55 269.38L933.55 274.29L938.46 269.38L933.55 269.38ZM901.91 254.1L901.91 261.74L938.46 261.74L938.46 254.1L901.91 254.1Z" />
				<path id="Pfad 64" class="shp1" d="M913.09 294.75L918.55 300.21L925.92 292.84L925.92 281.93L913.09 294.75ZM928.64 269.38L930.83 269.38L930.83 267.2L928.64 269.38ZM915 261.74L915 269.38L917.73 269.38L925.37 261.74L915 261.74ZM938.46 261.74L938.46 280.29L943.92 274.84L943.92 298.3L951.56 298.3L951.56 261.74L938.46 261.74Z" />
				<path id="Pfad 65" class="shp3" d="M925.37 261.74L917.73 269.38L928.64 269.38L930.83 267.2L930.83 269.38L938.46 269.38L938.46 261.74L925.37 261.74Z" />
				<path id="Pfad 66" fill-rule="evenodd" class="shp4" d="M930.83 287.93L930.83 290.66L933.55 290.66L933.55 305.93L925.92 305.93L925.92 292.84L930.83 287.93ZM930.83 269.38L930.83 277.02L901.91 305.93L897 301.02L928.64 269.38L930.83 269.38ZM917.73 269.38L910.09 277.02L897 277.02L897 269.38L917.73 269.38Z" />
				<path id="Pfad 67" class="shp5" d="M933.55 285.2L930.83 287.93L930.83 290.66L933.55 290.66L933.55 285.2ZM917.73 269.38L910.09 277.02L921.01 277.02L928.64 269.38L917.73 269.38ZM930.83 269.38L930.83 277.02L933.55 274.29L933.55 269.38L930.83 269.38Z" />
				<path id="Pfad 68" class="shp6" d="M930.83 277.02L925.92 281.93L925.92 292.84L930.83 287.93L930.83 277.02Z" />
				<path id="Pfad 69" class="shp7" d="M933.55 274.29L930.83 277.02L930.83 287.93L933.55 285.2L933.55 274.29Z" />
				<path id="Pfad 70" class="shp3" d="M933.55 285.2L938.46 280.29L938.46 269.38L933.55 274.29L933.55 285.2Z" />
			</g>
		</g>
		<path id="Linie 1" class="shp8" d="M1015.5 325.5L1095.5 325.5L1015.5 325.5Z" />
	</g>
</svg>