<?xml version="1.0" encoding="utf-8"?>
<!-- Generator: Adobe Illustrator 24.0.3, SVG Export Plug-In . SVG Version: 6.00 Build 0)  -->
<svg version="1.1" id="Ebene_1" xmlns="http://www.w3.org/2000/svg" xmlns:xlink="http://www.w3.org/1999/xlink" x="0px" y="0px"
	 viewBox="0 0 209 41" style="enable-background:new 0 0 209 41;" xml:space="preserve">
<style type="text/css">
	.st1{fill:#E20A74;}
	.st2{fill:#822381;}
	.st3{fill:#FFDE14;}
	.st4{fill:#E4003B;}
	.st5{fill:#7DA12C;}
	.st6{fill:#832B46;}
</style>
<path id="letter-d" class="fsfsdfsdfds" style="fill:#4EB3E6" d="M56.4,8.5c7.2,0,11.7,4.4,11.7,11.9c0,7.9-4.5,12.1-11.6,12.1H46v-24H56.4z M55.1,27.1
	c4.6,0,6.8-1.7,6.8-6.7c0-4.5-2.5-6.5-6.5-6.5h-3.1v13.2C52.3,27.1,55.1,27.1,55.1,27.1z"/>
<path id="letter-i" class="fsfsdfsdfds" style="fill:#4EB3E6" d="M77.6,8.5v24h-6.3v-24H77.6z"/>
<path class="fsfsdfsdfds" style="fill:#4EB3E6" d="M103.7,16.7h-6.3c-0.2-2-2.2-3.3-4.7-3.3c-3.6,0-5.6,3-5.6,7.1c0,4.2,2,7.1,5.6,7.1c2.9,0,5.1-1.3,5.5-3.6h-4.4
	v-4.6H104v13.1h-4l-0.4-2.6c-1.3,1.9-4,3.1-6.7,3.1c-7.1,0-12-5.3-12-12.5c0-7,4.7-12.5,12-12.5C98.1,8,103.2,10.7,103.7,16.7z"/>
<path class="fsfsdfsdfds letter" style="fill:#4EB3E6" d="M114.1,8.5v24h-6.3v-24H114.1z"/>
<path class="fsfsdfsdfds letter" style="fill:#4EB3E6" d="M135.9,8.5v5.4h-6.5v18.6h-6.3V13.9h-6.5V8.5H135.9z"/>
<path class="fsfsdfsdfds letter" style="fill:#4EB3E6" d="M148.4,8.5l9,24h-6.5l-1.5-4.3H141l-1.5,4.3h-6.4l9-24H148.4z M142.5,23.5h5.4l-2.7-8.4h-0.1L142.5,23.5z"/>
<path class="fsfsdfsdfds letter" style="fill:#4EB3E6" d="M165.6,8.5v18.6h10.9v5.4h-17.1v-24H165.6z"/>
<path class="fsfsdfsdfds" style="fill:#4EB3E6" d="M192.9,8.5l4,7.5l4.3-7.5h7.1l-7.8,11.4l8.5,12.6h-7.6l-4.5-8l-4.9,8h-7.2l8.5-12.6l-7.8-11.4H192.9z"/>
<path class="st1" d="M27.3,20.7L24,24v3.5h3.3V20.7z M15.7,18.6H8.5L1.1,26l3.6,3.6L15.7,18.6z M27.3,13.5H24v3.3L27.3,13.5z
	 M27.3,3.4h-24v5.1h24V3.4z"/>
<path class="fsfsdfsdfds" style="fill:#4EB3E6" d="M19,21.9l-8.3,8.3l3.6,3.6L19,29V21.9z M20.8,13.5h1.5V12L20.8,13.5z M18.7,8.5h-6.8v5.1h1.7L18.7,8.5z
	 M35.9,8.5h-8.6v12.2l3.6-3.6v15.4H36L35.9,8.5z"/>
<polygon class="st2" points="27.3,8.5 18.7,8.5 13.6,13.5 20.7,13.5 22.2,12.1 22.2,13.5 27.3,13.5 24,16.8 24,24 27.3,20.7 "/>
<path class="st3" d="M19,29v8.6h5V27.4h-1.8v-1.7L19,29z M0,13.5v5.1h8.5l5-5.1H0z M20.7,13.5L0,34.3l3.3,3.3l19-19v-5.1
	C22.3,13.5,20.7,13.5,20.7,13.5z"/>
<path class="st4" d="M24,24l-1.8,1.8v1.7H24V24z M13.6,13.5l-5.1,5.1h7.2l5.1-5.1H13.6z M24,13.5h-1.8v5.1l1.8-1.8V13.5z"/>
<path id="Pad01" class="st5" d="M22.2,18.6L19,21.9V29l3.3-3.3L22.2,18.6z"/>
<path class="st6" d="M22.2,18.6v7.2L24,24v-7.1L22.2,18.6z"/>
</svg>
