<?xml version="1.0" encoding="utf-8"?>
<!-- Generator: Adobe Illustrator 25.2.1, SVG Export Plug-In . SVG Version: 6.00 Build 0)  -->
<svg version="1.1" id="Ebene_42" xmlns="http://www.w3.org/2000/svg" xmlns:xlink="http://www.w3.org/1999/xlink" x="0px" y="0px"
	 viewBox="0 0 535.3 92.4" enable-background="new 0 0 535.3 92.4" xml:space="preserve">
<path fill="#4DB3E7" d="M379,65.3c-8,0-13,6.1-13,13.5c0,8,5.6,13.5,13,13.5c6.7,0,11.5-4,11.9-10.6h-6.8c-0.3,3.2-2.2,4.8-5.2,4.8
	c-3.8,0-6-3.1-6-7.7s2.2-7.7,6-7.7c2.8,0,4.8,1.3,5.2,4h6.8C390.6,68.8,384.6,65.3,379,65.3z M401.5,65.8l-9.7,26h6.9l1.6-4.6h9.1
	l1.6,4.6h7.1l-9.7-26H401.5z M404.9,73L404.9,73l3,9.1H402L404.9,73z M420.1,65.8v26h6.4V72.1h0.1l5.5,19.7h5.2l5.5-19.7h0.1v19.7
	h6.4v-26h-10l-4.5,17.3h-0.1L430,65.8L420.1,65.8z M453.7,65.8v26h6.8v-8.6h5.6c6.3,0,9.4-3,9.4-8.9c0-5.6-3.8-8.4-9.3-8.4
	L453.7,65.8z M460.5,77.9v-6.7h4.6c2.1,0,3.5,1.1,3.5,3.4s-1.4,3.2-3.5,3.2H460.5z M478.5,65.8v15.5c0,7.1,3.4,11.1,11.3,11.1
	s11.3-3.9,11.3-11.1V65.9h-6.8v15.8c0,3.3-1.4,4.9-4.6,4.9c-3.2,0-4.5-1.6-4.5-4.9V65.9L478.5,65.8z M515.5,65.3
	c-5.2,0-10.5,2.5-10.5,7.9c0,1.8,0.7,3.5,2,4.8c1.4,1.3,3.5,2.3,7.5,3.2c3,0.7,5.6,1.4,5.6,3.3c0,1.7-1.7,2.7-4.2,2.7
	c-3.2,0-4.7-1.3-4.9-4h-6.8c0,6,4.5,9.3,11.3,9.3c6.8,0,11.3-3,11.3-8.7c0-4-2.7-5.8-5.8-6.9c-1.5-0.5-3.1-0.9-4.6-1.3
	c-3.3-0.8-4.6-1.5-4.6-2.7c0-1.4,1.3-2.2,3.3-2.2c2.4,0,4.2,1,4.2,2.9v0.2h6.8v-0.1C526,68.6,521.7,65.3,515.5,65.3L515.5,65.3z"/>
<path fill="#FFFFFF" d="M98,42.1c8.1,0,11.8-3.2,11.8-12.1c0-8.1-4.4-11.5-11.5-11.5h-5.4v23.6H98z M100.1,8.9
	c12.8,0,20.9,7.6,20.9,21.1c0,14-8.1,21.7-20.6,21.7H81.7V8.9L100.1,8.9 M138.2,8.9v42.8h-11.2V8.9L138.2,8.9 M184.2,23.6H173
	c-0.4-3.6-3.9-6-8.4-6c-6.4,0-9.9,5.3-9.9,12.7c0,7.6,3.5,12.7,9.9,12.7c5.2,0,9-2.4,9.7-6.5h-7.7l0-8.2h17.9v23.3h-7l-0.8-4.6
	c-2.3,3.4-7,5.6-11.9,5.6c-12.5,0-21.2-9.5-21.2-22.3C143.7,17.8,152,8,164.9,8C174.1,8,183.2,12.9,184.2,23.6 M202.4,8.9v42.8
	h-11.2V8.9H202.4 M241,8.9v9.6h-11.2v33.2h-11.2V18.5h-11.5V8.9L241,8.9 M252.9,35.8h9.9l-4.8-15h-0.3L252.9,35.8L252.9,35.8z
	 M263.4,8.9l16,42.8h-11.5l-2.6-7.7h-15l-2.6,7.7h-11.5l16-42.8L263.4,8.9 M294,8.9l0,33.2h19.2v9.6h-30.3V8.9L294,8.9"/>
<path fill="#EC008C" d="M5.7,0v8.9h42.8V0L5.7,0L5.7,0z M42.8,17.9v5.7l5.7-5.7H42.8z M15.3,26.8L1.9,40.2l6.4,6.4l19.8-19.8H15.3
	L15.3,26.8z M42.8,36.4v6.4h5.7V30.6L42.8,36.4"/>
<path fill="#5CB8EA" d="M48.5,8.9v21.7l6.4-6.4v27.5h8.9V8.9L48.5,8.9L48.5,8.9z M21.1,8.9v8.9h3.2l8.9-8.9H21.1z M37,17.9h2.6v-2.6
	L37,17.9z M18.8,47.6l6.4,6.4l8.6-8.6V32.6L18.8,47.6"/>
<path fill="#791E8E" d="M33.2,8.9l-8.9,8.9H37l2.6-2.6v2.6h8.9V8.9H33.2"/>
<path fill="#F8DE1C" d="M37,17.9l-37,37l5.7,5.7l33.8-33.8v-8.9H37L37,17.9z M0,17.9v8.9h15.3l8.9-8.9H0z M33.8,45.3v15.3h8.9V42.8
	h-3.2v-3.2L33.8,45.3"/>
<path fill="#EC1443" d="M39.6,17.9v8.9l3.2-3.2v-5.7L39.6,17.9z M24.3,17.9l-8.9,8.9h12.8l8.9-8.9L24.3,17.9z M42.8,36.4l-3.2,3.2
	v3.2h3.2V36.4"/>
<path fill="#6BA52F" d="M39.6,26.8l-5.7,5.7v12.8l5.7-5.7L39.6,26.8"/>
<path fill="#691C3A" d="M42.8,23.6l-3.2,3.2v12.8l3.2-3.2V23.6"/>
<path fill="#791E8E" d="M42.8,36.4l5.7-5.7V17.9l-5.7,5.7V36.4"/>
<path fill="#FFFFFF" d="M98,42.1c8.1,0,11.8-3.2,11.8-12.1c0-8.1-4.4-11.5-11.5-11.5h-5.4v23.6H98z M100.1,8.9
	c12.8,0,20.9,7.6,20.9,21.1c0,14-8.1,21.7-20.6,21.7H81.7V8.9L100.1,8.9 M138.2,8.9v42.8h-11.2V8.9L138.2,8.9 M184.2,23.6H173
	c-0.4-3.6-3.9-6-8.4-6c-6.4,0-9.9,5.3-9.9,12.7c0,7.6,3.5,12.7,9.9,12.7c5.2,0,9-2.4,9.7-6.5h-7.7l0-8.2h17.9v23.3h-7l-0.8-4.6
	c-2.3,3.4-7,5.6-11.9,5.6c-12.5,0-21.2-9.5-21.2-22.3C143.7,17.8,152,8,164.9,8C174.1,8,183.2,12.9,184.2,23.6 M202.4,8.9v42.8
	h-11.2V8.9H202.4 M241,8.9v9.6h-11.2v33.2h-11.2V18.5h-11.5V8.9L241,8.9 M252.9,35.8h9.9l-4.8-15h-0.3L252.9,35.8L252.9,35.8z
	 M263.4,8.9l16,42.8h-11.5l-2.6-7.7h-15l-2.6,7.7h-11.5l16-42.8L263.4,8.9 M294,8.9l0,33.2h19.2v9.6h-30.3V8.9L294,8.9 M342.2,8.9
	l7.2,13.3L357,8.9l12.7,0l-13.8,20.3L371,51.7h-13.5l-8-14.3l-8.7,14.3h-12.8l15.2-22.5L329.1,8.9L342.2,8.9"/>
<path fill="#EA088B" d="M5.7,0v8.9h42.8V0L5.7,0L5.7,0z M42.8,17.9v5.7l5.7-5.7H42.8z M15.3,26.8L1.9,40.2l6.4,6.4l19.8-19.8H15.3
	L15.3,26.8z M42.8,36.4v6.4h5.7V30.6L42.8,36.4"/>
<path fill="#5CB8EA" d="M48.5,8.9v21.7l6.4-6.4v27.5h8.9V8.9L48.5,8.9L48.5,8.9z M21.1,8.9v8.9h3.2l8.9-8.9H21.1z M37,17.9h2.6v-2.6
	L37,17.9z M18.8,47.6l6.4,6.4l8.6-8.6V32.6L18.8,47.6"/>
<path fill="#791E8E" d="M33.2,8.9l-8.9,8.9H37l2.6-2.6v2.6h8.9V8.9H33.2"/>
<path fill="#F8DE1C" d="M37,17.9l-37,37l5.7,5.7l33.8-33.8v-8.9H37L37,17.9z M0,17.9v8.9h15.3l8.9-8.9H0z M33.8,45.3v15.3h8.9V42.8
	h-3.2v-3.2L33.8,45.3"/>
<path fill="#EC1443" d="M39.6,17.9v8.9l3.2-3.2v-5.7L39.6,17.9z M24.3,17.9l-8.9,8.9h12.8l8.9-8.9L24.3,17.9z M42.8,36.4l-3.2,3.2
	v3.2h3.2V36.4"/>
<path fill="#6BA52F" d="M39.6,26.8l-5.7,5.7v12.8l5.7-5.7L39.6,26.8"/>
<path fill="#691C3A" d="M42.8,23.6l-3.2,3.2v12.8l3.2-3.2V23.6"/>
<path fill="#791E8E" d="M42.8,36.4l5.7-5.7V17.9l-5.7,5.7V36.4"/>
<path fill="#FFFFFF" d="M423.2,22.4c0,4.9-1.9,8.3-6.8,11.7c-5.2,3.6-8.3,4.7-12.8,9h20v8.7h-33.8c0-4.8,2.1-9.6,5.6-13.1
	c1.8-1.8,5.2-4.2,10.2-7.1c5.4-3.2,7.3-5.4,7.3-8.2c0-3.3-2.1-5.3-5.4-5.3c-4.5,0-7,2.8-7,8.5h-9.6c0-0.4-0.1-0.8-0.1-1.3
	c0.1-10,6.9-16.2,16.6-16.2C416.6,9,423.2,14,423.2,22.4 M444.1,43.9c6.7,0,7-7.4,7-13.3c0-5.1-0.1-13.3-7-13.3
	c-6.5,0-6.8,8-6.8,13.3C437.2,40.8,439.7,43.9,444.1,43.9L444.1,43.9z M461,30.6c0,11-4.7,21.7-17.2,21.7
	c-10.6,0-16.5-8.6-16.5-21.7c0-13.3,6-21.6,16.5-21.6C455.7,9,461,18.7,461,30.6 M497.6,22.4c0,4.9-1.9,8.3-6.8,11.7
	c-5.2,3.6-8.3,4.7-12.8,9h20v8.7h-33.8c0-4.8,2.1-9.6,5.6-13.1c1.8-1.8,5.2-4.2,10.2-7.1c5.4-3.2,7.3-5.4,7.3-8.2
	c0-3.3-2.1-5.3-5.4-5.3c-4.5,0-7,2.8-7,8.5h-9.6c0-0.4-0.1-0.8-0.1-1.3c0.1-10,6.9-16.2,16.6-16.2C491,9,497.6,14,497.6,22.4
	 M526.8,9.6v42.2h-10.9V25.8h-10.1v-7.6h0.9c6.3,0,11.1-2.9,11.6-8.7L526.8,9.6"/>
</svg>
