<?xml version="1.0" encoding="utf-8"?>
<svg version="1.1" id="Ebene_42" xmlns="http://www.w3.org/2000/svg" xmlns:xlink="http://www.w3.org/1999/xlink" 
    viewBox="0 0 535.26 92.37" xml:space="preserve">
<path fill="#ffffff" d="M-62.89,111.94C-50.12,111.94-42,119.59-42,133c0,14-8.12,21.71-20.65,21.71H-81.27V111.94Zm-2.1,33.2c8.12,0,11.82-3.2,11.82-12.13,0-8.09-4.4-11.49-11.5-11.49h-5.42v23.62Z" transform="translate(163 -103)"/>
<polygon fill="#ffffff" points="138.24 8.94 138.24 51.72 127.06 51.72 127.06 8.94 138.24 8.94 138.24 8.94"/>
<path fill="#ffffff" d="M21.21,126.62H10c-.42-3.6-3.88-6-8.4-6-6.38,0-9.89,5.29-9.89,12.73s3.45,12.74,10,12.74c5.18,0,9-2.4,9.71-6.49H3.66v-8.16H21.53v23.31h-7l-.78-4.64c-2.32,3.43-7,5.59-11.85,5.59-12.52,0-21.21-9.49-21.21-22.35C-19.33,120.83-11,111,1.88,111c9.17,0,18.32,5,19.33,15.64Z" transform="translate(163 -103)"/>
<polygon fill="#ffffff" points="202.41 8.94 202.41 51.72 191.23 51.72 191.23 8.94 202.41 8.94 202.41 8.94"/>
<polygon fill="#ffffff" points="241.03 8.94 241.03 18.52 229.86 18.52 229.86 51.72 218.69 51.72 218.69 18.52 207.19 18.52 207.19 8.94 241.03 8.94 241.03 8.94"/>
<path fill="#ffffff" d="M100.38,111.94l16,42.78H104.85l-2.55-7.66h-15l-2.55,7.66H73.25l16-42.78ZM89.85,138.75h9.89l-4.79-15h-.31l-4.79,15Z" transform="translate(163 -103)"/>
<polygon fill="#ffffff" points="294.03 8.94 294.03 42.14 313.18 42.14 313.18 51.72 282.86 51.72 282.86 8.94 294.03 8.94 294.03 8.94"/>
<path fill="#e6007e" d="M-120.22,139.39v6.39h5.74V133.65l-5.74,5.74Zm-27.46-9.57-13.4,13.4,6.38,6.39,19.79-19.79Zm27.46-8.94v5.74l5.74-5.74Zm-37-17.88v8.94h42.77V103Z" transform="translate(163 -103)"/>
<path fill="#4db3e7" d="M-144.16,150.57l6.38,6.38,8.62-8.62V135.56l-15,15ZM-126,120.88h2.56v-2.56l-2.56,2.56Zm-16-8.94v8.94h3.19l8.94-8.94Zm27.45,0v21.71l6.39-6.39v27.46h8.94V111.94Z" transform="translate(163 -103)"/>
<polygon fill="#822181" points="33.2 8.94 24.26 17.88 37.03 17.88 39.59 15.32 39.59 17.88 48.52 17.88 48.52 8.94 33.2 8.94 33.2 8.94"/>
<path fill="#ffde13" d="M-129.16,148.33v15.33h8.94V145.78h-3.19v-3.19l-5.75,5.74ZM-163,120.88v8.94h15.32l8.94-8.94Zm37,0-37,37,5.75,5.75,33.84-33.84v-8.94Z" transform="translate(163 -103)"/>
<path fill="#e4003a" d="M-120.22,139.39l-3.19,3.2v3.19h3.19v-6.39Zm-18.52-18.51-8.94,8.94h12.77l8.94-8.94Zm15.33,0v8.94l3.19-3.2v-5.74Z" transform="translate(163 -103)"/>
<polygon fill="#7ca02c" points="39.59 26.82 33.84 32.56 33.84 45.33 39.59 39.59 39.59 26.82 39.59 26.82"/>
<polygon fill="#75283f" points="42.78 23.62 39.59 26.82 39.59 39.59 42.78 36.39 42.78 23.62 42.78 23.62"/>
<polygon fill="#822181" points="42.78 36.39 48.52 30.65 48.52 17.88 42.78 23.62 42.78 36.39 42.78 36.39"/>
<path fill="#ffffff" d="M244.38,112c-9.74,0-16.58,6.18-16.64,16.22,0,.49.06.91.06,1.33h9.62c.06-5.81,2.48-8.53,7-8.53,3.33,0,5.45,2,5.45,5.27,0,2.78-2,5-7.38,8.17-5,2.9-8.3,5.32-10.11,7.14a18.59,18.59,0,0,0-5.63,13.13H260.6V146h-20c4.36-4.24,7.56-5.39,12.77-9,4.9-3.39,6.84-6.78,6.84-11.68,0-8.35-6.6-13.38-15.8-13.38Zm36.37,0c-10.89,0-16.52,8.84-16.52,21.61,0,13.07,5.87,21.66,16.52,21.66,12.53,0,17.19-10.65,17.19-21.66,0-11.86-5.27-21.61-17.19-21.61Zm-6.59,21.61c0-5.45.36-13.25,6.83-13.25,7,0,7,8.11,7,13.25,0,5.93-.31,13.31-7,13.31a5.58,5.58,0,0,1-5.51-3.63c-1-2.06-1.39-5.32-1.39-9.68ZM318.7,112c-9.75,0-16.58,6.18-16.65,16.22,0,.49.07.91.07,1.33h9.62c.06-5.81,2.48-8.53,7-8.53,3.33,0,5.44,2,5.44,5.27,0,2.78-2,5-7.38,8.17a53.09,53.09,0,0,0-10.11,7.14,18.58,18.58,0,0,0-5.62,13.13h33.83V146h-20c4.35-4.24,7.56-5.39,12.76-9,4.91-3.39,6.84-6.78,6.84-11.68,0-8.35-6.59-13.38-15.79-13.38Zm36.37,0c-10.9,0-16.52,8.84-16.52,21.61,0,13.07,5.87,21.66,16.52,21.66,12.53,0,17.19-10.65,17.19-21.66,0-11.86-5.27-21.61-17.19-21.61Zm-6.6,21.61c0-5.45.36-13.25,6.84-13.25,7,0,7,8.11,7,13.25,0,5.93-.3,13.31-7,13.31a5.58,5.58,0,0,1-5.51-3.63c-1-2.06-1.39-5.32-1.39-9.68Z" transform="translate(163 -103)"/>
<path fill="#ffffff" d="M-62.89,111.94C-50.12,111.94-42,119.59-42,133c0,14-8.12,21.71-20.65,21.71H-81.27V111.94Zm-2.1,33.2c8.12,0,11.82-3.2,11.82-12.13,0-8.09-4.4-11.49-11.5-11.49h-5.42v23.62Z" transform="translate(163 -103)"/>
<polygon fill="#ffffff" points="138.24 8.94 138.24 51.72 127.06 51.72 127.06 8.94 138.24 8.94 138.24 8.94"/>
<path fill="#ffffff" d="M21.21,126.62H10c-.42-3.6-3.88-6-8.4-6-6.38,0-9.89,5.29-9.89,12.73s3.45,12.74,10,12.74c5.18,0,9-2.4,9.71-6.49H3.66v-8.16H21.53v23.31h-7l-.78-4.64c-2.32,3.43-7,5.59-11.85,5.59-12.52,0-21.21-9.49-21.21-22.35C-19.33,120.83-11,111,1.88,111c9.17,0,18.32,5,19.33,15.64Z" transform="translate(163 -103)"/>
<polygon fill="#ffffff" points="202.41 8.94 202.41 51.72 191.23 51.72 191.23 8.94 202.41 8.94 202.41 8.94"/>
<polygon fill="#ffffff" points="241.03 8.94 241.03 18.52 229.86 18.52 229.86 51.72 218.69 51.72 218.69 18.52 207.19 18.52 207.19 8.94 241.03 8.94 241.03 8.94"/>
<path fill="#ffffff" d="M100.38,111.94l16,42.78H104.85l-2.55-7.66h-15l-2.55,7.66H73.25l16-42.78ZM89.85,138.75h9.89l-4.79-15h-.31l-4.79,15Z" transform="translate(163 -103)"/>
<polygon fill="#ffffff" points="294.03 8.94 294.03 42.14 313.18 42.14 313.18 51.72 282.86 51.72 282.86 8.94 294.03 8.94 294.03 8.94"/>
<polygon fill="#ffffff" points="342.24 8.94 349.42 22.24 357.02 8.94 369.69 8.94 355.88 29.25 370.97 51.72 357.44 51.72 349.42 37.46 340.68 51.72 327.87 51.72 343.07 29.25 329.13 8.94 342.24 8.94 342.24 8.94"/>
<path fill="#e5077e" d="M-120.22,139.39v6.39h5.74V133.65l-5.74,5.74Zm-27.46-9.57-13.4,13.4,6.38,6.39,19.79-19.79Zm27.46-8.94v5.74l5.74-5.74Zm-37-17.88v8.94h42.77V103Z" transform="translate(163 -103)"/>
<path fill="#4db3e7" d="M-144.16,150.57l6.38,6.38,8.62-8.62V135.56l-15,15ZM-126,120.88h2.56v-2.56l-2.56,2.56Zm-16-8.94v8.94h3.19l8.94-8.94Zm27.45,0v21.71l6.39-6.39v27.46h8.94V111.94Z" transform="translate(163 -103)"/>
<polygon fill="#822181" points="33.2 8.94 24.26 17.88 37.03 17.88 39.59 15.32 39.59 17.88 48.52 17.88 48.52 8.94 33.2 8.94 33.2 8.94"/>
<path fill="#ffde13" d="M-129.16,148.33v15.33h8.94V145.78h-3.19v-3.19l-5.75,5.74ZM-163,120.88v8.94h15.32l8.94-8.94Zm37,0-37,37,5.75,5.75,33.84-33.84v-8.94Z" transform="translate(163 -103)"/>
<path fill="#e4003a" d="M-120.22,139.39l-3.19,3.2v3.19h3.19v-6.39Zm-18.52-18.51-8.94,8.94h12.77l8.94-8.94Zm15.33,0v8.94l3.19-3.2v-5.74Z" transform="translate(163 -103)"/>
<polygon fill="#7ca02c" points="39.59 26.82 33.84 32.56 33.84 45.33 39.59 39.59 39.59 26.82 39.59 26.82"/>
<polygon fill="#75283f" points="42.78 23.62 39.59 26.82 39.59 39.59 42.78 36.39 42.78 23.62 42.78 23.62"/>
<polygon fill="#822181" points="42.78 36.39 48.52 30.65 48.52 17.88 42.78 23.62 42.78 36.39 42.78 36.39"/>
<path fill="#4db3e7" d="M223.72,168.31c-8,0-12.95,6.11-12.95,13.53,0,8,5.56,13.53,12.95,13.53,6.73,0,11.46-4,11.86-10.62h-6.77c-.33,3.23-2.25,4.8-5.24,4.8-3.82,0-6-3.09-6-7.71s2.21-7.71,6-7.71c2.84,0,4.8,1.31,5.24,4h6.77c-.26-6.37-6.3-9.82-11.86-9.82Zm22.51.54-9.71,26h6.95l1.63-4.65h9.06l1.6,4.65h7.06l-9.71-26Zm3.38,7.2h.08l2.87,9.1h-5.89l2.94-9.1Zm15.21-7.2v26h6.36V175.11h.08l5.45,19.71h5.17l5.45-19.71h.07v19.71h6.37v-26h-10l-4.47,17.32h-.07l-4.48-17.32Zm33.64,0v26h6.77v-8.65h5.56c6.29,0,9.38-3,9.38-8.92,0-5.6-3.82-8.4-9.31-8.4Zm6.77,12.08v-6.66h4.65c2.11,0,3.53,1.13,3.53,3.42s-1.38,3.24-3.53,3.24Zm18-12.08v15.46c0,7.13,3.38,11.06,11.31,11.06s11.32-3.89,11.32-11.06V168.85h-6.77v15.79c0,3.27-1.35,4.91-4.55,4.91S330,188,330,184.64V168.85Zm37-.54c-5.21,0-10.55,2.47-10.55,7.89a6.27,6.27,0,0,0,2,4.76c1.35,1.28,3.53,2.26,7.46,3.2,3.05.73,5.64,1.42,5.64,3.31,0,1.68-1.68,2.66-4.19,2.66-3.2,0-4.73-1.27-4.87-4h-6.77c0,6,4.51,9.28,11.28,9.28s11.31-3,11.31-8.7c0-4-2.69-5.78-5.82-6.94a43.63,43.63,0,0,0-4.62-1.28c-3.34-.8-4.62-1.49-4.62-2.69,0-1.42,1.31-2.22,3.28-2.22,2.43,0,4.18,1,4.18,2.91v.22h6.76v-.11c0-5-4.32-8.25-10.43-8.25Z" transform="translate(163 -103)"/>
</svg>