<?xml version="1.0" encoding="utf-8"?>
<!-- Generator: Adobe Illustrator 24.0.3, SVG Export Plug-In . SVG Version: 6.00 Build 0)  -->
<svg version="1.1" id="Ebene_42" xmlns="http://www.w3.org/2000/svg" xmlns:xlink="http://www.w3.org/1999/xlink" x="0px" y="0px"
	 viewBox="0 0 535.26 92.37" style="enable-background:new 0 0 535.26 92.37;" xml:space="preserve">
<path fill="#4DB3E7" d="M100.11,8.94C112.88,8.94,121,16.59,121,30c0,14-8.12,21.71-20.65,21.71H81.73V8.94H100.11z M98.01,42.14
	c8.12,0,11.82-3.2,11.82-12.13c0-8.09-4.4-11.49-11.5-11.49h-5.42v23.62H98.01z"/>
<polygon fill="#4DB3E7" points="138.24,8.94 138.24,51.72 127.06,51.72 127.06,8.94 138.24,8.94 "/>
<path fill="#4DB3E7" d="M184.21,23.62H173c-0.42-3.6-3.88-6-8.4-6c-6.38,0-9.89,5.29-9.89,12.73s3.45,12.74,10,12.74
	c5.18,0,9-2.4,9.71-6.49h-7.76v-8.16h17.87v23.31h-7l-0.78-4.64c-2.32,3.43-7,5.59-11.85,5.59c-12.52,0-21.21-9.49-21.21-22.35
	C143.67,17.83,152,8,164.88,8c9.17,0,18.32,5,19.33,15.64V23.62z"/>
<polygon fill="#4DB3E7" points="202.41,8.94 202.41,51.72 191.23,51.72 191.23,8.94 202.41,8.94 "/>
<polygon fill="#4DB3E7" points="241.03,8.94 241.03,18.52 229.86,18.52 229.86,51.72 218.69,51.72 218.69,18.52 207.19,18.52
	207.19,8.94 241.03,8.94 "/>
<path fill="#4DB3E7" d="M263.38,8.94l16,42.78h-11.53l-2.55-7.66h-15l-2.55,7.66h-11.5l16-42.78H263.38z M252.85,35.75h9.89l-4.79-15
	h-0.31L252.85,35.75z"/>
<polygon fill="#4DB3E7" points="294.03,8.94 294.03,42.14 313.18,42.14 313.18,51.72 282.86,51.72 282.86,8.94 294.03,8.94 "/>
<path fill="#E6007E" d="M42.78,36.39v6.39h5.74V30.65L42.78,36.39z M15.32,26.82l-13.4,13.4l6.38,6.39l19.79-19.79H15.32z M42.78,17.88
	v5.74l5.74-5.74H42.78z M5.78,0v8.94h42.77V0L5.78,0z"/>
<path fill="#4DB3E7" d="M18.84,47.57l6.38,6.38l8.62-8.62V32.56l-15,15V47.57z M37,17.88h2.56v-2.56L37,17.88z M21,8.94v8.94h3.19
	l8.94-8.94H21z M48.45,8.94v21.71l6.39-6.39v27.46h8.94V8.94L48.45,8.94z"/>
<polygon fill="#822181" points="33.2,8.94 24.26,17.88 37.03,17.88 39.59,15.32 39.59,17.88 48.52,17.88 48.52,8.94 33.2,8.94 "/>
<path fill="#FFDE13" d="M33.84,45.33v15.33h8.94V42.78h-3.19v-3.19L33.84,45.33z M0,17.88v8.94h15.32l8.94-8.94L0,17.88z M37,17.88
	l-37,37l5.75,5.75l33.84-33.84v-8.94L37,17.88z"/>
<path fill="#E4003A" d="M42.78,36.39l-3.19,3.2v3.19h3.19V36.39z M24.26,17.88l-8.94,8.94h12.77l8.94-8.94L24.26,17.88z M39.59,17.88
	v8.94l3.19-3.2v-5.74H39.59z"/>
<polygon fill="#7CA02C" points="39.59,26.82 33.84,32.56 33.84,45.33 39.59,39.59 39.59,26.82 "/>
<polygon fill="#75283F" points="42.78,23.62 39.59,26.82 39.59,39.59 42.78,36.39 42.78,23.62 "/>
<polygon fill="#822181" points="42.78,36.39 48.52,30.65 48.52,17.88 42.78,23.62 42.78,36.39 "/>
<path fill="#4DB3E7" d="M407.38,9c-9.74,0-16.58,6.18-16.64,16.22c0,0.49,0.06,0.91,0.06,1.33h9.62c0.06-5.81,2.48-8.53,7-8.53
	c3.33,0,5.45,2,5.45,5.27c0,2.78-2,5-7.38,8.17c-5,2.9-8.3,5.32-10.11,7.14c-3.55,3.45-5.58,8.18-5.63,13.13h33.85V43h-20
	c4.36-4.24,7.56-5.39,12.77-9c4.9-3.39,6.84-6.78,6.84-11.68c0-8.35-6.6-13.38-15.8-13.38L407.38,9z M443.75,9
	c-10.89,0-16.52,8.84-16.52,21.61c0,13.07,5.87,21.66,16.52,21.66c12.53,0,17.19-10.65,17.19-21.66C460.94,18.75,455.67,9,443.75,9z
	 M437.16,30.61c0-5.45,0.36-13.25,6.83-13.25c7,0,7,8.11,7,13.25c0,5.93-0.31,13.31-7,13.31c-2.43,0.12-4.66-1.35-5.51-3.63
	c-1-2.06-1.39-5.32-1.39-9.68L437.16,30.61z M481.7,9c-9.75,0-16.58,6.18-16.65,16.22c0,0.49,0.07,0.91,0.07,1.33h9.62
	c0.06-5.81,2.48-8.53,7-8.53c3.33,0,5.44,2,5.44,5.27c0,2.78-2,5-7.38,8.17c-3.64,1.98-7.03,4.37-10.11,7.14
	c-3.55,3.45-5.57,8.18-5.62,13.13h33.83V43h-20c4.35-4.24,7.56-5.39,12.76-9c4.91-3.39,6.84-6.78,6.84-11.68
	c0-8.35-6.59-13.38-15.79-13.38L481.7,9z M518.07,9c-10.9,0-16.52,8.84-16.52,21.61c0,13.07,5.87,21.66,16.52,21.66
	c12.53,0,17.19-10.65,17.19-21.66C535.26,18.75,529.99,9,518.07,9z M511.47,30.61c0-5.45,0.36-13.25,6.84-13.25c7,0,7,8.11,7,13.25
	c0,5.93-0.3,13.31-7,13.31c-2.43,0.12-4.66-1.35-5.51-3.63c-1-2.06-1.39-5.32-1.39-9.68L511.47,30.61z"/>
<path fill="#4DB3E7" d="M100.11,8.94C112.88,8.94,121,16.59,121,30c0,14-8.12,21.71-20.65,21.71H81.73V8.94H100.11z M98.01,42.14
	c8.12,0,11.82-3.2,11.82-12.13c0-8.09-4.4-11.49-11.5-11.49h-5.42v23.62H98.01z"/>
<polygon fill="#4DB3E7" points="138.24,8.94 138.24,51.72 127.06,51.72 127.06,8.94 138.24,8.94 "/>
<path fill="#4DB3E7" d="M184.21,23.62H173c-0.42-3.6-3.88-6-8.4-6c-6.38,0-9.89,5.29-9.89,12.73s3.45,12.74,10,12.74
	c5.18,0,9-2.4,9.71-6.49h-7.76v-8.16h17.87v23.31h-7l-0.78-4.64c-2.32,3.43-7,5.59-11.85,5.59c-12.52,0-21.21-9.49-21.21-22.35
	C143.67,17.83,152,8,164.88,8c9.17,0,18.32,5,19.33,15.64V23.62z"/>
<polygon fill="#4DB3E7" points="202.41,8.94 202.41,51.72 191.23,51.72 191.23,8.94 202.41,8.94 "/>
<polygon fill="#4DB3E7" points="241.03,8.94 241.03,18.52 229.86,18.52 229.86,51.72 218.69,51.72 218.69,18.52 207.19,18.52
	207.19,8.94 241.03,8.94 "/>
<path fill="#4DB3E7" d="M263.38,8.94l16,42.78h-11.53l-2.55-7.66h-15l-2.55,7.66h-11.5l16-42.78H263.38z M252.85,35.75h9.89l-4.79-15
	h-0.31L252.85,35.75z"/>
<polygon fill="#4DB3E7" points="294.03,8.94 294.03,42.14 313.18,42.14 313.18,51.72 282.86,51.72 282.86,8.94 294.03,8.94 "/>
<polygon fill="#4DB3E7" points="342.24,8.94 349.42,22.24 357.02,8.94 369.69,8.94 355.88,29.25 370.97,51.72 357.44,51.72
	349.42,37.46 340.68,51.72 327.87,51.72 343.07,29.25 329.13,8.94 342.24,8.94 "/>
<path fill="#E5077E" d="M42.78,36.39v6.39h5.74V30.65L42.78,36.39z M15.32,26.82l-13.4,13.4l6.38,6.39l19.79-19.79H15.32z M42.78,17.88
	v5.74l5.74-5.74H42.78z M5.78,0v8.94h42.77V0L5.78,0z"/>
<path fill="#4DB3E7" d="M18.84,47.57l6.38,6.38l8.62-8.62V32.56l-15,15V47.57z M37,17.88h2.56v-2.56L37,17.88z M21,8.94v8.94h3.19
	l8.94-8.94H21z M48.45,8.94v21.71l6.39-6.39v27.46h8.94V8.94L48.45,8.94z"/>
<polygon fill="#822181" points="33.2,8.94 24.26,17.88 37.03,17.88 39.59,15.32 39.59,17.88 48.52,17.88 48.52,8.94 33.2,8.94 "/>
<path fill="#FFDE13" d="M33.84,45.33v15.33h8.94V42.78h-3.19v-3.19L33.84,45.33z M0,17.88v8.94h15.32l8.94-8.94L0,17.88z M37,17.88
	l-37,37l5.75,5.75l33.84-33.84v-8.94L37,17.88z"/>
<path fill="#E4003A" d="M42.78,36.39l-3.19,3.2v3.19h3.19V36.39z M24.26,17.88l-8.94,8.94h12.77l8.94-8.94L24.26,17.88z M39.59,17.88
	v8.94l3.19-3.2v-5.74H39.59z"/>
<polygon fill="#7CA02C" points="39.59,26.82 33.84,32.56 33.84,45.33 39.59,39.59 39.59,26.82 "/>
<polygon fill="#75283F" points="42.78,23.62 39.59,26.82 39.59,39.59 42.78,36.39 42.78,23.62 "/>
<polygon fill="#822181" points="42.78,36.39 48.52,30.65 48.52,17.88 42.78,23.62 42.78,36.39 "/>
<path fill="#4DB3E7" d="M386.72,65.31c-8,0-12.95,6.11-12.95,13.53c0,8,5.56,13.53,12.95,13.53c6.73,0,11.46-4,11.86-10.62h-6.77
	c-0.33,3.23-2.25,4.8-5.24,4.8c-3.82,0-6-3.09-6-7.71s2.21-7.71,6-7.71c2.84,0,4.8,1.31,5.24,4h6.77
	C398.32,68.76,392.28,65.31,386.72,65.31z M409.23,65.85l-9.71,26h6.95l1.63-4.65h9.06l1.6,4.65h7.06l-9.71-26H409.23z
	 M412.61,73.05h0.08l2.87,9.1h-5.89L412.61,73.05z M427.82,65.85v26h6.36V72.11h0.08l5.45,19.71h5.17l5.45-19.71h0.07v19.71h6.37
	v-26h-10l-4.47,17.32h-0.07l-4.48-17.32L427.82,65.85z M461.46,65.85v26h6.77V83.2h5.56c6.29,0,9.38-3,9.38-8.92
	c0-5.6-3.82-8.4-9.31-8.4L461.46,65.85z M468.23,77.93v-6.66h4.65c2.11,0,3.53,1.13,3.53,3.42s-1.38,3.24-3.53,3.24H468.23z
	 M486.23,65.85v15.46c0,7.13,3.38,11.06,11.31,11.06s11.32-3.89,11.32-11.06V65.85h-6.77v15.79c0,3.27-1.35,4.91-4.55,4.91
	S493,85,493,81.64V65.85L486.23,65.85z M523.23,65.31c-5.21,0-10.55,2.47-10.55,7.89c-0.05,1.8,0.68,3.53,2,4.76
	c1.35,1.28,3.53,2.26,7.46,3.2c3.05,0.73,5.64,1.42,5.64,3.31c0,1.68-1.68,2.66-4.19,2.66c-3.2,0-4.73-1.27-4.87-4h-6.77
	c0,6,4.51,9.28,11.28,9.28s11.31-3,11.31-8.7c0-4-2.69-5.78-5.82-6.94c-1.52-0.51-3.06-0.94-4.62-1.28
	c-3.34-0.8-4.62-1.49-4.62-2.69c0-1.42,1.31-2.22,3.28-2.22c2.43,0,4.18,1,4.18,2.91v0.22h6.76V73.6c0-5-4.32-8.25-10.43-8.25
	L523.23,65.31z"/>
</svg>
