<?xml version="1.0" encoding="utf-8"?>
<!-- Generator: Adobe Illustrator 25.2.1, SVG Export Plug-In . SVG Version: 6.00 Build 0)  -->
<svg version="1.1" id="Ebene_42" xmlns="http://www.w3.org/2000/svg" xmlns:xlink="http://www.w3.org/1999/xlink" x="0px" y="0px"
	 viewBox="0 0 535.3 92.4" enable-background="new 0 0 535.3 92.4" xml:space="preserve">
<path fill="#FFFFFF" d="M100.1,8.9c12.8,0,20.9,7.6,20.9,21.1c0,14-8.1,21.7-20.7,21.7H81.7V8.9H100.1z M98,42.1
	c8.1,0,11.8-3.2,11.8-12.1c0-8.1-4.4-11.5-11.5-11.5h-5.4v23.6H98z"/>
<polygon fill="#FFFFFF" points="138.2,8.9 138.2,51.7 127.1,51.7 127.1,8.9 138.2,8.9 "/>
<path fill="#FFFFFF" d="M184.2,23.6H173c-0.4-3.6-3.9-6-8.4-6c-6.4,0-9.9,5.3-9.9,12.7s3.4,12.7,10,12.7c5.2,0,9-2.4,9.7-6.5h-7.8
	v-8.2h17.9v23.3h-7l-0.8-4.6c-2.3,3.4-7,5.6-11.9,5.6c-12.5,0-21.2-9.5-21.2-22.4C143.7,17.8,152,8,164.9,8
	C174.1,8,183.2,13,184.2,23.6L184.2,23.6z"/>
<polygon fill="#FFFFFF" points="202.4,8.9 202.4,51.7 191.2,51.7 191.2,8.9 202.4,8.9 "/>
<polygon fill="#FFFFFF" points="241,8.9 241,18.5 229.9,18.5 229.9,51.7 218.7,51.7 218.7,18.5 207.2,18.5 207.2,8.9 241,8.9 "/>
<path fill="#FFFFFF" d="M263.4,8.9l16,42.8h-11.5l-2.6-7.7h-15l-2.5,7.7h-11.5l16-42.8H263.4z M252.9,35.8h9.9l-4.8-15h-0.3
	L252.9,35.8z"/>
<polygon fill="#FFFFFF" points="294,8.9 294,42.1 313.2,42.1 313.2,51.7 282.9,51.7 282.9,8.9 294,8.9 "/>
<path fill="#E6007E" d="M42.8,36.4v6.4h5.7V30.6L42.8,36.4z M15.3,26.8L1.9,40.2l6.4,6.4l19.8-19.8H15.3z M42.8,17.9v5.7l5.7-5.7
	H42.8z M5.8,0v8.9h42.8V0L5.8,0z"/>
<path fill="#4DB3E7" d="M18.8,47.6l6.4,6.4l8.6-8.6V32.6L18.8,47.6L18.8,47.6z M37,17.9h2.6v-2.6L37,17.9z M21,8.9v8.9h3.2l8.9-8.9
	H21z M48.4,8.9v21.7l6.4-6.4v27.5h8.9V8.9L48.4,8.9z"/>
<polygon fill="#822181" points="33.2,8.9 24.3,17.9 37,17.9 39.6,15.3 39.6,17.9 48.5,17.9 48.5,8.9 33.2,8.9 "/>
<path fill="#FFDE13" d="M33.8,45.3v15.3h8.9V42.8h-3.2v-3.2L33.8,45.3z M0,17.9v8.9h15.3l8.9-8.9L0,17.9z M37,17.9l-37,37l5.8,5.8
	l33.8-33.8v-8.9L37,17.9z"/>
<path fill="#E4003A" d="M42.8,36.4l-3.2,3.2v3.2h3.2V36.4z M24.3,17.9l-8.9,8.9h12.8l8.9-8.9L24.3,17.9z M39.6,17.9v8.9l3.2-3.2
	v-5.7H39.6z"/>
<polygon fill="#7CA02C" points="39.6,26.8 33.8,32.6 33.8,45.3 39.6,39.6 39.6,26.8 "/>
<polygon fill="#75283F" points="42.8,23.6 39.6,26.8 39.6,39.6 42.8,36.4 42.8,23.6 "/>
<polygon fill="#822181" points="42.8,36.4 48.5,30.6 48.5,17.9 42.8,23.6 42.8,36.4 "/>
<path fill="#FFFFFF" d="M100.1,8.9c12.8,0,20.9,7.6,20.9,21.1c0,14-8.1,21.7-20.7,21.7H81.7V8.9H100.1z M98,42.1
	c8.1,0,11.8-3.2,11.8-12.1c0-8.1-4.4-11.5-11.5-11.5h-5.4v23.6H98z"/>
<polygon fill="#FFFFFF" points="138.2,8.9 138.2,51.7 127.1,51.7 127.1,8.9 138.2,8.9 "/>
<path fill="#FFFFFF" d="M184.2,23.6H173c-0.4-3.6-3.9-6-8.4-6c-6.4,0-9.9,5.3-9.9,12.7s3.4,12.7,10,12.7c5.2,0,9-2.4,9.7-6.5h-7.8
	v-8.2h17.9v23.3h-7l-0.8-4.6c-2.3,3.4-7,5.6-11.9,5.6c-12.5,0-21.2-9.5-21.2-22.4C143.7,17.8,152,8,164.9,8
	C174.1,8,183.2,13,184.2,23.6L184.2,23.6z"/>
<polygon fill="#FFFFFF" points="202.4,8.9 202.4,51.7 191.2,51.7 191.2,8.9 202.4,8.9 "/>
<polygon fill="#FFFFFF" points="241,8.9 241,18.5 229.9,18.5 229.9,51.7 218.7,51.7 218.7,18.5 207.2,18.5 207.2,8.9 241,8.9 "/>
<path fill="#FFFFFF" d="M263.4,8.9l16,42.8h-11.5l-2.6-7.7h-15l-2.5,7.7h-11.5l16-42.8H263.4z M252.9,35.8h9.9l-4.8-15h-0.3
	L252.9,35.8z"/>
<polygon fill="#FFFFFF" points="294,8.9 294,42.1 313.2,42.1 313.2,51.7 282.9,51.7 282.9,8.9 294,8.9 "/>
<polygon fill="#FFFFFF" points="342.2,8.9 349.4,22.2 357,8.9 369.7,8.9 355.9,29.2 371,51.7 357.4,51.7 349.4,37.5 340.7,51.7 
	327.9,51.7 343.1,29.2 329.1,8.9 342.2,8.9 "/>
<path fill="#E5077E" d="M42.8,36.4v6.4h5.7V30.6L42.8,36.4z M15.3,26.8L1.9,40.2l6.4,6.4l19.8-19.8H15.3z M42.8,17.9v5.7l5.7-5.7
	H42.8z M5.8,0v8.9h42.8V0L5.8,0z"/>
<path fill="#4DB3E7" d="M18.8,47.6l6.4,6.4l8.6-8.6V32.6L18.8,47.6L18.8,47.6z M37,17.9h2.6v-2.6L37,17.9z M21,8.9v8.9h3.2l8.9-8.9
	H21z M48.4,8.9v21.7l6.4-6.4v27.5h8.9V8.9L48.4,8.9z"/>
<polygon fill="#822181" points="33.2,8.9 24.3,17.9 37,17.9 39.6,15.3 39.6,17.9 48.5,17.9 48.5,8.9 33.2,8.9 "/>
<path fill="#FFDE13" d="M33.8,45.3v15.3h8.9V42.8h-3.2v-3.2L33.8,45.3z M0,17.9v8.9h15.3l8.9-8.9L0,17.9z M37,17.9l-37,37l5.8,5.8
	l33.8-33.8v-8.9L37,17.9z"/>
<path fill="#E4003A" d="M42.8,36.4l-3.2,3.2v3.2h3.2V36.4z M24.3,17.9l-8.9,8.9h12.8l8.9-8.9L24.3,17.9z M39.6,17.9v8.9l3.2-3.2
	v-5.7H39.6z"/>
<polygon fill="#7CA02C" points="39.6,26.8 33.8,32.6 33.8,45.3 39.6,39.6 39.6,26.8 "/>
<polygon fill="#75283F" points="42.8,23.6 39.6,26.8 39.6,39.6 42.8,36.4 42.8,23.6 "/>
<polygon fill="#822181" points="42.8,36.4 48.5,30.6 48.5,17.9 42.8,23.6 42.8,36.4 "/>
<path fill="#4DB3E7" d="M386.7,65.3c-8,0-12.9,6.1-12.9,13.5c0,8,5.6,13.5,12.9,13.5c6.7,0,11.5-4,11.9-10.6h-6.8
	c-0.3,3.2-2.2,4.8-5.2,4.8c-3.8,0-6-3.1-6-7.7s2.2-7.7,6-7.7c2.8,0,4.8,1.3,5.2,4h6.8C398.3,68.8,392.3,65.3,386.7,65.3z
	 M409.2,65.8l-9.7,26h6.9l1.6-4.6h9.1l1.6,4.6h7.1l-9.7-26H409.2z M412.6,73L412.6,73l3,9.1h-5.9L412.6,73z M427.8,65.8v26h6.4V72.1
	h0.1l5.5,19.7h5.2l5.5-19.7h0.1v19.7h6.4v-26h-10l-4.5,17.3h-0.1l-4.5-17.3L427.8,65.8z M461.5,65.8v26h6.8v-8.6h5.6
	c6.3,0,9.4-3,9.4-8.9c0-5.6-3.8-8.4-9.3-8.4L461.5,65.8z M468.2,77.9v-6.7h4.6c2.1,0,3.5,1.1,3.5,3.4s-1.4,3.2-3.5,3.2H468.2z
	 M486.2,65.8v15.5c0,7.1,3.4,11.1,11.3,11.1s11.3-3.9,11.3-11.1V65.9h-6.8v15.8c0,3.3-1.4,4.9-4.5,4.9S493,85,493,81.6V65.9
	L486.2,65.8z M523.2,65.3c-5.2,0-10.5,2.5-10.5,7.9c0,1.8,0.7,3.5,2,4.8c1.3,1.3,3.5,2.3,7.5,3.2c3,0.7,5.6,1.4,5.6,3.3
	c0,1.7-1.7,2.7-4.2,2.7c-3.2,0-4.7-1.3-4.9-4H512c0,6,4.5,9.3,11.3,9.3s11.3-3,11.3-8.7c0-4-2.7-5.8-5.8-6.9
	c-1.5-0.5-3.1-0.9-4.6-1.3c-3.3-0.8-4.6-1.5-4.6-2.7c0-1.4,1.3-2.2,3.3-2.2c2.4,0,4.2,1,4.2,2.9v0.2h6.8v-0.1
	C533.7,68.6,529.4,65.3,523.2,65.3L523.2,65.3z"/>
<path fill="#FFFFFF" d="M407.4,9c-9.7,0-16.6,6.2-16.6,16.2c0,0.5,0.1,0.9,0.1,1.3h9.6c0.1-5.8,2.5-8.5,7-8.5c3.3,0,5.5,2,5.5,5.3
	c0,2.8-2,5-7.4,8.2c-5,2.9-8.3,5.3-10.1,7.1c-3.5,3.5-5.6,8.2-5.6,13.1h33.9V43h-20c4.4-4.2,7.6-5.4,12.8-9
	c4.9-3.4,6.8-6.8,6.8-11.7C423.2,14,416.6,8.9,407.4,9L407.4,9z"/>
<path fill="#FFFFFF" d="M443.8,9c-10.9,0-16.5,8.8-16.5,21.6c0,13.1,5.9,21.7,16.5,21.7c12.5,0,17.2-10.7,17.2-21.7
	C460.9,18.8,455.7,9,443.8,9z M444,43.9c-2.4,0.1-4.7-1.3-5.5-3.6c-1-2.1-1.4-5.3-1.4-9.7h0.1c0-5.5,0.4-13.2,6.8-13.2
	c7,0,7,8.1,7,13.2C451,36.5,450.7,43.9,444,43.9z"/>
<path fill="#FFFFFF" d="M481.7,9c-9.8,0-16.6,6.2-16.6,16.2c0,0.5,0.1,0.9,0.1,1.3h9.6c0.1-5.8,2.5-8.5,7-8.5c3.3,0,5.4,2,5.4,5.3
	c0,2.8-2,5-7.4,8.2c-3.6,2-7,4.4-10.1,7.1c-3.5,3.5-5.6,8.2-5.6,13.1h33.8V43h-20c4.4-4.2,7.6-5.4,12.8-9c4.9-3.4,6.8-6.8,6.8-11.7
	C497.5,14,490.9,8.9,481.7,9L481.7,9z"/>
<path fill="#FFFFFF" d="M519.1,9c-9.8,0-16.6,6.2-16.6,16.2c0,0.5,0.1,0.9,0.1,1.3h9.6c0.1-5.8,2.5-8.5,7-8.5c3.3,0,5.4,2,5.4,5.3
	c0,2.8-2,5-7.4,8.2c-3.6,2-7,4.4-10.1,7.1c-3.5,3.5-5.6,8.2-5.6,13.1h33.8V43h-20c4.3-4.2,7.6-5.4,12.8-9c4.9-3.4,6.8-6.8,6.8-11.7
	C534.9,14,528.3,8.9,519.1,9L519.1,9z"/>
</svg>
