<svg width="121" height="120" viewBox="0 0 121 120" fill="none" xmlns="http://www.w3.org/2000/svg">
<path d="M60.5 120C52.3331 120 44.4106 118.414 36.9501 115.284C29.7458 112.261 23.2756 107.936 17.72 102.426C12.1645 96.9167 7.80195 90.5001 4.75523 83.3553C1.59967 75.9565 0 68.0994 0 60C0 51.9006 1.59967 44.0435 4.75523 36.6447C7.80301 29.4999 12.1645 23.0833 17.72 17.5736C23.2756 12.0639 29.7458 7.73747 36.9501 4.71593C44.4106 1.58645 52.3331 0 60.5 0C68.6669 0 76.5894 1.58645 84.0499 4.71593C91.2542 7.73853 97.7244 12.0639 103.28 17.5736C108.836 23.0833 113.198 29.4999 116.245 36.6447C119.4 44.0435 121 51.9006 121 60C121 68.0994 119.4 75.9565 116.245 83.3553C113.198 90.5001 108.836 96.9167 103.28 102.426C97.7244 107.936 91.2542 112.263 84.0499 115.284C76.5894 118.414 68.6669 120 60.5 120ZM60.5 3.69252C52.8347 3.69252 45.3988 5.18054 38.4004 8.11635C31.64 10.9527 25.5679 15.0124 20.3527 20.1845C15.1376 25.3566 11.044 31.3785 8.184 38.083C5.22372 45.0235 3.7233 52.3969 3.7233 60C3.7233 67.603 5.22372 74.9764 8.184 81.917C11.044 88.6215 15.1376 94.6434 20.3527 99.8155C25.5679 104.988 31.64 109.047 38.4004 111.884C45.3988 114.819 52.8347 116.307 60.5 116.307C68.1654 116.307 75.6012 114.819 82.5996 111.884C89.36 109.047 95.4321 104.988 100.647 99.8155C105.862 94.6434 109.956 88.6215 112.816 81.917C115.776 74.9764 117.277 67.603 117.277 60C117.277 52.3969 115.776 45.0235 112.816 38.083C109.956 31.3785 105.862 25.3566 100.647 20.1845C95.4321 15.0124 89.36 10.9527 82.5996 8.11635C75.6012 5.18054 68.1654 3.69252 60.5 3.69252Z" fill="white"/>
<path d="M48.8948 88.2849C48.6078 88.2849 48.3185 88.2193 48.0528 88.0849C47.4275 87.7706 47.0337 87.1334 47.0337 86.4381V33.5628C47.0337 32.8675 47.4275 32.2314 48.0528 31.9161C48.6782 31.6017 49.4284 31.662 49.995 32.0727L86.4404 58.5098C86.9195 58.858 87.2034 59.4115 87.2034 59.9999C87.2034 60.5884 86.9206 61.1429 86.4404 61.4901L49.995 87.9283C49.6696 88.1643 49.2843 88.2838 48.8959 88.2838L48.8948 88.2849ZM50.757 37.2014V82.8006L82.1867 60.001L50.757 37.2014Z" fill="white"/>
</svg>
