<svg xmlns="http://www.w3.org/2000/svg" width="235" height="235" version="1.1" id="svg5"><path id="Icon_simple-podcasts" fill-rule="evenodd" d="M92.11 156.901c0-6.55 2.6-12.82 7.23-17.45a24.684 24.684 0 0142.14 17.45c0 73.05-24.68 73.05-24.68 73.05s-24.67 0-24.69-73.05zm54.97 48.15c1.07-4.19 1.92-8.4 2.58-12.66l.49-3.38c1.08-.46 2.16-.91 3.25-1.4 4.26-1.95 8.37-4.23 12.28-6.82s7.61-5.48 11.07-8.65c3.45-3.18 6.65-6.62 9.56-10.29 2.91-3.68 5.53-7.58 7.83-11.67 1.05-1.88 2.03-3.8 2.94-5.76a84.31 84.31 0 002.51-5.96c.76-2.01 1.45-4.06 2.06-6.12a85.77 85.77 0 001.61-6.26c.54-2.37.97-4.76 1.3-7.17.33-2.4.57-4.82.7-7.24s.16-4.85.08-7.28c-.07-2.42-.25-4.85-.52-7.26-.24-2.25-.58-4.5-1-6.73-.43-2.22-.94-4.43-1.55-6.62a81.34 81.34 0 00-2.07-6.48c-.78-2.13-1.65-4.23-2.6-6.29a85.939 85.939 0 00-7.79-13.89c-1.51-2.19-3.13-4.3-4.84-6.34a87.949 87.949 0 00-5.4-5.86 88.352 88.352 0 00-6.07-5.54c-2.1-1.75-4.29-3.4-6.55-4.95a87.379 87.379 0 00-6.98-4.33 89.785 89.785 0 00-7.35-3.66 86.505 86.505 0 00-7.93-3.06c-2.69-.88-5.43-1.63-8.19-2.25a88.33 88.33 0 00-8.38-1.43c-2.81-.33-5.64-.53-8.48-.58-8.26-.22-16.51.72-24.5 2.8-8 2.09-15.66 5.28-22.76 9.5a87.838 87.838 0 00-19.22 15.45 87.904 87.904 0 00-14.19 20.18 97.04 97.04 0 00-2.82 6.13c-.86 2.08-1.65 4.19-2.36 6.32-.7 2.14-1.33 4.3-1.88 6.48-.54 2.19-1.01 4.39-1.39 6.61a87.737 87.737 0 00-.21 27.73c1.4 9.2 4.25 18.12 8.44 26.42a87.74 87.74 0 0016.27 22.47 87.438 87.438 0 0022.45 16.28c2.12.98 4.23 1.97 6.51 2.96.14 1.14.43 2.4.59 3.68.71 4.1 1.56 8.33 2.54 12.42-.96-.31-1.91-.64-2.86-.98-.95-.34-1.9-.69-2.84-1.05-.94-.37-1.88-.75-2.81-1.14a102.836 102.836 0 01-30.3-19.6c-4.06-3.78-7.8-7.88-11.2-12.26-3.4-4.39-6.43-9.04-9.08-13.91-1.19-2.21-2.3-4.47-3.32-6.76a102.994 102.994 0 01-5.16-14.14c-.69-2.41-1.29-4.85-1.81-7.31-.59-2.74-1.07-5.5-1.43-8.28-.36-2.78-.6-5.57-.71-8.37-.12-2.8-.12-5.6 0-8.4.13-2.8.37-5.59.73-8.37a106.836 106.836 0 013.25-15.42c.73-2.52 1.56-5.02 2.47-7.48.92-2.46 1.93-4.89 3.03-7.28 1.31-2.79 2.75-5.52 4.31-8.19 1.55-2.66 3.23-5.25 5.01-7.77 1.79-2.51 3.68-4.95 5.68-7.3 2-2.35 4.1-4.61 6.3-6.77 2.22-2.2 4.55-4.29 6.98-6.27 2.42-1.98 4.94-3.84 7.54-5.57 2.6-1.74 5.28-3.35 8.04-4.83 2.75-1.48 5.58-2.83 8.46-4.04 11.89-5 24.62-7.71 37.52-7.99a102.495 102.495 0 0170.65 26.22c9.59 8.62 17.47 18.98 23.22 30.53 1.17 2.33 2.25 4.72 3.23 7.14.99 2.42 1.88 4.88 2.67 7.37a100.566 100.566 0 013.57 15.25c.43 2.67.75 5.35.96 8.05.2 2.69.3 5.4.29 8.1a99.35 99.35 0 01-.37 8.1c-.23 2.7-.57 5.38-1.03 8.04-1.3 7.95-3.54 15.72-6.67 23.14a101.51 101.51 0 01-11.93 20.93 101.92 101.92 0 01-16.51 17.53c-6.18 5.16-12.95 9.58-20.17 13.15-1.26.61-2.52 1.19-3.79 1.76-1.28.56-2.56 1.1-3.86 1.62a107.733 107.733 0 01-7.86 2.81zm4.88-40.27l-.01.01v.02zm.09-4.37c.01-.74.02-1.48.01-2.22-.01-.73-.03-1.47-.07-2.21-.03-.74-.08-1.47-.15-2.21-.06-.73-.14-1.47-.23-2.2-.04-.28-.08-.55-.13-.82-.05-.27-.11-.54-.17-.81-.06-.27-.12-.54-.19-.81-.06-.27-.13-.54-.21-.8a53.24 53.24 0 003.78-3.42c1.2-1.2 2.34-2.46 3.42-3.77 1.07-1.31 2.08-2.68 3.02-4.09a53.78 53.78 0 002.61-4.38c.61-1.14 1.18-2.3 1.7-3.48.53-1.18 1.01-2.38 1.45-3.59.43-1.22.82-2.45 1.17-3.7.35-1.24.65-2.5.9-3.77a52.738 52.738 0 001.04-8.71c.04-1.46.03-2.93-.04-4.39-.08-1.47-.21-2.92-.41-4.38-.17-1.3-.39-2.59-.66-3.87a56.12 56.12 0 00-.92-3.83c-.36-1.26-.75-2.51-1.19-3.74a52.61 52.61 0 00-1.46-3.66c-.66-1.45-1.39-2.87-2.18-4.25-.8-1.39-1.65-2.74-2.56-4.05a53.808 53.808 0 00-6.11-7.35 54.75 54.75 0 00-3.58-3.22 54.558 54.558 0 00-3.85-2.9c-1.32-.91-2.68-1.76-4.08-2.55-1.4-.79-2.83-1.53-4.29-2.19-1.62-.72-3.27-1.35-4.95-1.91a56.145 56.145 0 00-15.64-2.75c-1.78-.03-3.55.03-5.33.17-1.77.14-3.53.36-5.28.67-1.75.31-3.49.7-5.2 1.17-1.71.48-3.4 1.03-5.06 1.67-1.49.6-2.95 1.26-4.38 1.99-1.43.72-2.82 1.51-4.18 2.36-1.36.85-2.68 1.76-3.96 2.73-1.27.97-2.51 1.99-3.7 3.07a51.76 51.76 0 00-3.42 3.37 49.46 49.46 0 00-3.09 3.69c-.97 1.27-1.88 2.59-2.72 3.96-.85 1.36-1.63 2.76-2.34 4.2-.6 1.16-1.16 2.34-1.67 3.55-.51 1.2-.98 2.42-1.41 3.66-.42 1.24-.8 2.49-1.14 3.75-.33 1.27-.62 2.55-.86 3.83a55.01 55.01 0 00-.84 8.09 55.172 55.172 0 00.42 8.13c.42 3.25 1.13 6.45 2.13 9.57s2.28 6.15 3.83 9.03a53.2 53.2 0 005.42 8.18c2.05 2.56 4.33 4.92 6.81 7.06l-.85 3.8c-.1.74-.19 1.47-.26 2.21s-.13 1.48-.16 2.22c-.04.74-.05 1.48-.05 2.23 0 .74.01 1.48.05 2.22v3.95c-2.46-1.52-4.82-3.2-7.06-5.03-2.25-1.83-4.37-3.8-6.35-5.9a67.81 67.81 0 01-5.53-6.68c-1.69-2.35-3.24-4.8-4.61-7.35-.81-1.43-1.56-2.9-2.24-4.4-.69-1.5-1.32-3.02-1.89-4.57-.57-1.54-1.07-3.11-1.51-4.7-.44-1.59-.82-3.19-1.14-4.81-.38-1.8-.69-3.62-.92-5.45a63.59 63.59 0 01-.45-5.51c-.07-1.84-.06-3.69.02-5.53.09-1.84.26-3.68.51-5.5.21-1.65.48-3.28.8-4.9.33-1.62.72-3.23 1.17-4.82.45-1.6.96-3.17 1.52-4.73a70.29 70.29 0 011.87-4.6c.83-1.84 1.75-3.64 2.74-5.39.99-1.76 2.06-3.48 3.21-5.14 1.14-1.66 2.36-3.28 3.65-4.83 1.28-1.56 2.64-3.06 4.06-4.5 1.42-1.43 2.92-2.79 4.47-4.09 1.56-1.29 3.17-2.51 4.83-3.66 1.67-1.14 3.39-2.21 5.15-3.2a66.79 66.79 0 015.42-2.71c4.09-1.85 8.35-3.28 12.72-4.27a67.393 67.393 0 0126.69-.65c4.41.78 8.74 2.01 12.91 3.65 1.89.74 3.75 1.57 5.57 2.48 1.82.91 3.59 1.9 5.32 2.98 1.73 1.07 3.4 2.23 5.02 3.46 1.62 1.23 3.18 2.53 4.68 3.9 2.72 2.48 5.24 5.18 7.52 8.07 2.28 2.89 4.32 5.95 6.11 9.17 1.78 3.22 3.3 6.58 4.54 10.05a68.85 68.85 0 012.85 10.65c.29 1.68.53 3.38.7 5.08.16 1.71.26 3.42.3 5.13.03 1.71 0 3.42-.09 5.13-.1 1.71-.26 3.41-.49 5.11-.21 1.66-.48 3.31-.82 4.94-.33 1.64-.73 3.26-1.19 4.86a64.628 64.628 0 01-3.5 9.38 68.064 68.064 0 01-4.85 8.87 66.362 66.362 0 01-6.14 8.03 66.045 66.045 0 01-7.27 7.02 66.08 66.08 0 01-8.25 5.84l1.06-1zm-10.72-60.63c-.05 13.75-11.23 24.85-24.97 24.83-13.75-.03-24.88-11.18-24.88-24.93 0-13.74 11.13-24.9 24.88-24.92 13.74-.03 24.92 11.08 24.97 24.82z" fill="#000000"/></svg>
