<svg height="31" viewBox="0 0 31 31" width="31" xmlns="http://www.w3.org/2000/svg"><path d="m12.6563277.00000378h4.6873446c.3730843-.00086585.7311386.14695641.9949498.4107676.2638112.26381118.4116334.62186545.4107638.99494979v9.84489293h5.1379565c.4739533-.0009468.9015723.2843767 1.082642.7223793.1810697.4380027.0797502.9419886-.2565199 1.2759871l-8.9110159 8.9175465c-.4443924.4355916-1.1556069.4355916-1.5999992 0l-8.92244448-8.9191792c-.3350968-.3341554-.43566888-.8373799-.25474836-1.2746641.18092053-.4372842.60763724-.7223499 1.08087039-.7220696h5.14448715v-9.84489293c-.0008696-.37308434.1469526-.73113861.4107638-.99494979.2638112-.26381119.6218655-.41163345.9949498-.4107676zm17.3436761 22.03101302v6.563262c.0008583.3730844-.146964.7311386-.4107752.9949498s-.6218654.4116335-.9949498.4107676h-27.18855763c-.37308434.0008659-.73113861-.1469564-.99494979-.4107676-.26381119-.2638112-.41163345-.6218654-.4107676-.9949498v-6.563262c-.00086585-.3730843.14695641-.7311386.4107676-.9949497.26381118-.2638112.62186545-.4116335.99494979-.4107676h8.59591403l2.8718353 2.8718391c.5634136.5657001 1.3289402.8837001 2.1273458.8837001.7984057 0 1.5639322-.318 2.1273459-.8837001l2.8718416-2.8718391h8.5959077c.3728017-.0004312.7304356.1475829.9938932.4113468.2634575.2637639.4110559.6215696.4101991.9943705zm-7.2653138 5.1559158c0-.6474126-.5248317-1.1722443-1.1722443-1.1722443-.6474127 0-1.1722443.5248317-1.1722443 1.1722443 0 .6474127.5248316 1.1722443 1.1722443 1.1722443.6466681-.0017938 1.1704504-.5255761 1.1722443-1.1722443zm3.7551001 0c0-.6474126-.5248317-1.1722443-1.1722443-1.1722443-.6474127 0-1.1722443.5248317-1.1722443 1.1722443 0 .6474127.5248316 1.1722443 1.1722443 1.1722443.6447546-.0044751 1.1655708-.5274766 1.1673463-1.1722443z" transform="translate(0 1)"/></svg>