<svg xmlns="http://www.w3.org/2000/svg" width="44" height="44"><path id="Icon ionic-ios-search" fill-rule="evenodd" d="M41.63 41.35a1.74 1.74 0 01-2.44-.06L28.06 30.1a16.037 16.037 0 01-10.13 3.57c-8.88 0-16.07-7.15-16.07-15.97S9.05 1.72 17.93 1.72C26.81 1.72 34 8.87 34 17.69c0 3.77-1.32 7.24-3.52 9.97l11.21 11.26c.65.68.63 1.77-.06 2.43zM26.85 26.57c2.38-2.36 3.7-5.52 3.7-8.87 0-3.34-1.32-6.49-3.7-8.86a12.565 12.565 0 00-8.92-3.68c-3.37 0-6.54 1.31-8.92 3.68a12.395 12.395 0 00-3.69 8.86c0 3.34 1.31 6.5 3.69 8.87 2.38 2.37 5.55 3.67 8.92 3.67s6.54-1.3 8.92-3.67z" /></svg>
