<?xml version="1.0" encoding="utf-8"?>
<!-- Generator: Adobe Illustrator 24.0.3, SVG Export Plug-In . SVG Version: 6.00 Build 0)  -->
<svg version="1.1" id="Ebene_1" xmlns="http://www.w3.org/2000/svg" xmlns:xlink="http://www.w3.org/1999/xlink" x="0px" y="0px"
	 viewBox="0 0 50 50" style="enable-background:new 0 0 50 50;" xml:space="preserve">
<g>
	<path d="M30.1,13.7V9.6H19.5v4.1h-8.8v2.2h2.6l1.9,24.5h19.2l1.9-24.5h3v-2.2C39.3,13.7,30.1,13.7,30.1,13.7z M27.9,11.8v1.9h-6.2
		v-1.9C21.7,11.8,27.9,11.8,27.9,11.8z M17.2,38.1l-1.7-22.2h18.6l-1.7,22.2H17.2z"/>
	<rect x="23.7" y="19.1" width="2.2" height="16"/>
	<rect x="21.2" y="26" transform="matrix(5.421528e-02 -0.9985 0.9985 5.421528e-02 0.6584 54.8148)" width="16" height="2.2"/>
	<rect x="19.2" y="19" transform="matrix(0.9985 -5.409198e-02 5.409198e-02 0.9985 -1.434 1.1376)" width="2.2" height="16"/>
</g>
</svg>
