<svg xmlns="http://www.w3.org/2000/svg" viewBox="0 0 69 69" width="69" height="69">
	<g id="Gruppe 529">
		<g id="Icon ionic-ios-wifi">
			<path id="Pfad 205" d="M33.98 25C29.26 25 24.54 26.95 21.15 30.12C20.96 30.29 20.95 30.58 21.13 30.78L22.68 32.39C22.86 32.58 23.16 32.59 23.35 32.41C24.7 31.16 26.24 30.16 27.94 29.46C29.86 28.66 31.89 28.26 33.99 28.26C36.08 28.26 38.12 28.66 40.03 29.46C41.73 30.17 43.27 31.16 44.62 32.41C44.81 32.59 45.12 32.58 45.29 32.39L46.84 30.78C47.02 30.59 47.02 30.3 46.82 30.12C43.42 26.95 38.7 25 33.98 25Z" />
			<path id="Pfad 206" d="M25.71 35.52L27.36 37.15C27.54 37.33 27.83 37.34 28.01 37.17C29.65 35.72 31.76 34.92 33.97 34.92C36.19 34.92 38.3 35.71 39.94 37.17C40.12 37.34 40.41 37.33 40.58 37.15L42.24 35.52C42.43 35.32 42.43 35.02 42.22 34.84C40.05 32.87 37.15 31.67 33.97 31.67C30.79 31.67 27.89 32.87 25.71 34.84C25.52 35.02 25.52 35.32 25.71 35.52Z" />
			<path id="Pfad 207" d="M33.98 38.22C32.62 38.22 31.4 38.79 30.54 39.7C30.36 39.88 30.37 40.17 30.55 40.35L33.64 43.4C33.83 43.59 34.13 43.59 34.32 43.4L37.41 40.35C37.59 40.17 37.6 39.88 37.42 39.7C36.56 38.79 35.34 38.22 33.98 38.22Z" />
		</g>
	</g>
</svg>
