<svg height="82" viewBox="0 0 82 82" width="82" xmlns="http://www.w3.org/2000/svg"><path d="m80.8511403 70.8771403-15.966-15.969c-.7226984-.7205781-1.7024526-1.1239216-2.723-1.121h-2.61c10.8268109-13.873445 8.989709-33.7761592-4.1936853-45.43336408-13.1833943-11.6572049-33.161308-11.0440683-45.60502754 1.39965124-12.44371954 12.44371954-13.05685614 32.42163324-1.39965124 45.60502754 11.65720488 13.1833943 31.55991908 15.0204962 45.43336408 4.1936853v2.61c-.0029216 1.0205474.4004219 2.0003016 1.121 2.723l15.969 15.966c.7185056.7226085 1.6954742 1.1289124 2.7145 1.1289124 1.0190257 0 1.9959943-.4063039 2.7145-1.1289124l4.532-4.532c1.4987268-1.5023507 1.504532-3.9325062.013-5.442zm-47.563-17.09c-11.3218374 0-20.5-9.1781627-20.5-20.5 0-11.3218374 9.1781626-20.5 20.5-20.5 11.3218373 0 20.5 9.1781626 20.5 20.5.0034517 5.4379955-2.155255 10.6542565-6.0004993 14.4995007-3.8452442 3.8452443-9.0615052 6.003951-14.4995007 6.0004993z"/></svg>