<svg xmlns="http://www.w3.org/2000/svg" viewBox="0 0 69 69" width="69" height="69">
	<g id="Gruppe 518">
		<path id="Icon ionic-md-book" fill-rule="evenodd" d="M48.54 25.51L48.54 41.69C48.54 43.07 47.48 43.85 46.04 44.18L34.77 46.3L23.5 44.19C22.06 43.86 21 43.07 21 41.7L21 25.51C21 24.14 22.06 22.8 23.5 23.02L34.77 25.14L46.04 23.02C47.48 22.8 48.54 24.14 48.54 25.51ZM46.04 25.51L36.03 27.63L36.03 43.81L46.04 41.69L46.04 25.51ZM33.51 27.63L23.5 25.51L23.5 41.69L33.51 43.81L33.51 27.63Z" />
	</g>
</svg>
