<svg height="139.771" viewBox="0 0 151.419 139.771" width="151.419" xmlns="http://www.w3.org/2000/svg"><g fill="#4cb4e7"><path d="m140.234 6.75h-14.559v8.736a2.92 2.92 0 0 1 -2.912 2.912h-5.824a2.92 2.92 0 0 1 -2.912-2.912v-8.736h-69.885v8.736a2.92 2.92 0 0 1 -2.912 2.914h-5.824a2.92 2.92 0 0 1 -2.912-2.912v-8.738h-14.559a14.6 14.6 0 0 0 -14.56 14.56v99a14.6 14.6 0 0 0 14.56 14.56h122.3a14.6 14.6 0 0 0 14.559-14.56v-99a14.6 14.6 0 0 0 -14.56-14.56zm2.912 109.2a7.3 7.3 0 0 1 -7.28 7.28h-113.566a7.3 7.3 0 0 1 -7.28-7.28v-65.521a2.92 2.92 0 0 1 2.912-2.912h122.3a2.92 2.92 0 0 1 2.912 2.912z" transform="translate(-3.375 4.898)"/><path d="m20.648 7.412a2.92 2.92 0 0 0 -2.912-2.912h-5.824a2.92 2.92 0 0 0 -2.912 2.912v8.736h11.648z" transform="translate(20.119 -4.5)"/><path d="m36.4 7.412a2.92 2.92 0 0 0 -2.914-2.912h-5.824a2.92 2.92 0 0 0 -2.912 2.912v8.736h11.65z" transform="translate(85.902 -4.5)"/></g><g transform="translate(52.433 65.97)"><circle cx="23.259" cy="23.259" fill="#ffc014" r="23.259"/><path d="m10.046 42.785h4.234v-8.992h8.469v-4.093h-8.469v-8.99h-4.234v8.99h-8.516v4.092h8.516z" fill="#fff" transform="translate(10.741 -8.439)"/></g></svg>