<svg height="94" viewBox="0 0 65 94" width="65" xmlns="http://www.w3.org/2000/svg"><path d="m17.4770601 82.6601152c.0015472 1.1451963.3406841 2.264522.975 3.218l3.109 4.674c1.0783705 1.6236149 2.8978955 2.5996341 4.847 2.6h11.227c1.9491045-.0003659 3.7686295-.9763851 4.847-2.6l3.109-4.674c.6345329-.9533757.9736901-2.0727684.975-3.218l.007-6.977h-29.105zm-17.47703014-50.642c-.01062959 7.7522695 2.80718941 15.2421569 7.92503014 21.065 3.006 3.43 7.707 10.594 9.5 16.638.007.047.013.095.02.142h29.155c.007-.047.013-.093.02-.142 1.792-6.044 6.493-13.209 9.5-16.638 9.3598806-10.7103411 10.530692-26.3119185 2.874145-38.2992476-7.656547-11.98732909-22.3041187-17.48538859-35.9573242-13.49681101-13.65320552 3.98857757-23.03685094 16.50717831-23.03685094 30.73105861zm32.02103014-14.555c-8.034621.0093679-14.5456321 6.520379-14.555 14.555 0 1.6077009-1.3032991 2.911-2.911 2.911s-2.911-1.3032991-2.911-2.911c.0126752-11.2486519 9.1283481-20.3643248 20.377-20.377 1.6077009 0 2.911 1.3032991 2.911 2.911s-1.3032991 2.911-2.911 2.911z"/></svg>