<svg width="15" height="16" fill="none" xmlns="http://www.w3.org/2000/svg"><path fill-rule="evenodd" clip-rule="evenodd" d="M3.102 11.803c0-.275.225-.5.5-.5h4.004c.275 0 .5.225.5.5s-.225.5-.5.5H3.602a.502.502 0 0 1-.5-.5Zm7.506-3.313c.276 0 .5.225.5.5s-.224.5-.5.5H3.602a.502.502 0 0 1-.5-.5c0-.275.225-.5.5-.5h7.006ZM3.602.99c.276 0 .5.21.5.469v1.406h6.006V1.46c0-.259.225-.469.5-.469.276 0 .5.21.5.469v1.406h1.002c1.104 0 2.002.84 2.002 1.875v9.375c0 1.034-.898 1.875-2.002 1.875H2.1C.995 15.99.1 15.15.1 14.115V4.74c0-1.035.896-1.875 2.002-1.875h1.001V1.46c0-.259.225-.469.5-.469Zm9.509 5.625H1.1v7.5c0 .519.447.938 1 .938H12.11c.553 0 1-.42 1-.938v-7.5ZM12.11 3.803H2.1c-.553 0-1 .419-1 .937v.938h12.01V4.74c0-.518-.448-.937-1.001-.937Z" fill="#fff"/></svg>
