<svg width="20" height="20" fill="none" xmlns="http://www.w3.org/2000/svg"><path d="M18.09 5c-.454 0-.87.162-1.195.43l-1.4-3.846A1.908 1.908 0 0 0 13.717.318a1.883 1.883 0 0 0-1.245.478C12.155.306 11.586 0 10.942 0a1.876 1.876 0 0 0-1.625.948 2.15 2.15 0 0 0-.208 1.082h-.054a1.866 1.866 0 0 0-1.625.948c-.192.332-.27.71-.242 1.08h-.055a1.874 1.874 0 0 0-1.828 1.469c-.084.368-.039.753.09 1.107l.039.104a.635.635 0 1 0 1.148-.532l-.031-.058a.622.622 0 0 1 .58-.838.48.48 0 0 1 .18.036c.338.134.6.01.685.013.45-.16.695-.64.531-1.086l-.054-.156a.621.621 0 0 1 .58-.838.66.66 0 0 1 .603.443l.508 1.395a.625.625 0 0 0 1.175-.428l-.947-2.6a.626.626 0 0 1 .583-.84c.266.001.509.186.603.444l1.582 4.344c.005.015.113.352.52.403.457.056.808-.407.65-.84L13.17 2.406a.625.625 0 0 1 .582-.839.66.66 0 0 1 .604.443l2.099 5.766a.54.54 0 0 0 1.045-.185V6.91c0-.311.213-.6.52-.65a.625.625 0 0 1 .73.617v5.011c0 .34.276.616.616.615h.019a.615.615 0 0 0 .613-.615L20 6.875C19.965 5.844 19.16 5 18.09 5Zm-4.063 2.965-4.37-1.45a1.82 1.82 0 0 0-.606-.1c-.785 0-1.493.495-1.762 1.233-.133.368-.144.75-.055 1.102H3.16c-.943 0-1.735.66-1.883 1.57-.058.309-.018.688.107 1a1.868 1.868 0 0 0-.938 3.019c.248.29.574.496.935.594a1.877 1.877 0 0 0 1.25 2.5 1.876 1.876 0 0 0 .315 1.905c.358.42.878.662 1.394.662h8.125c2.757 0 5-2.243 5-4.965V12.75c0-2.2-1.348-4.11-3.438-4.785ZM16.215 15a3.75 3.75 0 0 1-3.75 3.75H4.34a.625.625 0 0 1-.616-.73c.05-.308.338-.52.65-.52h3.09c.346 0 .626-.28.626-.59 0-.345-.28-.59-.625-.59H3.09a.625.625 0 0 1-.616-.73c.05-.307.338-.52.65-.52h4.34c.345 0 .624-.28.624-.59 0-.345-.28-.59-.625-.59H1.84a.625.625 0 0 1-.616-.73c.05-.307.338-.52.65-.52h5.59c.345 0 .624-.28.624-.59 0-.345-.28-.59-.625-.59H3.09a.625.625 0 0 1-.616-.73c.085-.515.373-.73.685-.73h7.02c.35 0 .434-.49.104-.607L8.836 8.88a.625.625 0 0 1 .428-1.175l4.406 1.45a3.75 3.75 0 0 1 2.578 3.562V15h-.033Z" fill="#fff"/></svg>
