<svg xmlns="http://www.w3.org/2000/svg" viewBox="0 0 69 69" width="69" height="69">
	<g id="Gruppe 519">
		<path id="Icon ionic-ios-globe" fill-rule="evenodd" d="M47.13 34.06C47.13 41.26 41.27 47.12 34.07 47.12C34.05 47.12 34.04 47.12 34.02 47.12C30.54 47.11 27.27 45.75 24.82 43.29C22.36 40.82 21 37.55 21 34.06C21 30.58 22.36 27.3 24.81 24.84C27.27 22.38 30.54 21.01 34.02 21C34.02 21 34.05 21 34.06 21C41.26 21 47.13 26.86 47.13 34.06ZM43.01 27.08C42 27.61 40.96 28.05 39.89 28.4C40.24 29.9 40.45 31.51 40.5 33.18L45.38 33.18C45.21 30.95 44.39 28.85 43.01 27.08ZM33.18 29.29C32.06 29.24 30.95 29.09 29.85 28.84C29.54 30.19 29.35 31.64 29.3 33.18L33.18 33.18L33.18 29.29ZM29.3 34.94C29.35 36.47 29.54 37.93 29.85 39.27C30.95 39.03 32.06 38.88 33.18 38.83L33.18 34.94L29.3 34.94ZM34.94 38.83C36.05 38.88 37.16 39.02 38.24 39.27C38.55 37.93 38.74 36.47 38.79 34.94L34.94 34.94L34.94 38.83ZM38.79 33.18C38.74 31.64 38.55 30.19 38.24 28.85C37.16 29.09 36.06 29.24 34.94 29.29L34.94 33.18L38.79 33.18ZM37.76 23.33C38.41 24.25 38.98 25.41 39.42 26.75C40.24 26.49 41.04 26.16 41.81 25.78C40.64 24.69 39.27 23.85 37.76 23.33ZM34.94 22.97L34.94 27.58C35.89 27.53 36.84 27.4 37.77 27.2C37.05 25.1 36.01 23.55 34.94 22.97ZM30.32 27.19C31.26 27.4 32.21 27.52 33.18 27.57L33.18 22.95C32.11 23.52 31.05 25.07 30.32 27.19ZM26.31 25.78C27.07 26.16 27.86 26.48 28.67 26.75C29.11 25.41 29.67 24.26 30.32 23.35C28.83 23.86 27.47 24.69 26.31 25.78ZM22.75 33.18L27.59 33.18C27.64 31.5 27.84 29.89 28.2 28.39C27.14 28.05 26.11 27.61 25.11 27.08C23.73 28.86 22.92 30.95 22.75 33.18ZM25.11 41.03C26.1 40.51 27.13 40.07 28.2 39.72C27.84 38.22 27.64 36.62 27.58 34.94L22.75 34.94C22.92 37.17 23.73 39.27 25.11 41.03ZM30.32 44.78C29.67 43.86 29.11 42.71 28.67 41.38C27.86 41.64 27.07 41.97 26.31 42.34C27.47 43.43 28.83 44.25 30.32 44.78ZM33.18 45.18L33.18 40.54C32.22 40.59 31.26 40.72 30.32 40.92C31.05 43.05 32.1 44.6 33.18 45.18ZM37.77 40.91C36.84 40.71 35.89 40.58 34.94 40.53L34.94 45.15C36.01 44.57 37.05 43.02 37.77 40.91ZM41.82 42.35C41.05 41.97 40.25 41.63 39.43 41.37C38.98 42.71 38.42 43.88 37.77 44.79C39.27 44.27 40.65 43.44 41.82 42.35ZM45.38 34.94L40.5 34.94C40.45 36.62 40.24 38.22 39.89 39.72C40.96 40.06 42 40.5 43.01 41.04C44.4 39.27 45.21 37.17 45.38 34.94Z" />
	</g>
</svg>
