<svg height="102" viewBox="0 0 102 102" width="102" xmlns="http://www.w3.org/2000/svg"><path d="m99.1711889 28.2940287-9.183 9.183c-.448847.4493213-1.0578989.7017874-1.693.7017874-.635101 0-1.244153-.2524661-1.693-.7017874l-22.108-22.115c-.4493213-.448847-.7017874-1.057899-.7017874-1.693 0-.6351011.2524661-1.244153.7017874-1.693l9.18-9.18200005c3.739127-3.72537154 9.7868731-3.72537154 13.526 0l11.971 11.97100005c1.7990841 1.7913847 2.8104481 4.2256494 2.8104481 6.7645 0 2.5388505-1.011364 4.9731152-2.8104481 6.7645zm-42.568-8.43-52.30899995 52.31-4.223 24.202c-.26766788 1.5353977.22889068 3.1049803 1.33095515 4.2070443 1.10206448 1.102065 2.67164714 1.598624 4.20704485 1.330956l24.19999995-4.2430003 52.311-52.309c.4493214-.448847.7017875-1.057899.7017875-1.693 0-.6351011-.2524661-1.244153-.7017875-1.693l-22.111-22.112c-.9424902-.9358232-2.4635097-.9358232-3.406 0zm-31.892 47.83c-.5259245-.5214536-.8217647-1.2313851-.8217647-1.972 0-.740615.2958402-1.4505465.8217647-1.972l30.677-30.679c.701873-.7175856 1.735211-1.0026568 2.7057305-.7464411.9705196.2562157 1.7284949 1.014191 1.9847106 1.9847106.2562157.9705195-.0288555 2.0038575-.7464411 2.7057305l-30.677 30.679c-.5214535.5259245-1.231385.8217647-1.972.8217647-.7406149 0-1.4505464-.2958402-1.972-.8217647zm-7.191 16.75h9.561v7.231l-12.847 2.251-6.19999995-6.2 2.25999995-12.843h7.231z"/></svg>