<svg xmlns="http://www.w3.org/2000/svg" viewBox="0 0 69 69" width="69" height="69">
	<g id="Gruppe 521">
		<path id="Icon ionic-ios-leaf" fill-rule="evenodd" d="M45.02 43.31C45.02 43.31 43.9 43.24 41.62 42.53C41.62 42.53 40.75 43.81 39.5 44.39C38.12 45.03 33.09 46.22 28.82 42.33C22.98 36.99 22.35 22.91 23.44 24.07C28.1 29.01 34.09 26.65 38.03 29.9C40.99 32.34 43.08 36.57 42.22 40.63C42.22 40.63 42.43 40.83 45.28 41.27C46.23 41.42 45.83 43.41 45.02 43.31ZM40.77 40.35C36.14 38.81 32.53 36.37 30.16 34.42C29.95 34.25 29.66 34.55 29.86 34.75C32.26 37.23 35.97 40.4 40.24 41.68C40.52 41.43 40.78 40.79 40.77 40.35Z" />
	</g>
</svg>
