<svg xmlns="http://www.w3.org/2000/svg" viewBox="0 0 69 69" width="69" height="69">
	<path id="Icon material-lightbulb-outline" fill-rule="evenodd" d="M30.42 45.37L38.54 45.37L38.54 46.73C38.54 47.47 37.93 48.08 37.19 48.08L31.77 48.08C31.03 48.08 30.42 47.47 30.42 46.73L30.42 45.37ZM34.48 21C39.71 21 43.96 25.25 43.96 30.48C43.96 33.7 42.35 36.53 39.9 38.25L39.9 41.31C39.9 42.06 39.29 42.67 38.54 42.67L30.42 42.67C29.67 42.67 29.06 42.06 29.06 41.31L29.06 38.25C26.61 36.53 25 33.7 25 30.48C25 25.25 29.25 21 34.48 21ZM41.25 30.48C41.25 26.74 38.22 23.71 34.48 23.71C30.74 23.71 27.71 26.74 27.71 30.48C27.71 32.69 28.79 34.76 30.62 36.03L31.77 36.84L31.77 39.96L37.19 39.96L37.19 36.84L38.34 36.03C40.17 34.76 41.25 32.69 41.25 30.48Z" />
</svg>
