<svg xmlns="http://www.w3.org/2000/svg" viewBox="0 0 69 69" width="69" height="69">
	<g id="Gruppe 520">
		<path id="Icon ionic-ios-git-network" fill-rule="evenodd" d="M46.28 25.29C46.28 27.32 44.85 29.06 42.9 29.47L42.9 32.95C42.9 33.12 42.81 33.26 42.66 33.34L35.54 37.02L35.54 39.68C36.43 39.87 37.25 40.35 37.86 41.05C38.54 41.83 38.92 42.83 38.92 43.87C38.92 46.23 37 48.16 34.64 48.16C32.28 48.16 30.36 46.23 30.36 43.87C30.36 41.84 31.78 40.1 33.74 39.68L33.74 37.02L26.61 33.34C26.47 33.26 26.38 33.12 26.38 32.95L26.38 29.47C25.49 29.29 24.67 28.81 24.06 28.11C23.38 27.33 23 26.32 23 25.29C23 22.92 24.93 21 27.29 21C29.64 21 31.57 22.92 31.57 25.29C31.57 27.32 30.14 29.06 28.19 29.47L28.19 32.09L34.64 35.44L41.09 32.09L41.09 29.47C40.2 29.29 39.38 28.81 38.78 28.11C38.09 27.33 37.72 26.32 37.72 25.29C37.72 22.92 39.64 21 42 21C44.36 21 46.28 22.92 46.28 25.29ZM27.28 27.76C28.64 27.76 29.75 26.65 29.75 25.29C29.75 23.92 28.64 22.81 27.28 22.81C25.92 22.81 24.81 23.92 24.81 25.29C24.81 26.65 25.92 27.76 27.28 27.76ZM34.64 41.4C33.27 41.4 32.17 42.51 32.17 43.87C32.17 45.23 33.27 46.34 34.64 46.34C36 46.34 37.11 45.23 37.11 43.87C37.11 42.51 36 41.4 34.64 41.4ZM44.47 25.29C44.47 23.93 43.36 22.82 42 22.82C40.63 22.82 39.52 23.93 39.52 25.29C39.52 26.66 40.63 27.76 42 27.76C43.36 27.76 44.47 26.65 44.47 25.29Z" />
	</g>
</svg>
