<svg xmlns="http://www.w3.org/2000/svg" width="48" height="48" viewBox="0 0 48 48">
  <g transform="matrix(2,0,0,2,0,0)">
    <g>
      <path d="M 9.4882812 6.5 A 0.50005 0.50005 0 0 0 8.9804688 7 L 8.9804688 10.5 L 8.9804688 14 A 0.50005 0.50005 0 0 0 9.7167969 14.439453 L 16.216797 10.939453 A 0.50005 0.50005 0 0 0 16.216797 10.060547 L 9.7167969 6.5605469 A 0.50005 0.50005 0 0 0 9.4882812 6.5 z M 9.9804688 7.8378906 L 14.925781 10.5 L 9.9804688 13.162109 L 9.9804688 10.5 L 9.9804688 7.8378906 z " />
      <path d="M 2.4804688 2 C 1.1041174 2 -0.01953125 3.1236486 -0.01953125 4.5 L -0.01953125 16.5 C -0.01953125 17.876351 1.1041174 19 2.4804688 19 L 21.519531 19 C 22.895883 19 24.019531 17.876351 24.019531 16.5 L 24.019531 4.5 C 24.019531 3.1236486 22.895883 2 21.519531 2 L 2.4804688 2 z M 2.4804688 3 L 21.519531 3 C 22.35918 3 23.019531 3.6603514 23.019531 4.5 L 23.019531 16.5 C 23.019531 17.339649 22.35918 18 21.519531 18 L 2.4804688 18 C 1.6408201 18 0.98046875 17.339649 0.98046875 16.5 L 0.98046875 4.5 C 0.98046875 3.6603514 1.6408201 3 2.4804688 3 z " />
      <path d="M 4.4804688 21 A 0.5 0.5 0 0 0 3.9804688 21.5 A 0.5 0.5 0 0 0 4.4804688 22 L 11.980469 22 L 19.480469 22 A 0.5 0.5 0 0 0 19.980469 21.5 A 0.5 0.5 0 0 0 19.480469 21 L 11.980469 21 L 4.4804688 21 z " />
    </g>
  </g>
</svg>
