<?xml version="1.0" encoding="utf-8"?>
<!-- Generator: Adobe Illustrator 24.0.3, SVG Export Plug-In . SVG Version: 6.00 Build 0)  -->
<svg version="1.1" id="Ebene_1" xmlns="http://www.w3.org/2000/svg" xmlns:xlink="http://www.w3.org/1999/xlink" x="0px" y="0px"
	 viewBox="0 0 20 22" style="enable-background:new 0 0 20 22;" xml:space="preserve">

<path id="Icon_simple-xing" d="M15,2.6c-0.3,0-0.6,0.2-0.7,0.5c0,0-5.5,9.7-5.6,10l3.6,6.6c0.1,0.3,0.4,0.5,0.7,0.5h2.6
	c0.2,0,0.3-0.1,0.3-0.2c0.1-0.1,0.1-0.3,0-0.4l-3.6-6.5l0,0l5.6-9.9c0.1-0.1,0.1-0.3,0-0.4c-0.1-0.1-0.2-0.2-0.3-0.2
	C17.6,2.6,15,2.6,15,2.6z M4.3,6.1c-0.1,0-0.3,0-0.3,0.2C3.9,6.3,3.9,6.5,4,6.7l1.7,3l0,0l-2.7,4.8c-0.1,0.1-0.1,0.3,0,0.4
	C3,15,3.1,15,3.3,15h2.6c0.3,0,0.6-0.2,0.7-0.5l2.7-4.9L7.6,6.6C7.5,6.3,7.2,6.1,6.9,6.1H4.3L4.3,6.1z"/>
</svg>
