<svg xmlns="http://www.w3.org/2000/svg" viewBox="0 0 98 55" width="98" height="55">
	<path id="Icon simple-deezer" d="M57.97 48.26L72.1 48.26L72.1 43.98L57.96 43.98L57.96 48.26L57.97 48.26ZM26.27 48.26L40.4 48.26L40.4 43.98L26.27 43.98L26.27 48.26L26.28 48.26L26.27 48.26ZM10.42 48.26L24.56 48.26L24.56 43.98L10.42 43.98L10.42 48.26L10.42 48.26ZM42.12 48.26L56.27 48.26L56.27 43.98L42.12 43.98L42.12 48.26ZM73.82 48.26L87.96 48.26L87.96 43.98L73.82 43.98L73.82 48.26ZM73.82 42.69L87.96 42.69L87.96 38.43L73.82 38.43L73.82 42.76L73.82 42.72L73.82 42.69ZM42.12 42.69L56.3 42.69L56.3 38.43L42.12 38.43L42.12 42.76L42.12 42.72L42.12 42.69ZM10.43 42.69L24.58 42.69L24.58 38.43L10.42 38.43L10.42 42.76L10.42 42.72L10.43 42.69ZM26.29 42.69L40.44 42.69L40.44 38.43L26.28 38.43L26.28 42.76L26.29 42.72L26.29 42.69ZM58.05 42.69L72.2 42.69L72.2 38.43L57.98 38.43L57.98 42.76L58.04 42.72L58.05 42.69ZM58.05 37.14L72.2 37.14L72.2 32.87L57.98 32.87L57.98 37.17L58.04 37.17L58.05 37.14ZM26.37 37.14L40.45 37.14L40.45 32.87L26.28 32.87L26.28 37.17L26.34 37.17L26.37 37.14ZM10.52 37.14L24.6 37.14L24.6 32.87L10.42 32.87L10.42 37.17L10.47 37.17L10.52 37.14ZM42.21 37.14L56.36 37.14L56.36 32.87L42.15 32.87L42.15 37.17L42.2 37.17L42.21 37.14ZM73.95 37.14L87.96 37.14L87.96 32.87L73.82 32.87L73.82 37.17L73.91 37.17L73.95 37.14ZM73.95 31.58L87.96 31.58L87.96 27.28L73.82 27.28L73.82 31.56L73.91 31.56L73.95 31.58ZM42.26 31.58L56.36 31.58L56.36 27.28L42.14 27.28L42.14 31.56L42.25 31.56L42.26 31.58ZM10.57 31.58L24.64 31.58L24.64 27.28L10.42 27.28L10.42 31.56L10.52 31.56L10.57 31.58ZM58.16 31.58L72.31 31.58L72.31 27.28L57.99 27.28L57.99 31.56L58.14 31.56L58.16 31.58ZM58.16 26.02L72.31 26.02L72.31 21.72L57.99 21.72L57.99 25.99L58.14 25.99L58.16 26.02ZM10.57 26.02L24.64 26.02L24.64 21.76L10.42 21.76L10.42 26.02L10.52 26.02L10.57 26.02ZM42.26 26.02L56.41 26.02L56.41 21.76L42.12 21.76L42.12 26.02L42.22 26.02L42.26 26.02ZM73.95 26.02L87.96 26.02L87.96 21.72L73.82 21.72L73.82 26.02L73.91 26.01L73.95 26.02ZM42.12 20.43L56.27 20.43L56.27 16.15L42.12 16.15L42.12 20.43ZM73.82 20.42L87.96 20.42L87.96 16.14L73.82 16.14L73.82 20.42L73.82 20.42ZM42.12 14.86L56.27 14.86L56.27 10.57L42.12 10.57L42.12 14.86L42.12 14.86ZM73.82 14.86L87.96 14.86L87.96 10.57L73.82 10.57L73.82 14.86L73.82 14.86ZM73.82 9.28L87.96 9.28L87.96 5L73.82 5L73.82 9.28Z" />
</svg>
