<svg xmlns="http://www.w3.org/2000/svg" width="19.585" height="15.497"><g fill="#000000"><path d="M2.792 0A2.517 2.517 0 00.294 2.498a.75.75 0 000 .002v10.496a.75.75 0 000 .002A2.517 2.517 0 002.788 15.5a.75.75 0 00.002 0h14a.75.75 0 00.002 0 2.516 2.516 0 002.502-2.498.75.75 0 000-.002V2.5a.75.75 0 000-.002A2.517 2.517 0 0016.796 0a.75.75 0 00-.002 0h-14a.75.75 0 00-.002 0zm.002 1.5h14c.56.003.997.44 1 1V13a.994.994 0 01-1.004 1H2.794a.994.994 0 01-1-1.004V2.5a.994.994 0 011-1z" overflow="visible"/><path d="M1.065 1.75a.75.75 0 00-.636.32.75.75 0 00.185 1.045l8.752 6.123a.75.75 0 00.86 0l8.748-6.123a.75.75 0 00.185-1.045.75.75 0 00-1.045-.185L9.796 7.709 1.474 1.885a.75.75 0 00-.409-.135z" overflow="visible"/></g></svg>
