<?xml version="1.0" encoding="utf-8"?>
<!-- Generator: Adobe Illustrator 24.0.3, SVG Export Plug-In . SVG Version: 6.00 Build 0)  -->
<svg version="1.1" id="Ebene_1" xmlns="http://www.w3.org/2000/svg" xmlns:xlink="http://www.w3.org/1999/xlink" x="0px" y="0px"
	 viewBox="0 0 20 22" style="enable-background:new 0 0 20 22;" xml:space="preserve">

<path id="Icon_simple-instagram" d="M10,2C7.6,2,7.2,2,6.3,2.1c-0.7,0-1.5,0.2-2.2,0.4C3.5,2.7,3,3.1,2.5,3.5
	c-0.5,0.4-0.8,1-1,1.6C1.2,5.8,1.1,6.5,1.1,7.3C1,8.2,1,8.6,1,11s0,2.8,0.1,3.7c0,0.7,0.2,1.5,0.4,2.2c0.2,0.6,0.6,1.1,1,1.6
	c0.4,0.5,1,0.8,1.6,1c0.7,0.3,1.4,0.4,2.2,0.4c1,0,1.3,0.1,3.7,0.1s2.8,0,3.7-0.1c0.7,0,1.5-0.2,2.2-0.4c1.2-0.5,2.2-1.4,2.6-2.6
	c0.3-0.7,0.4-1.4,0.4-2.2c0-1,0.1-1.3,0.1-3.7s0-2.8-0.1-3.7c0-0.7-0.2-1.5-0.4-2.2c-0.2-0.6-0.6-1.1-1-1.6c-0.4-0.5-1-0.8-1.6-1
	c-0.7-0.3-1.4-0.4-2.2-0.4C12.8,2,12.4,2,10,2z M10,3.6c2.4,0,2.7,0,3.6,0.1c0.6,0,1.1,0.1,1.7,0.3c0.8,0.3,1.4,0.9,1.7,1.7
	c0.2,0.5,0.3,1.1,0.3,1.7c0,1,0.1,1.2,0.1,3.6s0,2.7-0.1,3.6c0,0.6-0.1,1.1-0.3,1.7c-0.1,0.4-0.4,0.7-0.7,1c-0.3,0.3-0.6,0.5-1,0.7
	c-0.5,0.2-1.1,0.3-1.7,0.3c-1,0-1.2,0.1-3.6,0.1s-2.7,0-3.6-0.1c-0.6,0-1.1-0.1-1.7-0.3c-0.4-0.1-0.7-0.4-1-0.7
	c-0.3-0.3-0.5-0.6-0.7-1c-0.2-0.5-0.3-1.1-0.3-1.7c0-0.9,0-1.2,0-3.6s0-2.7,0-3.6c0-0.6,0.1-1.1,0.3-1.7c0.1-0.4,0.4-0.7,0.7-1
	c0.3-0.3,0.6-0.5,1-0.7c0.5-0.2,1.1-0.3,1.7-0.3C7.3,3.6,7.6,3.6,10,3.6L10,3.6z M10,6.4c-2.6,0-4.6,2.1-4.6,4.6s2.1,4.6,4.6,4.6
	c2.6,0,4.6-2.1,4.6-4.6C14.6,8.4,12.6,6.4,10,6.4C10,6.4,10,6.4,10,6.4z M10,14c-1.7,0-3-1.3-3-3s1.3-3,3-3s3,1.3,3,3S11.7,14,10,14
	z M15.9,6.2c0,0.6-0.5,1.1-1.1,1.1c-0.6,0-1.1-0.5-1.1-1.1c0-0.6,0.5-1.1,1.1-1.1C15.4,5.1,15.9,5.6,15.9,6.2
	C15.9,6.2,15.9,6.2,15.9,6.2L15.9,6.2z"/>
</svg>
