<svg xmlns="http://www.w3.org/2000/svg" viewBox="0 0 32 32"><path d="M14.205 19.094c-.333 0-.666-.127-.92-.38a6.106 6.106 0 010-8.627l4.802-4.8A6.062 6.062 0 0122.4 3.5c1.63 0 3.162.634 4.315 1.786a6.106 6.106 0 010 8.627l-2.195 2.195a1.3 1.3 0 11-1.839-1.839l2.195-2.194a3.503 3.503 0 000-4.95A3.479 3.479 0 0022.401 6.1a3.48 3.48 0 00-2.475 1.025l-4.801 4.8a3.503 3.503 0 000 4.95 1.3 1.3 0 01-.92 2.22z" /><path d="M9.599 28.5a6.062 6.062 0 01-4.315-1.786 6.106 6.106 0 010-8.627l2.195-2.195a1.3 1.3 0 111.839 1.839l-2.195 2.194a3.503 3.503 0 000 4.95c.66.66 1.54 1.025 2.476 1.025a3.48 3.48 0 002.475-1.025l4.801-4.8a3.503 3.503 0 000-4.95 1.3 1.3 0 111.84-1.838 6.106 6.106 0 010 8.626l-4.802 4.8A6.062 6.062 0 019.6 28.5z" /></svg>
