<?xml version="1.0" encoding="utf-8"?>
<!-- Generator: Adobe Illustrator 24.0.3, SVG Export Plug-In . SVG Version: 6.00 Build 0)  -->
<svg version="1.1" id="Ebene_1" xmlns="http://www.w3.org/2000/svg" xmlns:xlink="http://www.w3.org/1999/xlink" x="0px" y="0px"
	 viewBox="0 0 20 22" style="enable-background:new 0 0 20 22;" xml:space="preserve">

<path id="Icon_simple-youtube" d="M19.3,6.3c-0.2-0.8-0.9-1.5-1.7-1.7C16.1,4.2,10,4.2,10,4.2s-6.1,0-7.6,0.4
	C1.6,4.9,0.9,5.5,0.7,6.3C0.4,7.9,0.3,9.4,0.3,11c0,1.6,0.1,3.1,0.4,4.7c0.2,0.8,0.9,1.5,1.7,1.7c1.5,0.4,7.6,0.4,7.6,0.4
	s6.1,0,7.6-0.4c0.8-0.2,1.5-0.9,1.7-1.7c0.3-1.5,0.4-3.1,0.4-4.7C19.7,9.4,19.6,7.9,19.3,6.3L19.3,6.3z M8.1,13.9V8.1l5.1,2.9
	L8.1,13.9z"/>
</svg>
