<svg xmlns="http://www.w3.org/2000/svg" viewBox="0 0 75 90" width="75" height="90">
	<g id="Icon ionic-logo-apple">
		<path id="Pfad 113" d="M50.73 26.53C44.93 26.53 42.48 29.37 38.43 29.37C34.29 29.37 31.13 26.54 26.1 26.54C21.18 26.54 15.93 29.63 12.6 34.9C7.92 42.33 8.72 56.31 16.3 68.23C19.01 72.49 22.63 77.28 27.38 77.33C27.42 77.33 27.43 77.33 27.47 77.33C31.6 77.33 32.82 74.55 38.5 74.52C38.54 74.52 38.56 74.52 38.59 74.52C44.19 74.52 45.31 77.31 49.42 77.31C49.45 77.31 49.47 77.31 49.5 77.31C54.25 77.26 58.07 71.96 60.78 67.71C62.73 64.65 63.46 63.12 64.96 59.66C53.99 55.38 52.23 39.39 63.08 33.26C59.76 28.99 55.12 26.53 50.73 26.53L50.73 26.53Z" />
		<path id="Pfad 114" d="M49.45 11C46 11.24 41.97 13.5 39.61 16.46C37.47 19.13 35.71 23.11 36.4 26.96C36.48 26.96 36.57 26.96 36.67 26.96C40.35 26.96 44.12 24.68 46.31 21.76C48.43 18.98 50.04 15.04 49.45 11L49.45 11Z" />
	</g>
</svg>
