<?xml version="1.0" encoding="utf-8"?>
<!-- Generator: Adobe Illustrator 24.0.3, SVG Export Plug-In . SVG Version: 6.00 Build 0)  -->
<svg version="1.1" id="Ebene_1" xmlns="http://www.w3.org/2000/svg" xmlns:xlink="http://www.w3.org/1999/xlink" x="0px" y="0px"
	 viewBox="0 0 20 22" style="enable-background:new 0 0 20 22;" xml:space="preserve">

<path id="Icon_simple-twitter" d="M18.8,5.8c-0.6,0.3-1.3,0.4-1.9,0.5c0.7-0.4,1.2-1.1,1.5-1.9
	c-0.7,0.4-1.4,0.7-2.2,0.8c-1.3-1.3-3.5-1.3-4.8-0.1c-0.7,0.6-1.1,1.6-1.1,2.5c0,0.3,0,0.5,0.1,0.8C7.6,8.2,5,6.9,3.3,4.7
	C2.9,5.4,2.8,6,2.8,6.6c0,1.1,0.5,2.2,1.5,2.8C3.7,9.4,3.2,9.2,2.7,9l0,0c0,1.7,1.1,3.1,2.7,3.3c-0.5,0.2-1.1,0.2-1.6,0.1
	c0.4,1.4,1.8,2.4,3.2,2.4c-1.1,1-2.6,1.5-4.1,1.5c-0.3,0-0.5,0-0.8,0c1.6,1,3.4,1.5,5.3,1.5c5.4,0,9.7-4.2,9.8-9.6
	c0-0.1,0-0.1,0-0.2c0-0.2,0-0.3,0-0.4C17.7,7.1,18.3,6.5,18.8,5.8L18.8,5.8L18.8,5.8z"/>
</svg>
