<?xml version="1.0" encoding="utf-8"?>
<!-- Generator: Adobe Illustrator 24.0.3, SVG Export Plug-In . SVG Version: 6.00 Build 0)  -->
<svg version="1.1" id="Ebene_1" xmlns="http://www.w3.org/2000/svg" xmlns:xlink="http://www.w3.org/1999/xlink" x="0px" y="0px"
	 viewBox="0 0 20 22" style="enable-background:new 0 0 20 22;" xml:space="preserve">

<path id="Icon_zocial-linkedin" d="M2.3,5c0-0.4,0.2-0.9,0.5-1.2c0.3-0.3,0.9-0.5,1.4-0.5s0.9,0.2,1.3,0.5
	C5.8,4.2,6.1,4.6,6,5.1C6,5.6,5.8,6,5.5,6.3C5.1,6.6,4.7,6.8,4.2,6.7l0,0c-0.5,0.1-1-0.2-1.4-0.4C2.5,6,2.3,5.6,2.3,5z M2.5,18V8.1
	h3.2V18H2.5z M7.6,18h3.2v-5.5c0-0.3,0-0.5,0.1-0.8c0.2-0.3,0.3-0.6,0.6-0.9c0.3-0.3,0.7-0.3,1-0.3c1.1,0,1.6,0.8,1.6,2.2V18h3.5
	v-5.6c0.1-1.2-0.3-2.4-1-3.3c-0.7-0.8-1.7-1.2-2.7-1.1c-1.2,0-2.4,0.6-3,1.6l0,0l0,0l0,0V8.1H7.6c0,0.3,0,1.3,0,2.9S7.6,15,7.6,18
	L7.6,18z"/>
</svg>
