<svg xmlns="http://www.w3.org/2000/svg" viewBox="0 0 95 95" width="95" height="95">
	<path id="Icon simple-spotify" fill-rule="evenodd" d="M82.96 45.98C82.96 66.32 66.32 82.96 45.98 82.96C25.64 82.96 9 66.32 9 45.98C9 25.64 25.64 9 45.98 9C66.5 9 82.96 25.64 82.96 45.98ZM62.07 59.29C52.45 53.38 40.25 52.08 26.2 55.22C25.09 55.59 24.16 56.7 24.53 58C24.9 59.11 26.01 60.03 27.3 59.66C40.25 56.7 51.16 57.81 59.85 63.17C60.96 63.91 62.25 63.54 62.99 62.44C63.54 61.32 63.36 59.85 62.07 59.29ZM67.43 52.27C68.35 50.97 67.8 49.13 66.69 48.57C55.22 41.55 38.58 39.51 25.09 43.57C23.61 43.94 22.87 45.61 23.24 47.09C23.61 48.57 25.27 49.31 26.75 48.94C38.4 45.24 53.56 47.09 63.54 53.19C64.84 54.11 66.5 53.56 67.43 52.27ZM72.6 40.99C73.53 39.32 72.97 37.1 71.31 36.18C57.63 28.04 36 27.3 22.87 31.18C21.2 31.74 20.09 33.59 20.65 35.44C21.2 37.1 23.05 38.21 24.9 37.66C36.18 34.15 55.96 34.89 67.8 41.91C69.46 42.83 71.68 42.28 72.6 40.99Z" />
</svg>
