<svg xmlns="http://www.w3.org/2000/svg" viewBox="0 0 92 84" width="92" height="84">
	<path id="Icon simple-amazon" fill-rule="evenodd" d="M10 59.59C10.21 59.25 10.56 59.22 11.04 59.53C21.91 65.84 33.75 69 46.54 69C55.06 69 63.49 67.4 71.8 64.23L72.74 63.81C73.15 63.63 73.44 63.51 73.61 63.42C74.29 63.16 74.78 63.28 75.18 63.81C75.54 64.33 75.45 64.81 74.83 65.24C74.06 65.81 73.03 66.47 71.82 67.2C68.1 69.42 63.92 71.13 59.3 72.36C54.73 73.57 50.2 74.19 45.8 74.19C39.02 74.19 32.61 73 26.55 70.64C20.51 68.26 15.13 64.92 10.31 60.62C10.01 60.4 9.87 60.17 9.87 59.96C9.87 59.82 9.93 59.69 10.01 59.57L10 59.59ZM29.63 41C29.63 37.99 30.37 35.43 31.85 33.29C33.33 31.17 35.35 29.55 37.95 28.46C40.33 27.46 43.2 26.74 46.66 26.31C47.83 26.17 49.75 26 52.4 25.79L52.4 24.68C52.4 21.9 52.09 20.02 51.51 19.08C50.6 17.79 49.17 17.13 47.2 17.13L46.65 17.13C45.22 17.27 43.98 17.72 42.93 18.51C41.88 19.31 41.21 20.39 40.91 21.78C40.73 22.68 40.29 23.18 39.61 23.31L32.07 22.37C31.33 22.19 30.96 21.83 30.96 21.2C30.96 21.06 30.98 20.93 31.03 20.75C31.76 16.9 33.58 14.02 36.47 12.14C39.39 10.3 42.75 9.22 46.61 9L48.22 9C53.16 9 57.06 10.3 59.85 12.86C60.25 13.31 60.66 13.76 61.06 14.29C61.42 14.79 61.73 15.23 61.91 15.64C62.13 16.04 62.36 16.63 62.49 17.34C62.67 18.1 62.8 18.6 62.89 18.87C62.98 19.18 63.08 19.77 63.12 20.71C63.15 21.64 63.18 22.18 63.18 22.36L63.18 38.15C63.18 39.28 63.36 40.31 63.67 41.25C63.99 42.19 64.3 42.87 64.62 43.27L66.14 45.28C66.41 45.69 66.55 46.05 66.55 46.36C66.55 46.72 66.37 47.03 66.01 47.3C62.42 50.44 60.45 52.14 60.14 52.41C59.65 52.81 59.02 52.86 58.26 52.55C57.67 52.05 57.13 51.55 56.68 51.06L55.76 50.02C55.58 49.8 55.26 49.4 54.81 48.77L53.91 47.47C51.49 50.12 49.12 51.77 46.73 52.45C45.26 52.9 43.46 53.13 41.26 53.13C37.94 53.13 35.16 52.1 33.01 50.03C30.85 47.97 29.78 45.05 29.78 41.24L29.63 41.01L29.63 41ZM40.85 39.69C40.85 41.38 41.27 42.74 42.12 43.77C42.98 44.79 44.14 45.3 45.58 45.3C45.71 45.3 45.9 45.28 46.16 45.24C46.43 45.19 46.56 45.17 46.66 45.17C48.49 44.69 49.89 43.52 50.92 41.65C51.41 40.81 51.77 39.91 51.99 38.93C52.26 37.97 52.35 37.16 52.4 36.53C52.44 35.95 52.44 34.92 52.44 33.53L52.44 31.91C49.93 31.91 48 32.09 46.7 32.45C42.89 33.53 40.96 35.95 40.96 39.72L40.85 39.66L40.85 39.69ZM68.25 60.7C68.34 60.52 68.48 60.37 68.65 60.2C69.73 59.47 70.78 58.97 71.79 58.7C73.43 58.3 75.05 58.04 76.61 57.98C77.03 57.95 77.45 57.98 77.83 58.07C79.78 58.25 80.97 58.57 81.34 59.06C81.53 59.33 81.61 59.74 81.61 60.23L81.61 60.67C81.61 62.2 81.19 63.99 80.37 66.06C79.54 68.12 78.38 69.79 76.91 71.08C76.69 71.26 76.49 71.35 76.32 71.35C76.23 71.35 76.14 71.35 76.05 71.31C75.78 71.18 75.73 70.96 75.86 70.6C77.48 66.83 78.27 64.19 78.27 62.7C78.27 62.25 78.18 61.89 78.01 61.67C77.58 61.18 76.37 60.9 74.35 60.9C73.62 60.9 72.76 60.95 71.75 61.04C70.66 61.18 69.66 61.31 68.76 61.45C68.49 61.45 68.32 61.4 68.22 61.31C68.13 61.22 68.11 61.17 68.16 61.08C68.16 61.03 68.18 60.99 68.22 60.9L68.22 60.72L68.25 60.7Z" />
</svg>
