<svg xmlns="http://www.w3.org/2000/svg" width="702.4" height="123.16"><path d="M130.685 56.192c10.822 0 15.75-4.272 15.75-16.175 0-10.785-5.855-15.323-15.325-15.323h-7.235v31.498h6.81zm2.8-44.266c17.028 0 27.848 10.197 27.848 28.091 0 18.693-10.82 28.946-27.529 28.946h-24.828V11.926h24.51M184.319 11.924v57.039H169.42v-57.04h14.899M245.613 31.504h-14.898c-.556-4.805-5.163-8.047-11.199-8.047-8.499 0-13.184 7.05-13.184 16.981 0 10.092 4.607 16.98 13.263 16.98 6.91 0 11.993-3.203 12.946-8.65h-10.325l-.015-10.879h23.838v31.074h-9.364l-1.036-6.178c-3.098 4.566-9.372 7.45-15.804 7.45-16.682 0-28.276-12.657-28.276-29.797 0-16.66 11.04-29.796 28.276-29.796 12.229 0 24.428 6.606 25.778 20.862M269.875 11.926v57.037h-14.898V11.926h14.898M321.38 11.924v12.77h-14.899v44.269h-14.897v-44.27H276.26v-12.77h45.12M337.13 47.678h13.195l-6.385-20.005h-.425l-6.386 20.005zm14.046-35.754l21.283 57.039h-15.324l-3.406-10.217h-20.005l-3.405 10.217h-15.324l21.282-57.04h14.899M392.039 11.924l.001 44.268h25.539v12.77H377.14V11.925h14.898" fill="#ffffff"/><path d="M7.662.005v11.919h57.037V.004H7.662zm49.376 23.837v7.662l7.661-7.662h-7.661zM20.431 35.761L2.554 53.638l8.513 8.513 26.39-26.39H20.432zm36.607 12.77v8.512h7.661V40.868l-7.661 7.662" fill="#ec008c"/><path d="M64.7 11.924v28.944l8.513-8.513v36.608h11.918v-57.04H64.7zm-36.607 0v11.918h4.257l11.919-11.918H28.093zm21.284 11.918h3.405v-3.405l-3.405 3.405zM25.114 63.428l8.513 8.514 11.492-11.493V43.423L25.114 63.428" fill="#ffffff"/><path d="M44.269 11.924L32.35 23.842h17.027l3.405-3.405v3.405h11.917V11.924H44.27" fill="#791e8e"/><path d="M49.377 23.842L0 73.218l7.661 7.663 45.12-45.12V23.842h-3.405zM0 23.842v11.919h20.43L32.35 23.842H0zM45.119 60.45V80.88h11.919V57.043h-4.256v-4.257l-7.663 7.663" fill="#f8de1c"/><path d="M52.782 23.842v11.919l4.256-4.257v-7.662h-4.256zm-20.432 0L20.431 35.761h17.027l11.919-11.919H32.35zM57.038 48.53l-4.256 4.256v4.257h4.256V48.53" fill="#ec1443"/><path d="M52.782 35.76l-7.663 7.663v17.026l7.663-7.663V35.761" fill="#6ba52f"/><path d="M57.038 31.504l-4.256 4.257v17.025l4.256-4.256V31.504" fill="#691c3a"/><path d="M57.038 48.53l7.661-7.662V23.842l-7.661 7.662V48.53" fill="#791e8e"/><path d="M130.685 56.192c10.822 0 15.75-4.272 15.75-16.175 0-10.785-5.855-15.323-15.325-15.323h-7.235v31.498h6.81zm2.8-44.266c17.028 0 27.848 10.197 27.848 28.091 0 18.693-10.82 28.946-27.529 28.946h-24.828V11.926h24.51M184.319 11.924v57.039H169.42v-57.04h14.899M245.613 31.504h-14.898c-.556-4.805-5.163-8.047-11.199-8.047-8.499 0-13.184 7.05-13.184 16.981 0 10.092 4.607 16.98 13.263 16.98 6.91 0 11.993-3.203 12.946-8.65h-10.325l-.015-10.879h23.838v31.074h-9.364l-1.036-6.178c-3.098 4.566-9.372 7.45-15.804 7.45-16.682 0-28.276-12.657-28.276-29.797 0-16.66 11.04-29.796 28.276-29.796 12.229 0 24.428 6.606 25.778 20.862M269.875 11.926v57.037h-14.898V11.926h14.898M321.38 11.924v12.77h-14.899v44.269h-14.897v-44.27H276.26v-12.77h45.12M337.13 47.678h13.195l-6.385-20.005h-.425l-6.386 20.005zm14.046-35.754l21.283 57.039h-15.324l-3.406-10.217h-20.005l-3.405 10.217h-15.324l21.282-57.04h14.899M392.039 11.924l.001 44.268h25.539v12.77H377.14V11.925h14.898M456.313 11.926l9.578 17.734 10.136-17.734 16.893-.002-18.41 27.082 20.113 29.957h-18.038L465.891 49.95l-11.652 19.013h-17.08l20.272-29.957-18.596-27.08h17.478" fill="#ffffff"/><path d="M7.662.005v11.919h57.037V.004H7.662zm49.376 23.837v7.662l7.661-7.662h-7.661zM20.431 35.761L2.554 53.638l8.513 8.513 26.39-26.39H20.432zm36.607 12.77v8.512h7.661V40.868l-7.661 7.662" fill="#ea088b"/><path d="M64.7 11.924v28.944l8.513-8.513v36.608h11.918v-57.04H64.7zm-36.607 0v11.918h4.257l11.919-11.918H28.093zm21.284 11.918h3.405v-3.405l-3.405 3.405zM25.114 63.428l8.513 8.514 11.492-11.493V43.423L25.114 63.428" fill="#5cb8ea"/><path d="M44.269 11.924L32.35 23.842h17.027l3.405-3.405v3.405h11.917V11.924H44.27" fill="#791e8e"/><path d="M49.377 23.842L0 73.218l7.661 7.663 45.12-45.12V23.842h-3.405zM0 23.842v11.919h20.43L32.35 23.842H0zM45.119 60.45V80.88h11.919V57.043h-4.256v-4.257l-7.663 7.663" fill="#f8de1c"/><path d="M52.782 23.842v11.919l4.256-4.257v-7.662h-4.256zm-20.432 0L20.431 35.761h17.027l11.919-11.919H32.35zM57.038 48.53l-4.256 4.256v4.257h4.256V48.53" fill="#ec1443"/><path d="M52.782 35.76l-7.663 7.663v17.026l7.663-7.663V35.761" fill="#6ba52f"/><path d="M57.038 31.504l-4.256 4.257v17.025l4.256-4.256V31.504" fill="#691c3a"/><path d="M57.038 48.53l7.661-7.662V23.842l-7.661 7.662V48.53" fill="#791e8e"/><path d="M687.299 87.08c-6.935 0-14.064 3.298-14.064 10.525 0 2.618.873 4.654 2.617 6.352 1.796 1.697 4.705 3.007 9.941 4.268 4.076.97 7.519 1.891 7.519 4.412 0 2.23-2.23 3.54-5.577 3.54-4.267 0-6.304-1.697-6.499-5.382h-9.019c0 8 6.014 12.366 15.034 12.366 9.212 0 15.081-3.929 15.081-11.59 0-5.383-3.59-7.711-7.76-9.263-1.696-.63-3.781-1.116-6.159-1.697-4.461-1.068-6.158-1.988-6.158-3.588 0-1.892 1.746-2.959 4.365-2.959 3.25 0 5.576 1.31 5.576 3.88v.29h9.02v-.145c0-6.693-5.77-11.01-13.917-11.01zm-49.271.728v20.61c0 9.504 4.51 14.743 15.083 14.743 10.521 0 15.081-5.189 15.081-14.743v-20.61h-9.02v21.047c0 4.364-1.795 6.547-6.061 6.547-4.171 0-6.063-2.037-6.063-6.547V87.808h-9.02zm-23.957 16.1v-8.875h6.209c2.812 0 4.704 1.504 4.704 4.559 0 3.006-1.844 4.316-4.704 4.316h-6.21zm-9.019-16.1v34.625h9.019v-11.54h7.421c8.39 0 12.512-4.027 12.512-11.882 0-7.469-5.093-11.203-12.415-11.203h-16.537zm-44.857 0v34.625h8.485V96.149h.099l7.273 26.284h6.887l7.274-26.284h.098v26.284h8.484V87.808h-13.286l-5.965 23.084h-.097l-5.964-23.084h-13.288zm-20.271 9.601h.096l3.83 12.124h-7.854l3.928-12.124zm-4.51-9.601l-12.949 34.625h9.264l2.18-6.207h12.078l2.133 6.207h9.408L544.58 87.808h-9.165zm-30.017-.728c-10.669 0-17.265 8.148-17.265 18.04 0 10.718 7.42 18.04 17.265 18.04 8.971 0 15.276-5.382 15.81-14.16h-9.022c-.436 4.316-3.005 6.402-6.982 6.402-5.092 0-8.05-4.122-8.05-10.282 0-6.158 2.958-10.28 8.05-10.28 3.782 0 6.401 1.745 6.982 5.335h9.022c-.34-8.487-8.391-13.095-15.81-13.095" fill="#fff"/><path d="M564.225 29.842c0 6.534-2.582 11.052-9.116 15.569-6.937 4.76-11.052 6.211-17.021 11.94h26.701v11.614h-45.094c0-6.452 2.744-12.745 7.502-17.504 2.422-2.42 6.938-5.647 13.552-9.52 7.18-4.275 9.763-7.178 9.763-10.89 0-4.355-2.825-7.018-7.261-7.018-6.051 0-9.358 3.711-9.358 11.375h-12.825c0-.564-.081-1.13-.081-1.775.081-13.39 9.194-21.619 22.184-21.619 12.261 0 21.054 6.695 21.054 17.828M592.133 58.56c8.875 0 9.278-9.842 9.278-17.747 0-6.857-.162-17.667-9.358-17.667-8.632 0-9.114 10.649-9.114 17.667 0 13.633 3.306 17.746 9.194 17.746zm22.507-17.747c0 14.681-6.21 28.879-22.91 28.879-14.197 0-22.022-11.455-22.022-28.879 0-17.667 7.987-28.799 22.023-28.799 15.892 0 22.909 12.988 22.909 28.8M663.443 29.842c0 6.534-2.583 11.052-9.116 15.569-6.938 4.76-11.052 6.211-17.022 11.94h26.702v11.614h-45.094c0-6.452 2.743-12.745 7.502-17.504 2.421-2.42 6.937-5.647 13.552-9.52 7.18-4.275 9.762-7.178 9.762-10.89 0-4.355-2.825-7.018-7.261-7.018-6.05 0-9.357 3.711-9.357 11.375h-12.826c0-.564-.081-1.13-.081-1.775.081-13.39 9.196-21.619 22.184-21.619 12.261 0 21.055 6.695 21.055 17.828M702.403 12.74v56.225h-14.52V34.44H674.41V24.356h1.21c8.39 0 14.843-3.872 15.407-11.616h11.375" fill="#ffffff"/></svg>
