<svg xmlns="http://www.w3.org/2000/svg" viewBox="0 0 141 38" width="141" height="38">
  <style>
	tspan { white-space:pre }
	.shp0 { fill: #e6007e } 
	.shp1 { fill: #4cb4e7 } 
	.shp2 { fill: #831f82 } 
	.shp3 { fill: #ffde14 } 
	.shp4 { fill: #e4003a } 
	.shp5 { fill: #7ba02d } 
	.shp6 { fill: #75273f } 
	.shp7 { fill: #ffffff } 
  </style>
  <g
     id="dx_east"
     transform="scale(0.50230935,0.50646408)">
    <path
       id="Pfad 229"
       class="shp0"
       d="m 52.92,45.02 v 7.9 h 7.1 V 37.91 Z M 18.95,33.17 2.37,49.76 10.27,57.65 34.75,33.17 Z M 52.92,22.11 v 7.11 l 7.1,-7.11 z M 7.11,0 V 11.06 H 60.02 V 0 Z" />
    <path
       id="Pfad 230"
       class="shp1"
       d="m 23.3,58.84 7.9,7.9 10.66,-10.66 V 40.28 Z M 45.81,22.11 h 3.16 V 18.96 Z M 26.06,11.06 v 11.05 h 3.95 L 41.07,11.06 Z m 33.96,0 v 26.85 l 7.9,-7.9 V 63.97 H 78.98 V 11.06 Z" />
    <path
       id="Pfad 231"
       class="shp2"
       d="M 41.07,11.06 30.01,22.11 h 15.8 l 3.16,-3.15 v 3.15 H 60.02 V 11.06 Z" />
    <path
       id="Pfad 232"
       fill-rule="evenodd"
       class="shp3"
       d="m 48.97,48.97 v 3.95 h 3.95 V 75.03 H 41.86 V 56.08 Z m 0,-26.86 V 33.17 L 7.11,75.03 0,67.92 45.81,22.11 Z m -18.96,0 -11.05,11.06 H 0 V 22.11 Z" />
    <path
       id="Pfad 233"
       class="shp4"
       d="m 52.92,45.02 -3.95,3.95 v 3.95 h 3.95 z M 30.01,22.11 18.95,33.17 h 15.8 L 45.81,22.11 Z m 18.96,0 v 11.06 l 3.95,-3.95 v -7.11 z" />
    <path
       id="Pfad 234"
       class="shp5"
       d="m 48.97,33.17 -7.11,7.11 v 15.8 l 7.11,-7.11 z" />
    <path
       id="Pfad 235"
       class="shp6"
       d="m 52.92,29.22 -3.95,3.95 v 15.8 l 3.95,-3.95 z" />
    <path
       id="Pfad 236"
       class="shp2"
       d="m 52.92,45.02 7.1,-7.11 v -15.8 l -7.1,7.11 z" />
    <path
       id="Pfad 237"
       fill-rule="evenodd"
       class="shp7"
       d="m 110.93,11.06 c 6.84,0 11.18,4.09 11.18,11.28 0,7.5 -4.34,11.62 -11.06,11.62 h -9.96 v -22.9 z m -1.12,17.77 c 4.34,0 6.32,-1.72 6.32,-6.49 0,-4.35 -2.37,-6.16 -6.15,-6.16 h -2.91 v 12.64 z" />
    <path
       id="Pfad 238"
       class="shp7"
       d="m 131.16,11.06 v 22.9 h -5.98 v -22.9 z" />
    <path
       id="Pfad 239"
       class="shp7"
       d="m 155.94,18.96 h -5.98 c -0.22,-1.91 -2.07,-3.2 -4.5,-3.2 -3.41,0 -5.29,2.8 -5.29,6.75 0,4.01 1.85,6.75 5.33,6.75 2.76,0 4.81,-1.27 5.19,-3.44 h -4.14 v -4.34 h 9.56 v 12.35 h -3.76 l -0.41,-2.45 c -1.24,1.82 -3.76,2.96 -6.35,2.96 -6.71,0 -11.34,-5.03 -11.34,-11.85 0,-6.62 4.42,-11.84 11.34,-11.84 4.91,0.01 9.81,2.64 10.35,8.31 z" />
    <path
       id="Pfad 240"
       class="shp7"
       d="m 165.68,11.06 v 22.9 h -5.98 v -22.9 z" />
    <path
       id="Pfad 241"
       class="shp7"
       d="m 186.35,11.06 v 5.13 h -5.98 v 17.77 h -5.98 V 16.19 h -6.16 v -5.13 z" />
    <path
       id="Pfad 242"
       fill-rule="evenodd"
       class="shp7"
       d="m 198.31,11.06 8.54,22.9 h -6.14 l -1.37,-4.1 h -8.03 l -1.36,4.1 h -6.16 l 8.55,-22.9 z m -5.64,14.36 h 5.3 l -2.56,-8.04 h -0.17 z" />
    <path
       id="Pfad 243"
       class="shp7"
       d="m 214.72,11.06 v 17.77 h 10.26 v 5.13 h -16.23 v -22.9 z" />
    <path
       id="Pfad 244"
       class="shp7"
       d="m 240.52,11.06 3.84,7.11 4.07,-7.11 h 6.78 l -7.39,10.87 8.07,12.03 h -7.23 l -4.3,-7.63 -4.66,7.63 h -6.85 l 8.14,-12.03 -7.49,-10.87 z" />
    <path
       id="Pfad 245"
       class="shp7"
       d="m 116.27,41.86 v 1.8 h -13.08 v 7.99 h 12.24 v 1.8 h -12.24 v 8.73 h 13.23 v 1.79 H 101.09 V 41.86 Z" />
    <path
       id="Pfad 246"
       fill-rule="evenodd"
       class="shp7"
       d="m 128.12,41.86 8.62,22.11 h -2.25 l -2.68,-6.87 h -10 l -2.65,6.87 h -2.25 l 8.87,-22.11 z m -5.67,13.43 h 8.65 l -4.24,-11.34 z" />
    <path
       id="Pfad 247"
       class="shp7"
       d="m 154.04,48.3 h -2.1 c -0.15,-3.26 -2.76,-5.05 -6.03,-5.05 -2.99,0 -5.48,1.23 -5.48,4.37 0,2.28 1.85,2.99 3.08,3.3 l 5.35,1.32 c 4.25,1.05 5.93,2.92 5.93,5.85 0,2.15 -1.19,6.28 -8.41,6.28 -5.41,0 -8.77,-2.49 -8.77,-7.15 v -0.55 h 2.1 v 0.2 c 0,4.03 2.73,5.72 7.1,5.72 2.5,0 5.88,-1.32 5.88,-4.46 0,-2 -1.53,-3.24 -4.39,-3.95 l -5.02,-1.23 c -3.27,-0.79 -4.96,-2.34 -4.96,-5.3 0,-2.49 1.72,-6.19 7.54,-6.19 4.67,0 8.18,2.5 8.18,6.84 z" />
    <path
       id="Pfad 248"
       class="shp7"
       d="m 173.18,41.86 v 1.8 h -7.67 v 20.31 h -2.09 V 43.66 h -7.66 v -1.8 z" />
  </g>
</svg>
