<svg xmlns="http://www.w3.org/2000/svg" viewBox="0 0 141 38" width="141" height="38">
	<style>
		tspan { white-space:pre }
		.shp0 { fill: #e6007e } 
		.shp1 { fill: #4cb4e7 } 
		.shp2 { fill: #831f82 } 
		.shp3 { fill: #ffde14 } 
		.shp4 { fill: #e4003a } 
		.shp5 { fill: #7ba02d } 
		.shp6 { fill: #75273f } 
		.shp7 { fill: #ffffff } 
	</style>
	<g id="dx_midwest">
		<path id="Pfad 249" class="shp0" d="M26.18 22.27L26.18 26.18L29.7 26.18L29.7 18.76L26.18 22.27ZM9.38 16.41L1.17 24.62L5.08 28.53L17.19 16.41L9.38 16.41ZM26.18 10.94L26.18 14.46L29.7 10.94L26.18 10.94ZM3.52 0L3.52 5.47L29.7 5.47L29.7 0L3.52 0Z" />
		<path id="Pfad 250" class="shp1" d="M11.53 29.11L15.44 33.02L20.71 27.75L20.71 19.93L11.53 29.11ZM22.67 10.94L24.23 10.94L24.23 9.38L22.67 10.94ZM12.9 5.47L12.9 10.94L14.85 10.94L20.32 5.47L12.9 5.47ZM29.7 5.47L29.7 18.76L33.61 14.85L33.61 31.65L39.08 31.65L39.08 5.47L29.7 5.47Z" />
		<path id="Pfad 251" class="shp2" d="M20.32 5.47L14.85 10.94L22.67 10.94L24.23 9.38L24.23 10.94L29.7 10.94L29.7 5.47L20.32 5.47Z" />
		<path id="Pfad 252" fill-rule="evenodd" class="shp3" d="M24.23 24.23L24.23 26.18L26.18 26.18L26.18 37.12L20.71 37.12L20.71 27.74L24.23 24.23ZM24.23 10.94L24.23 16.41L3.52 37.12L0 33.61L22.67 10.94L24.23 10.94ZM14.85 10.94L9.38 16.41L0 16.41L0 10.94L14.85 10.94Z" />
		<path id="Pfad 253" class="shp4" d="M26.18 22.27L24.23 24.23L24.23 26.18L26.18 26.18L26.18 22.27ZM14.85 10.94L9.38 16.41L17.19 16.41L22.67 10.94L14.85 10.94ZM24.23 10.94L24.23 16.41L26.18 14.46L26.18 10.94L24.23 10.94Z" />
		<path id="Pfad 254" class="shp5" d="M24.23 16.41L20.71 19.93L20.71 27.74L24.23 24.23L24.23 16.41Z" />
		<path id="Pfad 255" class="shp6" d="M26.18 14.46L24.23 16.41L24.23 24.23L26.18 22.27L26.18 14.46Z" />
		<path id="Pfad 256" class="shp2" d="M26.18 22.27L29.7 18.76L29.7 10.94L26.18 14.46L26.18 22.27Z" />
		<path id="Pfad 257" fill-rule="evenodd" class="shp7" d="M54.89 5.47C58.27 5.47 60.42 7.5 60.42 11.05C60.42 14.77 58.27 16.8 54.95 16.8L50.02 16.8L50.02 5.47L54.89 5.47ZM54.33 14.26C56.48 14.26 57.46 13.42 57.46 11.05C57.46 8.9 56.29 8.01 54.41 8.01L52.98 8.01L52.98 14.26L54.33 14.26Z" />
		<path id="Pfad 258" class="shp7" d="M64.9 5.47L64.9 16.8L61.94 16.8L61.94 5.47L64.9 5.47Z" />
		<path id="Pfad 259" class="shp7" d="M77.16 9.38L74.2 9.38C74.09 8.43 73.17 7.8 71.97 7.8C70.28 7.8 69.35 9.18 69.35 11.14C69.35 13.12 70.27 14.48 71.99 14.48C73.36 14.48 74.37 13.85 74.56 12.78L72.51 12.78L72.51 10.63L77.24 10.63L77.24 16.74L75.38 16.74L75.18 15.53C74.56 16.42 73.31 16.99 72.04 16.99C68.72 16.99 66.42 14.5 66.42 11.13C66.42 7.85 68.61 5.27 72.04 5.27C74.47 5.28 76.89 6.57 77.16 9.38Z" />
		<path id="Pfad 260" class="shp7" d="M81.97 5.47L81.97 16.8L79.02 16.8L79.02 5.47L81.97 5.47Z" />
		<path id="Pfad 261" class="shp7" d="M92.2 5.47L92.2 8.01L89.25 8.01L89.25 16.8L86.29 16.8L86.29 8.01L83.24 8.01L83.24 5.47L92.2 5.47Z" />
		<path id="Pfad 262" fill-rule="evenodd" class="shp7" d="M98.12 5.47L102.35 16.8L99.31 16.8L98.63 14.77L94.66 14.77L93.98 16.8L90.94 16.8L95.16 5.47L98.12 5.47ZM95.33 12.58L97.95 12.58L96.68 8.6L96.6 8.6L95.33 12.58Z" />
		<path id="Pfad 263" class="shp7" d="M106.24 5.47L106.24 14.26L111.32 14.26L111.32 16.8L103.28 16.8L103.28 5.47L106.24 5.47Z" />
		<path id="Pfad 264" class="shp7" d="M119 5.47L120.9 8.99L122.92 5.47L126.27 5.47L122.62 10.85L126.61 16.8L123.03 16.8L120.9 13.03L118.6 16.8L115.2 16.8L119.23 10.85L115.53 5.47L119 5.47Z" />
		<path id="Pfad 265" class="shp7" d="M51.54 20.71L55.3 30.3L59.05 20.71L60.57 20.71L60.57 31.65L59.53 31.65L59.53 22.2L59.51 22.2L55.79 31.65L54.82 31.65L51.08 22.2L51.05 22.2L51.05 31.65L50.02 31.65L50.02 20.71L51.54 20.71Z" />
		<path id="Pfad 266" class="shp7" d="M63.85 20.71L63.85 31.65L62.81 31.65L62.81 20.71L63.85 20.71Z" />
		<path id="Pfad 267" fill-rule="evenodd" class="shp7" d="M69.69 20.71C72.91 20.71 74.87 22.31 74.87 26.18C74.87 29.78 73.18 31.65 69.68 31.65L66.12 31.65L66.12 20.71L69.69 20.71ZM69.35 30.76C72.35 30.76 73.84 29.59 73.84 26.18C73.84 22.84 72.45 21.6 69.31 21.6L67.15 21.6L67.15 30.76L69.35 30.76Z" />
		<path id="Pfad 268" class="shp7" d="M76.56 20.71L79.03 30.29L79.06 30.29L81.71 20.71L83.01 20.71L85.67 30.29L85.7 30.29L88.18 20.71L89.22 20.71L86.22 31.65L85.12 31.65L82.37 21.86L82.34 21.86L79.6 31.65L78.47 31.65L75.45 20.71L76.56 20.71Z" />
		<path id="Pfad 269" class="shp7" d="M97.87 20.71L97.87 21.6L91.4 21.6L91.4 25.55L97.45 25.55L97.45 26.44L91.4 26.44L91.4 30.76L97.95 30.76L97.95 31.65L90.36 31.65L90.36 20.71L97.87 20.71Z" />
		<path id="Pfad 270" class="shp7" d="M106.98 23.9L105.94 23.9C105.87 22.28 104.58 21.4 102.96 21.4C101.48 21.4 100.25 22.01 100.25 23.56C100.25 24.69 101.16 25.04 101.77 25.19L104.42 25.85C106.52 26.37 107.36 27.29 107.36 28.74C107.36 29.81 106.77 31.85 103.2 31.85C100.52 31.85 98.86 30.61 98.86 28.31L98.86 28.04L99.9 28.04L99.9 28.14C99.9 30.13 101.25 30.97 103.41 30.97C104.65 30.97 106.32 30.31 106.32 28.76C106.32 27.77 105.56 27.16 104.14 26.81L101.66 26.2C100.05 25.81 99.21 25.04 99.21 23.58C99.21 22.34 100.06 20.52 102.94 20.52C105.24 20.52 106.98 21.75 106.98 23.9Z" />
		<path id="Pfad 271" class="shp7" d="M116.43 20.71L116.43 21.6L112.64 21.6L112.64 31.65L111.61 31.65L111.61 21.6L107.81 21.6L107.81 20.71L116.43 20.71Z" />
	</g>
</svg>
