<svg xmlns="http://www.w3.org/2000/svg" viewBox="0 0 141 38" width="141" height="38">
	<style>
		tspan { white-space:pre }
		.shp0 { fill: #e6007e } 
		.shp1 { fill: #4cb4e7 } 
		.shp2 { fill: #831f82 } 
		.shp3 { fill: #ffde14 } 
		.shp4 { fill: #e4003a } 
		.shp5 { fill: #7ba02d } 
		.shp6 { fill: #75273f } 
		.shp7 { fill: #ffffff } 
	</style>
	<g id="dx_north">
		<path id="Pfad 272" class="shp0" d="M26.18 22.27L26.18 26.18L29.7 26.18L29.7 18.76L26.18 22.27ZM9.38 16.41L1.17 24.62L5.08 28.53L17.19 16.41L9.38 16.41ZM26.18 10.94L26.18 14.46L29.7 10.94L26.18 10.94ZM3.52 0L3.52 5.47L29.7 5.47L29.7 0L3.52 0Z" />
		<path id="Pfad 273" class="shp1" d="M11.53 29.11L15.44 33.02L20.71 27.75L20.71 19.93L11.53 29.11ZM22.66 10.94L24.23 10.94L24.23 9.38L22.66 10.94ZM12.9 5.47L12.9 10.94L14.85 10.94L20.32 5.47L12.9 5.47ZM29.7 5.47L29.7 18.76L33.61 14.85L33.61 31.65L39.08 31.65L39.08 5.47L29.7 5.47Z" />
		<path id="Pfad 274" class="shp2" d="M20.32 5.47L14.85 10.94L22.66 10.94L24.23 9.38L24.23 10.94L29.7 10.94L29.7 5.47L20.32 5.47Z" />
		<path id="Pfad 275" fill-rule="evenodd" class="shp3" d="M24.23 24.23L24.23 26.18L26.18 26.18L26.18 37.12L20.71 37.12L20.71 27.74L24.23 24.23ZM24.23 10.94L24.23 16.41L3.52 37.12L0 33.61L22.67 10.94L24.23 10.94ZM14.85 10.94L9.38 16.41L0 16.41L0 10.94L14.85 10.94Z" />
		<path id="Pfad 276" class="shp4" d="M26.18 22.27L24.23 24.23L24.23 26.18L26.18 26.18L26.18 22.27ZM14.85 10.94L9.38 16.41L17.19 16.41L22.66 10.94L14.85 10.94ZM24.23 10.94L24.23 16.41L26.18 14.46L26.18 10.94L24.23 10.94Z" />
		<path id="Pfad 277" class="shp5" d="M24.23 16.41L20.71 19.93L20.71 27.74L24.23 24.23L24.23 16.41Z" />
		<path id="Pfad 278" class="shp6" d="M26.18 14.46L24.23 16.41L24.23 24.23L26.18 22.27L26.18 14.46Z" />
		<path id="Pfad 279" class="shp2" d="M26.18 22.27L29.7 18.76L29.7 10.94L26.18 14.46L26.18 22.27Z" />
		<path id="Pfad 280" fill-rule="evenodd" class="shp7" d="M54.89 5.47C58.27 5.47 60.42 7.5 60.42 11.05C60.42 14.77 58.27 16.8 54.95 16.8L50.02 16.8L50.02 5.47L54.89 5.47ZM54.33 14.26C56.48 14.26 57.46 13.42 57.46 11.05C57.46 8.9 56.29 8.01 54.41 8.01L52.98 8.01L52.98 14.26L54.33 14.26Z" />
		<path id="Pfad 281" class="shp7" d="M64.9 5.47L64.9 16.8L61.94 16.8L61.94 5.47L64.9 5.47Z" />
		<path id="Pfad 282" class="shp7" d="M77.16 9.38L74.2 9.38C74.09 8.43 73.17 7.8 71.97 7.8C70.28 7.8 69.35 9.18 69.35 11.14C69.35 13.12 70.27 14.48 71.99 14.48C73.36 14.48 74.37 13.85 74.56 12.78L72.51 12.78L72.51 10.63L77.24 10.63L77.24 16.74L75.38 16.74L75.18 15.53C74.56 16.42 73.31 16.99 72.04 16.99C68.72 16.99 66.42 14.5 66.42 11.13C66.42 7.85 68.61 5.27 72.04 5.27C74.47 5.28 76.89 6.57 77.16 9.38Z" />
		<path id="Pfad 283" class="shp7" d="M81.97 5.47L81.97 16.8L79.02 16.8L79.02 5.47L81.97 5.47Z" />
		<path id="Pfad 284" class="shp7" d="M92.2 5.47L92.2 8.01L89.25 8.01L89.25 16.8L86.29 16.8L86.29 8.01L83.23 8.01L83.23 5.47L92.2 5.47Z" />
		<path id="Pfad 285" fill-rule="evenodd" class="shp7" d="M98.12 5.47L102.35 16.8L99.31 16.8L98.63 14.77L94.66 14.77L93.98 16.8L90.94 16.8L95.17 5.47L98.12 5.47ZM95.33 12.58L97.95 12.58L96.68 8.6L96.6 8.6L95.33 12.58Z" />
		<path id="Pfad 286" class="shp7" d="M106.24 5.47L106.24 14.26L111.32 14.26L111.32 16.8L103.29 16.8L103.29 5.47L106.24 5.47Z" />
		<path id="Pfad 287" class="shp7" d="M119 5.47L120.9 8.99L122.92 5.47L126.27 5.47L122.62 10.85L126.61 16.8L123.03 16.8L120.9 13.03L118.6 16.8L115.21 16.8L119.24 10.85L115.53 5.47L119 5.47Z" />
		<path id="Pfad 288" class="shp7" d="M51.18 20.71L57.51 29.97L57.54 29.97L57.54 20.71L58.58 20.71L58.58 31.65L57.42 31.65L51.09 22.4L51.05 22.4L51.05 31.65L50.02 31.65L50.02 20.71L51.18 20.71Z" />
		<path id="Pfad 289" fill-rule="evenodd" class="shp7" d="M70.43 26.18C70.43 29.12 68.75 31.85 65.31 31.85C61.91 31.85 60.18 29.21 60.18 26.18C60.18 23.15 61.9 20.52 65.31 20.52C68.69 20.52 70.43 23.17 70.43 26.18ZM65.31 30.96C68.14 30.96 69.39 28.59 69.39 26.18C69.39 23.82 68.19 21.4 65.29 21.4C62.55 21.4 61.21 23.65 61.21 26.18C61.21 28.57 62.45 30.96 65.31 30.96Z" />
		<path id="Pfad 290" fill-rule="evenodd" class="shp7" d="M76.98 20.71C78.94 20.71 80.32 21.68 80.32 23.56C80.32 25.02 79.54 26.07 78.2 26.35L78.2 26.38C79.91 26.61 80.07 27.97 80.12 29.11C80.15 29.86 80.2 31.17 80.61 31.64L79.47 31.64C79.24 31.29 79.21 30.37 79.16 29.63C79.1 28.56 78.93 27.87 78.58 27.4C78.23 26.98 77.7 26.75 77.16 26.78L73.08 26.78L73.08 31.65L72.04 31.65L72.04 20.71L76.98 20.71ZM76.95 25.91C78.17 25.91 79.28 25.12 79.28 23.78C79.28 22.37 78.43 21.6 76.95 21.6L73.08 21.6L73.08 25.9L76.95 25.91Z" />
		<path id="Pfad 291" class="shp7" d="M89.74 20.71L89.74 21.6L85.95 21.6L85.95 31.65L84.91 31.65L84.91 21.6L81.12 21.6L81.12 20.71L89.74 20.71Z" />
		<path id="Pfad 292" class="shp7" d="M91.79 20.71L91.79 25.46L98.25 25.46L98.25 20.71L99.29 20.71L99.29 31.65L98.25 31.65L98.25 26.35L91.79 26.35L91.79 31.65L90.76 31.65L90.76 20.71L91.79 20.71Z" />
	</g>
</svg>
