<svg xmlns="http://www.w3.org/2000/svg" viewBox="0 0 141 38" width="141" height="38">
	<style>
		tspan { white-space:pre }
		.shp0 { fill: #e6007e } 
		.shp1 { fill: #4cb4e7 } 
		.shp2 { fill: #831f82 } 
		.shp3 { fill: #ffde14 } 
		.shp4 { fill: #e4003a } 
		.shp5 { fill: #7ba02d } 
		.shp6 { fill: #75273f } 
		.shp7 { fill: #ffffff } 
	</style>
	<g id="dx_southwest">
		<path id="Pfad 314" class="shp0" d="M26.18 22.27L26.18 26.18L29.7 26.18L29.7 18.76L26.18 22.27ZM9.38 16.41L1.17 24.62L5.08 28.53L17.19 16.41L9.38 16.41ZM26.18 10.94L26.18 14.46L29.7 10.94L26.18 10.94ZM3.52 0L3.52 5.47L29.7 5.47L29.7 0L3.52 0Z" />
		<path id="Pfad 315" class="shp1" d="M11.53 29.11L15.44 33.02L20.71 27.75L20.71 19.93L11.53 29.11ZM22.66 10.94L24.23 10.94L24.23 9.38L22.66 10.94ZM12.9 5.47L12.9 10.94L14.85 10.94L20.32 5.47L12.9 5.47ZM29.7 5.47L29.7 18.76L33.61 14.85L33.61 31.65L39.08 31.65L39.08 5.47L29.7 5.47Z" />
		<path id="Pfad 316" class="shp2" d="M20.32 5.47L14.85 10.94L22.66 10.94L24.23 9.38L24.23 10.94L29.7 10.94L29.7 5.47L20.32 5.47Z" />
		<path id="Pfad 317" fill-rule="evenodd" class="shp3" d="M24.23 24.23L24.23 26.18L26.18 26.18L26.18 37.12L20.71 37.12L20.71 27.74L24.23 24.23ZM24.23 10.94L24.23 16.41L3.52 37.12L0 33.61L22.67 10.94L24.23 10.94ZM14.85 10.94L9.38 16.41L0 16.41L0 10.94L14.85 10.94Z" />
		<path id="Pfad 318" class="shp4" d="M26.18 22.27L24.23 24.23L24.23 26.18L26.18 26.18L26.18 22.27ZM14.85 10.94L9.38 16.41L17.19 16.41L22.66 10.94L14.85 10.94ZM24.23 10.94L24.23 16.41L26.18 14.46L26.18 10.94L24.23 10.94Z" />
		<path id="Pfad 319" class="shp5" d="M24.23 16.41L20.71 19.93L20.71 27.74L24.23 24.23L24.23 16.41Z" />
		<path id="Pfad 320" class="shp6" d="M26.18 14.46L24.23 16.41L24.23 24.23L26.18 22.27L26.18 14.46Z" />
		<path id="Pfad 321" class="shp2" d="M26.18 22.27L29.7 18.76L29.7 10.94L26.18 14.46L26.18 22.27Z" />
		<path id="Pfad 322" fill-rule="evenodd" class="shp7" d="M54.89 5.47C58.27 5.47 60.42 7.5 60.42 11.05C60.42 14.77 58.27 16.8 54.95 16.8L50.02 16.8L50.02 5.47L54.89 5.47ZM54.33 14.26C56.48 14.26 57.46 13.42 57.46 11.05C57.46 8.9 56.29 8.01 54.42 8.01L52.98 8.01L52.98 14.26L54.33 14.26Z" />
		<path id="Pfad 323" class="shp7" d="M64.9 5.47L64.9 16.8L61.94 16.8L61.94 5.47L64.9 5.47Z" />
		<path id="Pfad 324" class="shp7" d="M77.16 9.38L74.2 9.38C74.09 8.43 73.17 7.8 71.97 7.8C70.28 7.8 69.35 9.18 69.35 11.14C69.35 13.12 70.27 14.48 71.99 14.48C73.36 14.48 74.37 13.85 74.56 12.78L72.51 12.78L72.51 10.63L77.24 10.63L77.24 16.74L75.38 16.74L75.18 15.53C74.56 16.42 73.31 16.99 72.04 16.99C68.72 16.99 66.42 14.5 66.42 11.13C66.42 7.85 68.61 5.27 72.04 5.27C74.46 5.28 76.89 6.57 77.16 9.38Z" />
		<path id="Pfad 325" class="shp7" d="M81.97 5.47L81.97 16.8L79.01 16.8L79.01 5.47L81.97 5.47Z" />
		<path id="Pfad 326" class="shp7" d="M92.2 5.47L92.2 8.01L89.25 8.01L89.25 16.8L86.28 16.8L86.28 8.01L83.23 8.01L83.23 5.47L92.2 5.47Z" />
		<path id="Pfad 327" fill-rule="evenodd" class="shp7" d="M98.12 5.47L102.35 16.8L99.3 16.8L98.63 14.77L94.66 14.77L93.98 16.8L90.94 16.8L95.15 5.47L98.12 5.47ZM95.33 12.58L97.95 12.58L96.68 8.6L96.6 8.6L95.33 12.58Z" />
		<path id="Pfad 328" class="shp7" d="M106.24 5.47L106.24 14.26L111.32 14.26L111.32 16.8L103.29 16.8L103.29 5.47L106.24 5.47Z" />
		<path id="Pfad 329" class="shp7" d="M119 5.47L120.9 8.99L122.92 5.47L126.27 5.47L122.62 10.85L126.61 16.8L123.03 16.8L120.9 13.03L118.6 16.8L115.21 16.8L119.23 10.85L115.53 5.47L119 5.47Z" />
		<path id="Pfad 330" class="shp7" d="M57.74 23.9L56.71 23.9C56.63 22.28 55.34 21.4 53.72 21.4C52.25 21.4 51.01 22.01 51.01 23.56C51.01 24.69 51.93 25.04 52.54 25.19L55.18 25.85C57.28 26.37 58.11 27.29 58.11 28.74C58.11 29.81 57.53 31.85 53.96 31.85C51.28 31.85 49.62 30.61 49.62 28.31L49.62 28.04L50.66 28.04L50.66 28.14C50.66 30.13 52.01 30.97 54.18 30.97C55.41 30.97 57.08 30.31 57.08 28.76C57.08 27.77 56.32 27.16 54.91 26.81L52.42 26.2C50.81 25.81 49.97 25.04 49.97 23.58C49.97 22.34 50.83 20.52 53.7 20.52C56.01 20.52 57.74 21.75 57.74 23.9Z" />
		<path id="Pfad 331" fill-rule="evenodd" class="shp7" d="M69.43 26.18C69.43 29.12 67.75 31.85 64.31 31.85C60.92 31.85 59.18 29.21 59.18 26.18C59.18 23.15 60.9 20.52 64.31 20.52C67.72 20.52 69.43 23.17 69.43 26.18ZM64.31 30.96C67.14 30.96 68.39 28.59 68.39 26.18C68.39 23.82 67.19 21.4 64.3 21.4C61.56 21.4 60.22 23.65 60.22 26.18C60.22 28.57 61.45 30.96 64.31 30.96Z" />
		<path id="Pfad 332" class="shp7" d="M71.96 20.71L71.96 27.49C71.96 29.69 72.86 30.96 75.15 30.96C77.34 30.96 78.34 29.82 78.34 27.48L78.34 20.71L79.38 20.71L79.38 27.68C79.38 30.22 77.93 31.85 75.15 31.85C72.3 31.85 70.93 30.13 70.93 27.68L70.93 20.71L71.96 20.71Z" />
		<path id="Pfad 333" class="shp7" d="M88.9 20.71L88.9 21.6L85.11 21.6L85.11 31.65L84.08 31.65L84.08 21.6L80.29 21.6L80.29 20.71L88.9 20.71Z" />
		<path id="Pfad 334" class="shp7" d="M90.95 20.71L90.95 25.46L97.4 25.46L97.4 20.71L98.44 20.71L98.44 31.65L97.4 31.65L97.4 26.35L90.95 26.35L90.95 31.65L89.92 31.65L89.92 20.71L90.95 20.71Z" />
		<path id="Pfad 335" class="shp7" d="M100.65 20.71L103.11 30.29L103.14 30.29L105.79 20.71L107.08 20.71L109.75 30.29L109.78 30.29L112.26 20.71L113.29 20.71L110.3 31.65L109.2 31.65L106.45 21.86L106.42 21.86L103.68 31.65L102.55 31.65L99.54 20.71L100.65 20.71Z" />
		<path id="Pfad 336" class="shp7" d="M121.94 20.71L121.94 21.6L115.47 21.6L115.47 25.55L121.53 25.55L121.53 26.44L115.47 26.44L115.47 30.76L122.02 30.76L122.02 31.65L114.44 31.65L114.44 20.71L121.94 20.71Z" />
		<path id="Pfad 337" class="shp7" d="M131.02 23.9L129.98 23.9C129.91 22.28 128.62 21.4 127 21.4C125.53 21.4 124.29 22.01 124.29 23.56C124.29 24.69 125.21 25.04 125.82 25.19L128.46 25.85C130.56 26.37 131.39 27.29 131.39 28.74C131.39 29.81 130.81 31.85 127.24 31.85C124.56 31.85 122.9 30.61 122.9 28.31L122.9 28.04L123.94 28.04L123.94 28.14C123.94 30.13 125.29 30.97 127.45 30.97C128.69 30.97 130.36 30.31 130.36 28.76C130.36 27.77 129.6 27.16 128.18 26.81L125.7 26.2C124.09 25.81 123.25 25.04 123.25 23.58C123.25 22.34 124.1 20.52 126.98 20.52C129.28 20.52 131.02 21.75 131.02 23.9Z" />
		<path id="Pfad 338" class="shp7" d="M140.48 20.71L140.48 21.6L136.69 21.6L136.69 31.65L135.66 31.65L135.66 21.6L131.87 21.6L131.87 20.71L140.48 20.71Z" />
	</g>
</svg>