<svg xmlns="http://www.w3.org/2000/svg" viewBox="0 0 141 38" width="141" height="38">
	<style>
		tspan { white-space:pre }
		.shp0 { fill: #e6007e } 
		.shp1 { fill: #4cb4e7 } 
		.shp2 { fill: #831f82 } 
		.shp3 { fill: #ffde14 } 
		.shp4 { fill: #e4003a } 
		.shp5 { fill: #7ba02d } 
		.shp6 { fill: #75273f } 
		.shp7 { fill: #ffffff } 
	</style>
	<g id="dx_west">
		<path id="Pfad 339" class="shp0" d="M26.18 22.27L26.18 26.18L29.7 26.18L29.7 18.76L26.18 22.27ZM9.38 16.41L1.17 24.62L5.08 28.53L17.19 16.41L9.38 16.41ZM26.18 10.94L26.18 14.46L29.7 10.94L26.18 10.94ZM3.52 0L3.52 5.47L29.7 5.47L29.7 0L3.52 0Z" />
		<path id="Pfad 340" class="shp1" d="M11.53 29.11L15.44 33.02L20.71 27.75L20.71 19.93L11.53 29.11ZM22.66 10.94L24.23 10.94L24.23 9.38L22.66 10.94ZM12.9 5.47L12.9 10.94L14.85 10.94L20.32 5.47L12.9 5.47ZM29.7 5.47L29.7 18.76L33.61 14.85L33.61 31.65L39.08 31.65L39.08 5.47L29.7 5.47Z" />
		<path id="Pfad 341" class="shp2" d="M20.32 5.47L14.85 10.94L22.66 10.94L24.23 9.38L24.23 10.94L29.7 10.94L29.7 5.47L20.32 5.47Z" />
		<path id="Pfad 342" fill-rule="evenodd" class="shp3" d="M24.23 24.23L24.23 26.18L26.18 26.18L26.18 37.12L20.71 37.12L20.71 27.74L24.23 24.23ZM24.23 10.94L24.23 16.41L3.52 37.12L0 33.61L22.67 10.94L24.23 10.94ZM14.85 10.94L9.38 16.41L0 16.41L0 10.94L14.85 10.94Z" />
		<path id="Pfad 343" class="shp4" d="M26.18 22.27L24.23 24.23L24.23 26.18L26.18 26.18L26.18 22.27ZM14.85 10.94L9.38 16.41L17.19 16.41L22.66 10.94L14.85 10.94ZM24.23 10.94L24.23 16.41L26.18 14.46L26.18 10.94L24.23 10.94Z" />
		<path id="Pfad 344" class="shp5" d="M24.23 16.41L20.71 19.93L20.71 27.74L24.23 24.23L24.23 16.41Z" />
		<path id="Pfad 345" class="shp6" d="M26.18 14.46L24.23 16.41L24.23 24.23L26.18 22.27L26.18 14.46Z" />
		<path id="Pfad 346" class="shp2" d="M26.18 22.27L29.7 18.76L29.7 10.94L26.18 14.46L26.18 22.27Z" />
		<path id="Pfad 347" fill-rule="evenodd" class="shp7" d="M54.89 5.47C58.27 5.47 60.42 7.5 60.42 11.05C60.42 14.77 58.27 16.8 54.95 16.8L50.02 16.8L50.02 5.47L54.89 5.47ZM54.33 14.26C56.48 14.26 57.46 13.42 57.46 11.05C57.46 8.9 56.29 8.01 54.42 8.01L52.98 8.01L52.98 14.26L54.33 14.26Z" />
		<path id="Pfad 348" class="shp7" d="M64.9 5.47L64.9 16.8L61.94 16.8L61.94 5.47L64.9 5.47Z" />
		<path id="Pfad 349" class="shp7" d="M77.16 9.38L74.2 9.38C74.09 8.43 73.17 7.8 71.97 7.8C70.28 7.8 69.35 9.18 69.35 11.14C69.35 13.12 70.27 14.48 71.99 14.48C73.36 14.48 74.37 13.85 74.56 12.78L72.51 12.78L72.51 10.63L77.24 10.63L77.24 16.74L75.38 16.74L75.18 15.53C74.56 16.42 73.31 16.99 72.04 16.99C68.72 16.99 66.42 14.5 66.42 11.13C66.42 7.85 68.61 5.27 72.04 5.27C74.46 5.28 76.89 6.57 77.16 9.38Z" />
		<path id="Pfad 350" class="shp7" d="M81.97 5.47L81.97 16.8L79.01 16.8L79.01 5.47L81.97 5.47Z" />
		<path id="Pfad 351" class="shp7" d="M92.2 5.47L92.2 8.01L89.25 8.01L89.25 16.8L86.28 16.8L86.28 8.01L83.23 8.01L83.23 5.47L92.2 5.47Z" />
		<path id="Pfad 352" fill-rule="evenodd" class="shp7" d="M98.12 5.47L102.35 16.8L99.3 16.8L98.63 14.77L94.66 14.77L93.98 16.8L90.94 16.8L95.15 5.47L98.12 5.47ZM95.33 12.58L97.95 12.58L96.68 8.6L96.6 8.6L95.33 12.58Z" />
		<path id="Pfad 353" class="shp7" d="M106.24 5.47L106.24 14.26L111.32 14.26L111.32 16.8L103.29 16.8L103.29 5.47L106.24 5.47Z" />
		<path id="Pfad 354" class="shp7" d="M119 5.47L120.9 8.99L122.92 5.47L126.27 5.47L122.62 10.85L126.61 16.8L123.03 16.8L120.9 13.03L118.6 16.8L115.21 16.8L119.23 10.85L115.53 5.47L119 5.47Z" />
		<path id="Pfad 355" class="shp7" d="M50.75 20.62L53.25 30.25L53.28 30.25L55.96 20.62L57.27 20.62L59.96 30.25L59.99 30.25L62.5 20.62L63.55 20.62L60.52 31.62L59.41 31.62L56.62 21.77L56.59 21.77L53.82 31.62L52.68 31.62L49.63 20.62L50.75 20.62Z" />
		<path id="Pfad 356" class="shp7" d="M72.29 20.62L72.29 21.51L65.75 21.51L65.75 25.48L71.88 25.48L71.88 26.38L65.75 26.38L65.75 30.72L72.37 30.72L72.37 31.62L64.7 31.62L64.7 20.62L72.29 20.62Z" />
		<path id="Pfad 357" class="shp7" d="M81.49 23.81L80.44 23.81C80.36 22.17 79.06 21.28 77.42 21.28C75.93 21.28 74.69 21.9 74.69 23.47C74.69 24.61 75.61 24.96 76.23 25.12L78.91 25.78C81.03 26.3 81.88 27.24 81.88 28.71C81.88 29.79 81.29 31.85 77.67 31.85C74.96 31.85 73.29 30.6 73.29 28.28L73.29 28L74.33 28L74.33 28.09C74.33 30.11 75.7 30.96 77.89 30.96C79.14 30.96 80.83 30.3 80.83 28.72C80.83 27.72 80.06 27.11 78.63 26.75L76.12 26.14C74.49 25.73 73.64 24.96 73.64 23.49C73.64 22.24 74.5 20.39 77.41 20.39C79.73 20.38 81.49 21.63 81.49 23.81Z" />
		<path id="Pfad 358" class="shp7" d="M91.07 20.62L91.07 21.51L87.23 21.51L87.23 31.62L86.18 31.62L86.18 21.51L82.35 21.51L82.35 20.62L91.07 20.62Z" />
	</g>
</svg>
