<svg xmlns="http://www.w3.org/2000/svg" xmlns:xlink="http://www.w3.org/1999/xlink" width="375" height="770" viewBox="0 0 375 770">
  <defs>
    <clipPath id="clip-_1">
      <rect width="375" height="770"/>
    </clipPath>
  </defs>
  <g id="_1" data-name="1" clip-path="url(#clip-_1)">
    <g id="Gruppe_602" data-name="Gruppe 602" transform="translate(-654 -7767.173)">
      <rect id="Rechteck_388" data-name="Rechteck 388" width="64" height="27" rx="2" transform="translate(883 8120)" fill="#4cb4e7"/>
      <path id="pfeil" d="M.875,0H9.192a.875.875,0,0,1,.875.875V9.192a.875.875,0,0,1-.875.875H.875A.875.875,0,0,1,0,9.192V.875A.875.875,0,0,1,.875,0Z" transform="translate(915.119 8137.935) rotate(45)" fill="#4cb4e7"/>
      <path id="Pfad_2" data-name="Pfad 2" d="M1,0h4.86V-1.2H2.424V-3.48H5.232v-1.2H2.424V-6.648H5.736v-1.2H1ZM9.2-4.152c.252-.828.48-1.716.684-2.58h.048c.228.852.456,1.752.708,2.58l.264.936H8.94ZM6.564,0H8.016l.6-2.1h2.6l.6,2.1h1.512L10.788-7.848H9.108ZM16.716.144c1.776,0,2.832-1.068,2.832-2.34A2.182,2.182,0,0,0,17.964-4.32l-1.056-.432c-.648-.276-1.236-.492-1.236-1.092,0-.564.468-.9,1.2-.9a2.572,2.572,0,0,1,1.668.66l.768-.936a3.542,3.542,0,0,0-2.436-.972,2.4,2.4,0,0,0-2.64,2.232,2.243,2.243,0,0,0,1.584,2.076l1.068.468c.708.3,1.212.5,1.212,1.128,0,.6-.48,1-1.344,1a3.1,3.1,0,0,1-2.1-.852l-.768.936A3.923,3.923,0,0,0,16.716.144ZM22.428,0h1.428V-6.648h2.256v-1.2h-5.94v1.2h2.256Z" transform="translate(902 8137)" fill="#fff"/>
    </g>
    <g id="Gruppe_604" data-name="Gruppe 604" transform="translate(-742 -7797.086)">
      <rect id="Rechteck_388-2" data-name="Rechteck 388" width="70" height="27" rx="2" transform="translate(880 8120)" fill="#4cb4e7"/>
      <path id="pfeil-2" data-name="pfeil" d="M.875,0H9.192a.875.875,0,0,1,.875.875V9.192a.875.875,0,0,1-.875.875H.875A.875.875,0,0,1,0,9.192V.875A.875.875,0,0,1,.875,0Z" transform="translate(915.119 8137.935) rotate(45)" fill="#4cb4e7"/>
      <path id="Pfad_1" data-name="Pfad 1" d="M1,0H2.328V-3.432c0-.876-.1-1.848-.18-2.664H2.2A17.5,17.5,0,0,0,3-4.32L5.352,0H6.876V-7.848H5.544v3.432c0,.864.1,1.824.18,2.664H5.676a17.5,17.5,0,0,0-.8-1.776L2.52-7.848H1ZM12.048.144c2.052,0,3.468-1.56,3.468-4.1S14.1-7.992,12.048-7.992,8.58-6.492,8.58-3.96,10,.144,12.048.144Zm0-1.236c-1.224,0-2-1.116-2-2.868s.78-2.784,2-2.784,2,1.044,2,2.784S13.26-1.092,12.048-1.092ZM17.208,0h1.428V-3.048H19.8L21.48,0h1.6l-1.86-3.264a2.2,2.2,0,0,0,1.548-2.244c0-1.764-1.26-2.34-2.9-2.34H17.208Zm1.428-4.188v-2.52h1.08c1.068,0,1.644.312,1.644,1.2s-.576,1.32-1.644,1.32ZM25.836,0h1.428V-6.648H29.52v-1.2H23.58v1.2h2.256Zm5.112,0h1.428V-3.456H35.5V0h1.428V-7.848H35.5V-4.7h-3.12V-7.848H30.948Z" transform="translate(896 8137)" fill="#fff"/>
    </g>
    <g id="Gruppe_620" data-name="Gruppe 620" transform="translate(-7183 -1001)">
      <rect id="Rechteck_388-3" data-name="Rechteck 388" width="70" height="27" rx="2" transform="translate(7382 1562.432)" fill="#4cb4e7"/>
      <path id="pfeil-3" data-name="pfeil" d="M.875,0H9.192a.875.875,0,0,1,.875.875V9.192a.875.875,0,0,1-.875.875H.875A.875.875,0,0,1,0,9.192V.875A.875.875,0,0,1,.875,0Z" transform="translate(7417.119 1580.366) rotate(45)" fill="#4cb4e7"/>
      <path id="Pfad_6" data-name="Pfad 6" d="M3.288.144C5.064.144,6.12-.924,6.12-2.2A2.182,2.182,0,0,0,4.536-4.32L3.48-4.752c-.648-.276-1.236-.492-1.236-1.092,0-.564.468-.9,1.2-.9a2.572,2.572,0,0,1,1.668.66L5.88-7.02a3.542,3.542,0,0,0-2.436-.972A2.4,2.4,0,0,0,.8-5.76,2.243,2.243,0,0,0,2.388-3.684l1.068.468c.708.3,1.212.5,1.212,1.128,0,.6-.48,1-1.344,1a3.1,3.1,0,0,1-2.1-.852l-.768.936A3.923,3.923,0,0,0,3.288.144Zm7.44,0c2.052,0,3.468-1.56,3.468-4.1S12.78-7.992,10.728-7.992,7.26-6.492,7.26-3.96,8.676.144,10.728.144Zm0-1.236c-1.224,0-2-1.116-2-2.868s.78-2.784,2-2.784,2,1.044,2,2.784S11.94-1.092,10.728-1.092ZM18.84.144c1.836,0,2.976-1.02,2.976-3.6V-7.848h-1.38v4.5c0,1.692-.648,2.256-1.6,2.256s-1.572-.564-1.572-2.256v-4.5H15.84v4.392C15.84-.876,17,.144,18.84.144ZM25.452,0H26.88V-6.648h2.256v-1.2H23.2v1.2h2.256Zm5.112,0h1.428V-3.456h3.12V0H36.54V-7.848H35.112V-4.7h-3.12V-7.848H30.564Z" transform="translate(7398 1579.432)" fill="#fff"/>
    </g>
    <g id="Gruppe_615" data-name="Gruppe 615" transform="translate(-811 -7702)">
      <rect id="Rechteck_388-4" data-name="Rechteck 388" width="64" height="27" rx="2" transform="translate(883 8120)" fill="#4cb4e7"/>
      <path id="pfeil-4" data-name="pfeil" d="M.875,0H9.192a.875.875,0,0,1,.875.875V9.192a.875.875,0,0,1-.875.875H.875A.875.875,0,0,1,0,9.192V.875A.875.875,0,0,1,.875,0Z" transform="translate(915.119 8137.935) rotate(45)" fill="#4cb4e7"/>
      <path id="Pfad_3" data-name="Pfad 3" d="M1.776,0h1.8l.888-4.128c.132-.624.216-1.176.312-1.9h.048c.1.72.144,1.272.288,1.9L6.048,0H7.872l1.5-7.848H8.016l-.672,3.96c-.12.828-.24,1.656-.336,2.568H6.96c-.144-.912-.324-1.752-.5-2.568L5.52-7.848H4.152l-.936,3.96c-.18.828-.336,1.656-.48,2.568H2.688c-.1-.912-.2-1.728-.336-2.568L1.68-7.848H.216Zm8.94,0h4.86V-1.2H12.144V-3.48h2.808v-1.2H12.144V-6.648h3.312v-1.2h-4.74ZM19.6.144c1.776,0,2.832-1.068,2.832-2.34A2.182,2.182,0,0,0,20.844-4.32l-1.056-.432c-.648-.276-1.236-.492-1.236-1.092,0-.564.468-.9,1.2-.9a2.572,2.572,0,0,1,1.668.66l.768-.936a3.542,3.542,0,0,0-2.436-.972,2.4,2.4,0,0,0-2.64,2.232A2.243,2.243,0,0,0,18.7-3.684l1.068.468c.708.3,1.212.5,1.212,1.128,0,.6-.48,1-1.344,1a3.1,3.1,0,0,1-2.1-.852l-.768.936A3.923,3.923,0,0,0,19.6.144ZM25.308,0h1.428V-6.648h2.256v-1.2h-5.94v1.2h2.256Z" transform="translate(901 8137)" fill="#fff"/>
    </g>
    <g id="Gruppe_618" data-name="Gruppe 618" transform="translate(-766 -7645.914)">
      <rect id="Rechteck_388-5" data-name="Rechteck 388" width="86" height="27" rx="2" transform="translate(872 8120)" fill="#4cb4e7"/>
      <path id="pfeil-5" data-name="pfeil" d="M.875,0H9.192a.875.875,0,0,1,.875.875V9.192a.875.875,0,0,1-.875.875H.875A.875.875,0,0,1,0,9.192V.875A.875.875,0,0,1,.875,0Z" transform="translate(915.119 8137.935) rotate(45)" fill="#4cb4e7"/>
      <path id="Pfad_4" data-name="Pfad 4" d="M.984,0h1.3V-3.576A22.261,22.261,0,0,0,2.064-6.12h.048l.624,1.9L3.984-.72H4.92l1.272-3.5.624-1.9h.048a22.261,22.261,0,0,0-.216,2.544V0h1.32V-7.848H6.288L4.944-4.008c-.168.5-.288.96-.432,1.536H4.464C4.32-3.048,4.176-3.5,4.008-4.008L2.664-7.848H.984Zm9.084,0H11.5V-7.848H10.068ZM13.6,0h2.172c2.328,0,3.768-1.344,3.768-3.96S18.1-7.848,15.7-7.848H13.6Zm1.428-1.152V-6.684H15.6c1.56,0,2.46.8,2.46,2.724s-.9,2.808-2.46,2.808ZM21.96,0h1.8l.888-4.128c.132-.624.216-1.176.312-1.9h.048c.1.72.144,1.272.288,1.9L26.232,0h1.824l1.5-7.848H28.2l-.672,3.96c-.12.828-.24,1.656-.336,2.568h-.048c-.144-.912-.324-1.752-.5-2.568L25.7-7.848H24.336L23.4-3.888c-.18.828-.336,1.656-.48,2.568h-.048c-.1-.912-.2-1.728-.336-2.568l-.672-3.96H20.4ZM30.9,0h4.86V-1.2H32.328V-3.48h2.808v-1.2H32.328V-6.648H35.64v-1.2H30.9Zm8.88.144c1.776,0,2.832-1.068,2.832-2.34A2.182,2.182,0,0,0,41.028-4.32l-1.056-.432c-.648-.276-1.236-.492-1.236-1.092,0-.564.468-.9,1.2-.9a2.572,2.572,0,0,1,1.668.66l.768-.936a3.542,3.542,0,0,0-2.436-.972A2.4,2.4,0,0,0,37.3-5.76,2.243,2.243,0,0,0,38.88-3.684l1.068.468c.708.3,1.212.5,1.212,1.128,0,.6-.48,1-1.344,1a3.1,3.1,0,0,1-2.1-.852l-.768.936A3.923,3.923,0,0,0,39.78.144ZM45.492,0H46.92V-6.648h2.256v-1.2h-5.94v1.2h2.256Z" transform="translate(891 8137)" fill="#fff"/>
    </g>
    <g id="Gruppe_619" data-name="Gruppe 619" transform="translate(-7245 -1048)">
      <rect id="Rechteck_388-6" data-name="Rechteck 388" width="86" height="27" rx="2" transform="translate(7366 1577.259)" fill="#4cb4e7"/>
      <path id="pfeil-6" data-name="pfeil" d="M.875,0H9.192a.875.875,0,0,1,.875.875V9.192a.875.875,0,0,1-.875.875H.875A.875.875,0,0,1,0,9.192V.875A.875.875,0,0,1,.875,0Z" transform="translate(7409.119 1595.194) rotate(45)" fill="#4cb4e7"/>
      <path id="Pfad_5" data-name="Pfad 5" d="M3.288.144C5.064.144,6.12-.924,6.12-2.2A2.182,2.182,0,0,0,4.536-4.32L3.48-4.752c-.648-.276-1.236-.492-1.236-1.092,0-.564.468-.9,1.2-.9a2.572,2.572,0,0,1,1.668.66L5.88-7.02a3.542,3.542,0,0,0-2.436-.972A2.4,2.4,0,0,0,.8-5.76,2.243,2.243,0,0,0,2.388-3.684l1.068.468c.708.3,1.212.5,1.212,1.128,0,.6-.48,1-1.344,1a3.1,3.1,0,0,1-2.1-.852l-.768.936A3.923,3.923,0,0,0,3.288.144Zm7.44,0c2.052,0,3.468-1.56,3.468-4.1S12.78-7.992,10.728-7.992,7.26-6.492,7.26-3.96,8.676.144,10.728.144Zm0-1.236c-1.224,0-2-1.116-2-2.868s.78-2.784,2-2.784,2,1.044,2,2.784S11.94-1.092,10.728-1.092ZM18.84.144c1.836,0,2.976-1.02,2.976-3.6V-7.848h-1.38v4.5c0,1.692-.648,2.256-1.6,2.256s-1.572-.564-1.572-2.256v-4.5H15.84v4.392C15.84-.876,17,.144,18.84.144ZM25.452,0H26.88V-6.648h2.256v-1.2H23.2v1.2h2.256Zm5.112,0h1.428V-3.456h3.12V0H36.54V-7.848H35.112V-4.7h-3.12V-7.848H30.564Zm8.868,0h1.8l.888-4.128c.132-.624.216-1.176.312-1.9h.048c.1.72.144,1.272.288,1.9L43.7,0h1.824l1.5-7.848H45.672L45-3.888c-.12.828-.24,1.656-.336,2.568h-.048c-.144-.912-.324-1.752-.5-2.568l-.936-3.96H41.808l-.936,3.96c-.18.828-.336,1.656-.48,2.568h-.048c-.1-.912-.2-1.728-.336-2.568l-.672-3.96H37.872Zm8.94,0h4.86V-1.2H49.8V-3.48h2.808v-1.2H49.8V-6.648h3.312v-1.2h-4.74Zm8.88.144c1.776,0,2.832-1.068,2.832-2.34A2.182,2.182,0,0,0,58.5-4.32l-1.056-.432c-.648-.276-1.236-.492-1.236-1.092,0-.564.468-.9,1.2-.9a2.572,2.572,0,0,1,1.668.66l.768-.936a3.542,3.542,0,0,0-2.436-.972,2.4,2.4,0,0,0-2.64,2.232,2.243,2.243,0,0,0,1.584,2.076l1.068.468c.708.3,1.212.5,1.212,1.128,0,.6-.48,1-1.344,1a3.1,3.1,0,0,1-2.1-.852l-.768.936A3.923,3.923,0,0,0,57.252.144ZM62.964,0h1.428V-6.648h2.256v-1.2h-5.94v1.2h2.256Z" transform="translate(7376 1594.259)" fill="#fff"/>
    </g>
  </g>
</svg>
