<?xml version="1.0" encoding="UTF-8"?>
<!-- Generator: Adobe Illustrator 22.0.1, SVG Export Plug-In . SVG Version: 6.00 Build 0)  -->
<svg version="1.1" id="artwork" xmlns="http://www.w3.org/2000/svg" xmlns:xlink="http://www.w3.org/1999/xlink" x="0px" y="0px" viewBox="0 0 136 41" style="enable-background:new 0 0 136 41;" xml:space="preserve">
<style type="text/css">
	.st0{fill:#FFFFFF;fill-opacity:0;}
	.st1{fill:#A6A6A6;}
	.st2{fill:#FFFFFF;}
	.st3{fill:url(#SVGID_1_);}
	.st4{fill:url(#SVGID_2_);}
	.st5{fill:url(#SVGID_3_);}
	.st6{fill:url(#SVGID_4_);}
	.st7{opacity:0.2;enable-background:new    ;}
	.st8{opacity:0.12;enable-background:new    ;}
	.st9{opacity:0.25;fill:#FFFFFF;enable-background:new    ;}
	.st10{fill:#FFFFFF;stroke:#FFFFFF;stroke-width:0.2;stroke-miterlimit:10;}
</style>
<title>google-play-badge-de</title>
<rect x="-9.5" y="-9.5" class="st0" width="155" height="60"/>
<path d="M5.5,0.5h125c2.8,0,5,2.2,5,5v30c0,2.8-2.2,5-5,5H5.5c-2.8,0-5-2.2-5-5v-30C0.5,2.7,2.7,0.5,5.5,0.5z"/>
<path class="st1" d="M130.5,1.3c2.3,0,4.2,1.9,4.2,4.2v30c0,2.3-1.9,4.2-4.2,4.2H5.5c-2.3,0-4.2-1.9-4.2-4.2l0,0v-30  c0-2.3,1.9-4.2,4.2-4.2l0,0H130.5 M130.5,0.5H5.5c-2.8,0-5,2.2-5,5v30c0,2.8,2.2,5,5,5h125c2.8,0,5-2.2,5-5v-30  C135.5,2.7,133.3,0.5,130.5,0.5z"/>
<path class="st2" d="M68.6,22.2c-2.3,0-4.2,1.9-4.2,4.3c0,2.3,1.9,4.2,4.3,4.2c2.3,0,4.2-1.9,4.2-4.2c0-2.3-1.8-4.2-4.1-4.3  C68.7,22.2,68.7,22.2,68.6,22.2z M68.6,29.1c-1.4,0.1-2.7-1-2.8-2.4c-0.1-1.4,1-2.7,2.4-2.8c1.4-0.1,2.7,1,2.8,2.4  c0,0.1,0,0.1,0,0.2C71.1,27.9,70.1,29,68.6,29.1C68.7,29.1,68.7,29.1,68.6,29.1z M59.3,22.3c-2.3,0-4.2,1.9-4.2,4.3  c0,2.3,1.9,4.2,4.3,4.2c2.3,0,4.2-1.9,4.2-4.2c0-2.3-1.8-4.2-4.1-4.3C59.4,22.2,59.4,22.2,59.3,22.3L59.3,22.3z M59.3,29.1  c-1.4,0.1-2.7-1-2.8-2.4c-0.1-1.4,1-2.7,2.4-2.8c1.4-0.1,2.7,1,2.8,2.4c0,0.1,0,0.1,0,0.2C61.8,27.9,60.7,29,59.3,29.1  C59.4,29.1,59.3,29.1,59.3,29.1L59.3,29.1z M48.2,23.6v1.8h4.3c-0.1,0.8-0.4,1.6-1,2.3c-0.9,0.9-2.1,1.4-3.3,1.3  c-2.7,0-4.8-2.1-4.8-4.8s2.1-4.8,4.8-4.8c1.2,0,2.4,0.4,3.3,1.3l1.3-1.3c-1.2-1.2-2.8-1.9-4.5-1.9c-3.6-0.1-6.7,2.7-6.9,6.3  c-0.1,3.6,2.7,6.7,6.3,6.9c0.2,0,0.3,0,0.5,0c1.7,0.1,3.4-0.6,4.6-1.8c1-1.2,1.6-2.7,1.6-4.2c0-0.4,0-0.8-0.1-1.1L48.2,23.6z   M93.6,25c-0.5-1.6-2-2.6-3.6-2.7c-2.2,0-4,1.8-4,4c0,0.1,0,0.2,0,0.3c0,2.3,1.8,4.2,4.1,4.2c0.1,0,0.1,0,0.2,0  c1.4,0,2.8-0.7,3.5-1.9l-1.4-1c-0.4,0.7-1.2,1.2-2.1,1.2c-0.9,0-1.7-0.5-2.1-1.3l5.7-2.3L93.6,25z M87.8,26.4  c-0.1-1.3,0.9-2.4,2.2-2.5c0,0,0,0,0,0c0.7,0,1.3,0.3,1.6,0.9L87.8,26.4z M83.1,30.5H85V18h-1.9V30.5z M80.1,23.2L80.1,23.2  c-0.6-0.6-1.5-1-2.3-1c-2.3,0.1-4.2,2.1-4,4.5c0.1,2.2,1.9,3.9,4,4c0.9,0,1.7-0.4,2.2-1h0.1v0.6c0,1.6-0.9,2.5-2.3,2.5  c-1,0-1.8-0.6-2.1-1.5L74,32c0.6,1.5,2.1,2.5,3.8,2.5c2.2,0,4-1.3,4-4.4v-7.6h-1.7V23.2z M77.9,29.1c-1.4-0.1-2.5-1.4-2.4-2.8  c0.1-1.3,1.1-2.2,2.4-2.4c1.3,0.1,2.3,1.2,2.3,2.5c0,0,0,0,0,0.1c0.1,1.3-0.9,2.5-2.2,2.6C78,29.1,78,29.1,77.9,29.1L77.9,29.1z   M102.3,18h-4.5v12.5h1.9v-4.7h2.6c2.1,0.2,4-1.5,4.2-3.6c0.2-2.1-1.5-4-3.6-4.2C102.7,18,102.5,18,102.3,18L102.3,18z M102.3,24  h-2.6v-4.3h2.7c1.2,0,2.1,1,2.1,2.1S103.5,24,102.3,24L102.3,24z M113.8,22.2c-1.4-0.1-2.7,0.7-3.3,1.9l1.7,0.7c0.3-0.6,1-1,1.7-0.9  c1-0.1,1.9,0.6,2,1.6c0,0,0,0,0,0v0.1c-0.6-0.3-1.3-0.5-1.9-0.5c-1.8,0-3.6,1-3.6,2.8c0.1,1.6,1.4,2.8,3,2.8c0,0,0.1,0,0.1,0  c1,0.1,1.9-0.4,2.4-1.2h0.1v1h1.8v-4.8C117.7,23.5,116,22.2,113.8,22.2L113.8,22.2z M113.6,29c-0.6,0-1.5-0.3-1.5-1.1  c0-1,1.1-1.3,2-1.3c0.6,0,1.2,0.1,1.7,0.4C115.7,28.2,114.8,29.1,113.6,29L113.6,29z M124.2,22.5l-2.1,5.4H122l-2.2-5.4h-2l3.3,7.6  l-1.9,4.2h1.9l5.1-11.8H124.2z M107.4,30.5h1.9V18h-1.9V30.5z"/>
<linearGradient id="SVGID_1_" gradientUnits="userSpaceOnUse" x1="22.3025" y1="599.2125" x2="5.5225" y2="615.9925" gradientTransform="matrix(1 0 0 1 0 -590)">
	<stop offset="0" style="stop-color:#00A0FF"/>
	<stop offset="1.000000e-02" style="stop-color:#00A1FF"/>
	<stop offset="0.26" style="stop-color:#00BEFF"/>
	<stop offset="0.51" style="stop-color:#00D2FF"/>
	<stop offset="0.76" style="stop-color:#00DFFF"/>
	<stop offset="1" style="stop-color:#00E3FF"/>
</linearGradient>
<path class="st3" d="M10.9,8c-0.3,0.4-0.5,0.9-0.5,1.4v22.1c0,0.5,0.1,1,0.5,1.4L11,33l12.4-12.4v-0.3L10.9,8L10.9,8z"/>
<linearGradient id="SVGID_2_" gradientUnits="userSpaceOnUse" x1="34.33" y1="610.5" x2="10.14" y2="610.5" gradientTransform="matrix(1 0 0 1 0 -590)">
	<stop offset="0" style="stop-color:#FFE000"/>
	<stop offset="0.41" style="stop-color:#FFBD00"/>
	<stop offset="0.78" style="stop-color:#FFA500"/>
	<stop offset="1" style="stop-color:#FF9C00"/>
</linearGradient>
<path class="st4" d="M27.5,24.8l-4.1-4.1v-0.3l4.1-4.1l0.1,0l4.9,2.8c1.4,0.8,1.4,2.1,0,2.9l-4.9,2.8L27.5,24.8z"/>
<linearGradient id="SVGID_3_" gradientUnits="userSpaceOnUse" x1="25.3275" y1="612.7975" x2="2.5675" y2="635.5475" gradientTransform="matrix(1 0 0 1 0 -590)">
	<stop offset="0" style="stop-color:#FF3A44"/>
	<stop offset="1" style="stop-color:#C31162"/>
</linearGradient>
<path class="st5" d="M27.6,24.7l-4.2-4.2L10.9,33c0.6,0.5,1.5,0.5,2.1,0.1L27.6,24.7"/>
<linearGradient id="SVGID_4_" gradientUnits="userSpaceOnUse" x1="7.7975" y1="590.6825" x2="17.9575" y2="600.8425" gradientTransform="matrix(1 0 0 1 0 -590)">
	<stop offset="0" style="stop-color:#32A071"/>
	<stop offset="7.000000e-02" style="stop-color:#2DA771"/>
	<stop offset="0.48" style="stop-color:#15CF74"/>
	<stop offset="0.8" style="stop-color:#06E775"/>
	<stop offset="1" style="stop-color:#00F076"/>
</linearGradient>
<path class="st6" d="M27.6,16.3L13,8c-0.6-0.5-1.5-0.5-2.1,0.1l12.5,12.5L27.6,16.3z"/>
<path class="st7" d="M27.5,24.6L13,32.9c-0.6,0.4-1.4,0.4-2,0l0,0L10.9,33l0,0L11,33l0,0c0.6,0.4,1.4,0.4,2,0l14.6-8.3L27.5,24.6z"/>
<path class="st8" d="M10.9,32.8c-0.3-0.4-0.5-0.9-0.5-1.4v0.2c0,0.5,0.1,1,0.5,1.4V32.8L10.9,32.8z"/>
<path class="st8" d="M32.5,21.8l-5,2.8l0.1,0.1l4.9-2.8c0.6-0.3,0.9-0.8,1-1.4l0,0C33.4,21.1,33,21.5,32.5,21.8z"/>
<path class="st9" d="M13,8.1l19.5,11.1c0.5,0.3,0.9,0.7,1,1.3l0,0c-0.1-0.6-0.4-1.2-1-1.4L13,8c-1.4-0.8-2.5-0.1-2.5,1.5v0.1  C10.5,8,11.6,7.3,13,8.1z"/>
<path class="st10" d="M43.5,13.6c-0.4,0-0.8-0.1-1.1-0.4c-0.3-0.3-0.5-0.6-0.7-1l0.7-0.3c0.1,0.5,0.5,1,1.1,1c0.3,0,0.6-0.1,0.8-0.4  c0.2-0.3,0.3-0.6,0.3-0.9V7.5h0.8v4.1c0,0.6-0.2,1.1-0.5,1.5C44.5,13.5,44,13.6,43.5,13.6z"/>
<path class="st10" d="M50.2,8.2h-2.7v1.9H50v0.7h-2.5v1.9h2.7v0.7h-3.5v-6h3.5L50.2,8.2z"/>
<path class="st10" d="M53.5,13.5h-0.8V8.2H51V7.5h4.1v0.7h-1.6V13.5z"/>
<path class="st10" d="M55.8,13.5v-0.8L59,8.2h-3.1V7.5h4v0.8l-3.2,4.5h3.2v0.7H55.8z"/>
<path class="st10" d="M63,13.5h-0.8V8.2h-1.7V7.5h4.1v0.7H63V13.5z"/>
<path class="st10" d="M67.7,13.5v-6h2.2c0.5,0,0.9,0.2,1.2,0.5c0.3,0.3,0.5,0.7,0.5,1.2c0,0.3-0.1,0.5-0.2,0.8  c-0.1,0.2-0.4,0.4-0.6,0.5l0,0c0.3,0.1,0.5,0.3,0.7,0.5c0.2,0.2,0.3,0.5,0.3,0.9c0,0.5-0.2,0.9-0.5,1.2c-0.3,0.3-0.8,0.5-1.3,0.5  L67.7,13.5z M68.5,10.1h1.4c0.3,0,0.5-0.1,0.7-0.3c0.3-0.3,0.3-0.9,0-1.3c0,0,0,0,0,0c-0.2-0.2-0.4-0.3-0.7-0.3h-1.4V10.1z   M68.5,12.8h1.6c0.3,0,0.5-0.1,0.7-0.3c0.2-0.2,0.3-0.4,0.3-0.7c0-0.6-0.4-1-1-1h-1.6V12.8z"/>
<path class="st10" d="M76.3,8.2h-2.7v1.9h2.5v0.7h-2.5v1.9h2.7v0.7h-3.5v-6h3.5L76.3,8.2z"/>
<path class="st10" d="M77.6,13.5v-6h0.8v6H77.6z"/>
</svg>