<?xml version="1.0" encoding="utf-8"?>

<svg version="1.1" id="Ebene_1" xmlns="http://www.w3.org/2000/svg" xmlns:xlink="http://www.w3.org/1999/xlink" x="0px" y="0px"
	 viewBox="0 0 48 48" style="enable-background:new 0 0 48 48;" xml:space="preserve">
<g transform="matrix(2,0,0,2,0,0)" fill="#E6007E" stroke="#ce0272" stroke-linecap="round" stroke-linejoin="round">
	<path  d="M21,10c0,7-9,13.5-9,13.5S3,17,3,10c0-5.2,3.8-9.5,9-9.5S21,4.8,21,10z"/>
</g>
<g transform="matrix(2,0,0,2,0,0)">
	<path fill="none" stroke="#ffffff" stroke-linecap="round" stroke-linejoin="round"  d="M17.7,13.2c0.2,0.2,0.2,0.5,0,0.7l-3.4,3.4c-0.2,0.2-0.5,0.2-0.7,0l-6.5-6.5c-0.1-0.1-0.1-0.2-0.1-0.3l0-3.4
		c0-0.3,0.2-0.5,0.5-0.5h3.4c0.1,0,0.3,0.1,0.3,0.1L17.7,13.2z"/>
	<path fill="none" stroke="#ffffff" stroke-linecap="round" stroke-linejoin="round"  d="M8.6,9c0,0.4,0.3,0.7,0.7,0.7c0.4,0,0.7-0.3,0.7-0.7c0,0,0,0,0,0c0-0.4-0.3-0.7-0.7-0.7C8.9,8.2,8.6,8.6,8.6,9
		C8.6,9,8.6,9,8.6,9z"/>
</g>
</svg>
