<svg viewBox="0 0 48 48" height="48" width="48" xmlns="http://www.w3.org/2000/svg"><g transform="matrix(2,0,0,2,0,0)"><path d="M21,10.063c0,6.227-7.122,12.059-8.695,13.27a.5.5,0,0,1-.61,0C10.121,22.121,3,16.29,3,10.063c0-5.246,3.753-9.5,9-9.5S21,4.817,21,10.063Z" fill="#E6007E" stroke="#ce0272" stroke-linecap="round" stroke-linejoin="round"></path><path d="M12.589,4.794l1.282,2.769h2.495A.612.612,0,0,1,16.8,8.632l-2.166,2.136,1.2,2.761a.654.654,0,0,1-.931.818L12,12.713,9.1,14.347a.654.654,0,0,1-.931-.818l1.2-2.761L7.2,8.632a.612.612,0,0,1,.429-1.069h2.5l1.285-2.769A.662.662,0,0,1,12.589,4.794Z" fill="none" stroke="#ffffff" stroke-linecap="round" stroke-linejoin="round"></path></g></svg>