<svg viewBox="0 0 48 48" height="48" width="48" xmlns="http://www.w3.org/2000/svg"><g transform="matrix(2,0,0,2,0,0)"><path d="M12,.574a11.38,11.38,0,0,1,6.112,1.77c4.75,3.011,5.1,9.23,1.315,13.777a59.3,59.3,0,0,1-7.106,7.188.5.5,0,0,1-.642,0,59.333,59.333,0,0,1-7.106-7.189C.789,11.574,1.138,5.355,5.888,2.344A11.38,11.38,0,0,1,12,.574Z" fill="#E6007E" stroke="#ce0272" stroke-linecap="round" stroke-linejoin="round"></path><path d="M14 14.573L17 14.573 17 11.574" fill="none" stroke="#ffffff" stroke-linecap="round" stroke-linejoin="round"></path><path d="M10 4.573L7 4.573 7 7.574" fill="none" stroke="#ffffff" stroke-linecap="round" stroke-linejoin="round"></path><path d="M17 14.573L14 11.574" fill="none" stroke="#ffffff" stroke-linecap="round" stroke-linejoin="round"></path><path d="M7 4.573L10 7.574" fill="none" stroke="#ffffff" stroke-linecap="round" stroke-linejoin="round"></path><path d="M10 14.573L7 14.573 7 11.574" fill="none" stroke="#ffffff" stroke-linecap="round" stroke-linejoin="round"></path><path d="M14 4.573L17 4.573 17 7.574" fill="none" stroke="#ffffff" stroke-linecap="round" stroke-linejoin="round"></path><path d="M7 14.573L10 11.574" fill="none" stroke="#ffffff" stroke-linecap="round" stroke-linejoin="round"></path><path d="M17 4.573L14 7.574" fill="none" stroke="#ffffff" stroke-linecap="round" stroke-linejoin="round"></path></g></svg>