<svg xmlns="http://www.w3.org/2000/svg" viewBox="0 0 48 48" height="48" width="48"><g transform="matrix(2,0,0,2,0,0)"><path fill="none" stroke="#666666" stroke-linecap="round" stroke-linejoin="round" d="M14 9.5h1.5v4l4.5-4h3.5v-9h-15v4m-8 19a8.719 8.719 0 0 1 .7-3.322c.49-.981 2.539-1.661 5.111-2.613.695-.258.581-2.074.273-2.413a5.127 5.127 0 0 1-1.336-3.978A3.354 3.354 0 0 1 8.5 7.5a3.354 3.354 0 0 1 3.256 3.674 5.127 5.127 0 0 1-1.336 3.978c-.308.339-.422 2.155.273 2.413 2.572.952 4.621 1.632 5.111 2.613a8.719 8.719 0 0 1 .7 3.322z"></path><path d="M16 4.75a.25.25 0 0 1 .25.25h0a.25.25 0 0 1-.25.25h0a.25.25 0 0 1-.25-.25h0a.25.25 0 0 1 .25-.25m0 0h0m3.5 0a.25.25 0 0 1 .25.25h0a.25.25 0 0 1-.25.25h0a.25.25 0 0 1-.25-.25h0a.25.25 0 0 1 .25-.25m0 0h0m-7 0a.25.25 0 0 0-.25.25h0a.25.25 0 0 0 .25.25h0a.25.25 0 0 0 .25-.25h0a.25.25 0 0 0-.25-.25m0 0h0" fill="none" stroke="#666666" stroke-linecap="round" stroke-linejoin="round"></path></g></svg>