<svg viewBox="0 0 48 48" height="48" width="48" xmlns="http://www.w3.org/2000/svg"><g transform="matrix(2,0,0,2,0,0)"><path d="M9.254 9.750 A2.750 2.750 0 1 0 14.754 9.750 A2.750 2.750 0 1 0 9.254 9.750 Z" fill="none" stroke="#666666" stroke-linecap="round" stroke-linejoin="round"></path><path d="M15.371,16.038a3.5,3.5,0,0,0-6.723-.033" fill="none" stroke="#666666" stroke-linecap="round" stroke-linejoin="round"></path><path d="M6.504 18.022L17.504 18.022" fill="none" stroke="#666666" stroke-linecap="round" stroke-linejoin="round"></path><path d="M9.004 23.5L7.504 18.022 16.504 18.022 15.004 23.5" fill="none" stroke="#666666" stroke-linecap="round" stroke-linejoin="round"></path><path d="M12,20.272a.25.25,0,1,0,.25.25.25.25,0,0,0-.25-.25h0" fill="none" stroke="#666666" stroke-linecap="round" stroke-linejoin="round"></path><path d="M5.5,15.5H1.507a1,1,0,0,1-1-1V1.5a1,1,0,0,1,1-1H22.5a1,1,0,0,1,1,1v13a1,1,0,0,1-1,1h-4" fill="none" stroke="#666666" stroke-linecap="round" stroke-linejoin="round"></path></g></svg>