<svg viewBox="0 0 48 48" height="48" width="48" xmlns="http://www.w3.org/2000/svg"><g transform="matrix(2,0,0,2,0,0)"><path d="M8.060 9.000 A3.000 3.000 0 1 0 14.060 9.000 A3.000 3.000 0 1 0 8.060 9.000 Z" fill="none" stroke="#666666" stroke-linecap="round" stroke-linejoin="round"></path><path d="M14.03,9.53l4.53,4.531a1.414,1.414,0,0,1-2,2l-4.3-4.311" fill="none" stroke="#666666" stroke-linecap="round" stroke-linejoin="round"></path><path d="M8.939 11.121L13.181 6.88" fill="none" stroke="#666666" stroke-linecap="round" stroke-linejoin="round"></path><path d="M15 14.5L15 20.5" fill="none" stroke="#666666" stroke-linecap="round" stroke-linejoin="round"></path><path d="M13.5 20.5L16.5 20.5" fill="none" stroke="#666666" stroke-linecap="round" stroke-linejoin="round"></path><path d="M7.000 21.000 A7.5 2.5 0 1 0 22.000 21.000 A7.5 2.5 0 1 0 7.000 21.000 Z" fill="none" stroke="#666666" stroke-linecap="round" stroke-linejoin="round"></path><path d="M11.439 14L7.642 19.987" fill="none" stroke="#666666" stroke-linecap="round" stroke-linejoin="round"></path><path d="M22,21,20.141,1.947a.5.5,0,0,0-.92-.219L15.561,7.5" fill="none" stroke="#666666" stroke-linecap="round" stroke-linejoin="round"></path><path d="M4.5,2.5A2.231,2.231,0,0,0,7,5c-1.615-.006-2.418.86-2.5,2.5A2.211,2.211,0,0,0,2,5,2.232,2.232,0,0,0,4.5,2.5Z" fill="none" stroke="#666666" stroke-linecap="round" stroke-linejoin="round"></path><path d="M14,.5A2.231,2.231,0,0,0,16.5,3c-1.615-.006-2.418.86-2.5,2.5A2.211,2.211,0,0,0,11.5,3,2.232,2.232,0,0,0,14,.5Z" fill="none" stroke="#666666" stroke-linecap="round" stroke-linejoin="round"></path></g></svg>