<svg viewBox="0 0 48 48" height="48" width="48" xmlns="http://www.w3.org/2000/svg"><g transform="matrix(2,0,0,2,0,0)"><path d="M0.5 21.5L23.5 21.5" fill="none" stroke="#666666" stroke-linecap="round" stroke-linejoin="round"></path><path d="M0.5 13.5L10.5 9.5" fill="none" stroke="#666666" stroke-linecap="round" stroke-linejoin="round"></path><path d="M2.5 12.719L2.5 21.5" fill="none" stroke="#666666" stroke-linecap="round" stroke-linejoin="round"></path><path d="M9 2.5L23.5 11.5" fill="none" stroke="#666666" stroke-linecap="round" stroke-linejoin="round"></path><path d="M21.5 10.281L21.5 21.5" fill="none" stroke="#666666" stroke-linecap="round" stroke-linejoin="round"></path><path d="M18.5,8.407V5a.5.5,0,0,1,.5-.5h1a.5.5,0,0,1,.5.5V9.641" fill="none" stroke="#666666" stroke-linecap="round" stroke-linejoin="round"></path><path d="M19,21.5a.5.5,0,0,0,.5-.5V18a.5.5,0,0,0-.5-.5H13a.5.5,0,0,0-.5.5v3a.5.5,0,0,0,.5.5" fill="none" stroke="#666666" stroke-linecap="round" stroke-linejoin="round"></path><path d="M16.5 17.5L16.5 21.5" fill="none" stroke="#666666" stroke-linecap="round" stroke-linejoin="round"></path><path d="M13.501 11.500 A1.500 1.500 0 1 0 16.501 11.500 A1.500 1.500 0 1 0 13.501 11.500 Z" fill="none" stroke="#666666" stroke-linecap="round" stroke-linejoin="round"></path><path d="M8,21.5a.5.5,0,0,0,.5-.5V17a.5.5,0,0,0-.5-.5H5a.5.5,0,0,0-.5.5v4a.5.5,0,0,0,.5.5" fill="none" stroke="#666666" stroke-linecap="round" stroke-linejoin="round"></path><path d="M10.5 3.453L10.5 21.5" fill="none" stroke="#666666" stroke-linecap="round" stroke-linejoin="round"></path></g></svg>